<svg xmlns="http://www.w3.org/2000/svg" xmlns:xlink="http://www.w3.org/1999/xlink" viewBox="0 0 1385.98 742"><defs><style>.cls-1,.cls-10{fill:#fff;}.cls-2{opacity:0.11;fill:url(#Gradiente_sem_nome_2);}.cls-10,.cls-2,.cls-22,.cls-24,.cls-26,.cls-27,.cls-29,.cls-30,.cls-6{isolation:isolate;}.cls-3{opacity:0.15;}.cls-4,.cls-6{fill:#e0ff3d;}.cls-5{fill:#b6cf32;}.cls-29,.cls-6{opacity:0.4;}.cls-7{fill:#42e8e0;}.cls-8{fill:url(#Gradiente_sem_nome_9);}.cls-9{fill:url(#Gradiente_sem_nome_7);}.cls-10,.cls-24,.cls-25{opacity:0.8;}.cls-11{fill:url(#Gradiente_sem_nome_6);}.cls-12{fill:url(#Gradiente_sem_nome_5);}.cls-13,.cls-30{opacity:0.2;}.cls-14{fill:#0e173d;}.cls-15{fill:#252f64;}.cls-16{fill:#35468c;}.cls-17{fill:url(#Gradiente_sem_nome_6-2);}.cls-18{fill:url(#Gradiente_sem_nome_7-2);}.cls-19{fill:#d3d3d3;}.cls-20{fill:#626f1b;}.cls-21{fill:#8c9f26;}.cls-22{opacity:0.7;fill:url(#Gradiente_sem_nome_8);}.cls-23{fill:url(#Gradiente_sem_nome_9-2);}.cls-24{fill:#453c9e;}.cls-26{fill:none;}.cls-26,.cls-27{opacity:0.6;}.cls-27{fill:url(#Gradiente_sem_nome_18);}.cls-28{opacity:0.1;}.cls-29,.cls-30,.cls-31{fill:#131a3a;}.cls-32{mask:url(#mask);}</style><radialGradient id="Gradiente_sem_nome_2" cx="-266.57" cy="913.28" r="1" gradientTransform="matrix(673.14, 0, 0, -74.12, 180132.76, 68754.93)" gradientUnits="userSpaceOnUse"><stop offset="0" stop-color="#03002d"/><stop offset="0.16" stop-color="#403e60"/><stop offset="0.33" stop-color="#797890"/><stop offset="0.49" stop-color="#a9a8b7"/><stop offset="0.64" stop-color="#ceced6"/><stop offset="0.78" stop-color="#e9e8ec"/><stop offset="0.9" stop-color="#f9f9fa"/><stop offset="1" stop-color="#fff"/></radialGradient><radialGradient id="Gradiente_sem_nome_9" cx="-266.58" cy="912.39" r="1" gradientTransform="matrix(661.63, 0, 0, -662.25, 177412.41, 604500.22)" gradientUnits="userSpaceOnUse"><stop offset="0" stop-color="#b6cf32"/><stop offset="0.38" stop-color="#b8d132"/><stop offset="0.62" stop-color="#bfda34"/><stop offset="0.81" stop-color="#cce837"/><stop offset="0.99" stop-color="#defc3c"/><stop offset="1" stop-color="#e0ff3d"/></radialGradient><radialGradient id="Gradiente_sem_nome_7" cx="-268.42" cy="912.89" r="1" gradientTransform="matrix(120.88, 0, 0, -120.99, 33446.58, 110820.49)" gradientUnits="userSpaceOnUse"><stop offset="0" stop-color="#252f64"/><stop offset="0.03" stop-color="#232c5e"/><stop offset="0.2" stop-color="#1b234a"/><stop offset="0.4" stop-color="#161c3c"/><stop offset="0.63" stop-color="#121833"/><stop offset="1" stop-color="#121731"/></radialGradient><linearGradient id="Gradiente_sem_nome_6" x1="197.97" y1="538.21" x2="-63.85" y2="531.21" gradientTransform="matrix(1, 0, 0, -1, 539.06, 986.91)" gradientUnits="userSpaceOnUse"><stop offset="0" stop-color="#5761d7"/><stop offset="0.04" stop-color="#5b65d8"/><stop offset="0.09" stop-color="#6a72de"/><stop offset="0.14" stop-color="#8188e8"/><stop offset="0.19" stop-color="#a2a6f5"/><stop offset="0.22" stop-color="#bcbeff"/></linearGradient><linearGradient id="Gradiente_sem_nome_5" x1="118.96" y1="673.44" x2="19.42" y2="516.29" gradientTransform="matrix(1, 0, 0, -1, 539.06, 986.91)" gradientUnits="userSpaceOnUse"><stop offset="0" stop-color="#c0bff6"/><stop offset="0.29" stop-color="#c4c3f6"/><stop offset="0.64" stop-color="#d2d2f9"/><stop offset="1" stop-color="#e9e9fd"/></linearGradient><linearGradient id="Gradiente_sem_nome_6-2" x1="197.68" y1="559.8" x2="-64.14" y2="552.79" xlink:href="#Gradiente_sem_nome_6"/><radialGradient id="Gradiente_sem_nome_7-2" cx="-265.21" cy="913.21" r="1" gradientTransform="matrix(-107.48, -182.05, -181.97, 107.43, 138407.37, -145866.92)" xlink:href="#Gradiente_sem_nome_7"/><linearGradient id="Gradiente_sem_nome_8" x1="356.15" y1="978.7" x2="86.11" y2="511.06" gradientTransform="matrix(1, 0, 0, -1, 539.06, 986.91)" gradientUnits="userSpaceOnUse"><stop offset="0" stop-color="#c0bff6"/><stop offset="0.12" stop-color="#cfcff8"/><stop offset="0.26" stop-color="#e9e9fd"/><stop offset="0.51" stop-color="#c0bff6"/><stop offset="0.62" stop-color="#cfcff8"/><stop offset="0.75" stop-color="#e9e9fd"/><stop offset="1" stop-color="#c0bff6"/></linearGradient><radialGradient id="Gradiente_sem_nome_9-2" cx="-265.8" cy="912.63" r="1" gradientTransform="matrix(-280.16, -474.56, -474.35, 280.04, 359468.19, -381481.88)" xlink:href="#Gradiente_sem_nome_9"/><radialGradient id="Gradiente_sem_nome_18" cx="-253.64" cy="908.85" r="1" gradientTransform="matrix(-21.78, 0, 0, 21.8, -5069.57, -19510.12)" gradientUnits="userSpaceOnUse"><stop offset="0" stop-color="#e0ff3d"/><stop offset="0.06" stop-color="#c1da3f"/><stop offset="0.16" stop-color="#98a942"/><stop offset="0.26" stop-color="#737d44"/><stop offset="0.36" stop-color="#545747"/><stop offset="0.47" stop-color="#3b3948"/><stop offset="0.58" stop-color="#27224a"/><stop offset="0.7" stop-color="#19114b"/><stop offset="0.83" stop-color="#11084b"/><stop offset="1" stop-color="#0f054c"/></radialGradient><mask id="mask" x="946.16" y="168.81" width="128.91" height="203.62" maskUnits="userSpaceOnUse"><g id="mask0_138_841" data-name="mask0 138 841"><path class="cls-1" d="M1075.07,328l-25.88,14.92-103-59.55V168.81l128.91,74.49Z"/></g></mask></defs><g id="Camada_2" data-name="Camada 2"><g id="Assets-Group"><path class="cls-2" d="M693,742c382.73,0,693-45.86,693-102.42S1075.72,537.16,693,537.16,0,583,0,639.58,310.26,742,693,742Z"/><g class="cls-3"><path class="cls-4" d="M746.46,471.62l3.18-.42a6.48,6.48,0,0,1,1.1-.71L995.51,329c6.34-3.65,17.38-3.21,24.68,1L1163,412.58a15.05,15.05,0,0,1,4.35,3.66l1.67-.5v4.95c0,2.31-1.41,4.5-4.26,6.15L920,568.29c-6.33,3.65-17.37,3.2-24.67-1l-142.8-82.54c-4.07-2.35-6.12-5.39-6-8.24v-4.88Z"/><path class="cls-5" d="M920,563.34l244.77-141.45c6.33-3.65,5.53-10-1.77-14.25l-142.8-82.54c-7.29-4.21-18.34-4.69-24.67-1L750.72,465.54c-6.33,3.65-5.53,10,1.76,14.26l142.8,82.53C902.58,566.54,913.63,567,920,563.34Z"/><path class="cls-1" d="M1084.82,437.37l30.23-17.46c2.8-1.62,2.45-4.45-.78-6.34s-8.17-2.07-11-.45l-30.23,17.47c-2.8,1.62-2.45,4.45.78,6.34S1082,439,1084.82,437.37Z"/><path class="cls-1" d="M1029.06,469.59l30.24-17.46c2.8-1.63,2.44-4.46-.78-6.34s-8.17-2.08-11-.45l-30.23,17.46c-2.81,1.63-2.45,4.46.77,6.34S1026.26,471.22,1029.06,469.59Z"/><path class="cls-1" d="M973.29,501.83l30.23-17.46c2.8-1.63,2.45-4.46-.78-6.34s-8.17-2.08-11-.45L961.54,495c-2.8,1.63-2.45,4.46.78,6.34S970.48,503.46,973.29,501.83Z"/><path class="cls-1" d="M917.51,534.05l30.23-17.47c2.8-1.62,2.45-4.45-.78-6.34s-8.17-2.07-11-.44l-30.23,17.46c-2.8,1.63-2.45,4.45.78,6.34S914.71,535.67,917.51,534.05Z"/></g><path class="cls-6" d="M925.73,541.47l207.42-119.88c5.37-3.09,4.69-8.51-1.5-12.09l-121-69.93c-6.19-3.58-15.54-4-20.91-.87L782.29,458.59c-5.37,3.08-4.68,8.5,1.51,12.09l121,69.92C911,544.18,920.36,544.56,925.73,541.47Z"/><path class="cls-4" d="M746.46,371.58l3.18-.43a7.12,7.12,0,0,1,1.1-.7L995.51,229c6.34-3.65,17.38-3.21,24.68,1L1163,312.54a15.05,15.05,0,0,1,4.35,3.66l1.67-.5v4.95c0,2.31-1.41,4.5-4.26,6.15L920,468.25c-6.33,3.65-17.37,3.2-24.67-1L752.51,384.7c-4.07-2.35-6.12-5.39-6-8.24v-4.88Z"/><path class="cls-7" d="M920,463.3l244.77-141.45c6.33-3.65,5.53-10-1.77-14.26l-142.8-82.53c-7.29-4.22-18.34-4.69-24.67-1L750.72,365.5c-6.33,3.65-5.53,10,1.76,14.26l142.8,82.53C902.58,466.5,913.63,467,920,463.3Z"/><path class="cls-8" d="M920,463.3l244.77-141.45c6.33-3.65,5.53-10-1.77-14.26l-142.8-82.53c-7.29-4.22-18.34-4.69-24.67-1L750.72,365.5c-6.33,3.65-5.53,10,1.76,14.26l142.8,82.53C902.58,466.5,913.63,467,920,463.3Z"/><path class="cls-9" d="M880.47,453.71,1148.15,299l-28.42-16.41L852.06,437.3Z"/><path class="cls-1" d="M1164.75,318.81,920,460.26c-6.33,3.65-17.37,3.2-24.67-1l-142.8-82.53c-3.25-1.88-5.2-4.19-5.82-6.5-.87,3.21,1.11,6.84,5.82,9.55l142.8,82.53c7.3,4.21,18.34,4.69,24.67,1l244.77-141.45c3.51-2,4.8-4.88,4-7.75A8,8,0,0,1,1164.75,318.81Z"/><path class="cls-10" d="M884.69,385.51l80.59-46.57L945.6,327.58,865,374.15Z"/><g class="cls-3"><path class="cls-11" d="M441.3,374.15l.26,22.15a.91.91,0,0,0,.51.8L683.83,533.53a3.33,3.33,0,0,0,3.06-.17L726,510.24a1.33,1.33,0,0,0,.71-.87v-.07l-.26-22.39-18.95,11L484.36,372.05a3.36,3.36,0,0,0-3.06.16l-13.4,8-26.65-6Z"/><path class="cls-12" d="M484.15,349.8,725.9,486.23c.8.45.71,1.25-.21,1.77l-39.06,23.12a3.36,3.36,0,0,1-3.06.16L441.81,374.85c-.8-.45-.7-1.25.22-1.76L481.09,350A3.33,3.33,0,0,1,484.15,349.8Z"/></g><g class="cls-13"><path class="cls-14" d="M697,216.27c-2.24-26.18-23.33-56.44-47.09-67.61-11.91-5.59-22.22-5.33-29.29-.35l-7.37,5.2h2.26c-3.67,5.38-5.41,13-4.61,22.37,2.24,26.18,23.33,56.44,47.09,67.61,8.17,3.84,15.58,4.9,21.73,3.61v2.1l7.49-5.28s.07,0,.09-.07l.31-.22c6.82-5,10.5-14.47,9.41-27.36Z"/><path class="cls-15" d="M679.8,249.15c15.23-10.63,12.67-40.65-5.72-67.05s-45.66-39.19-60.89-28.56-12.66,40.65,5.73,67.06S664.57,259.78,679.8,249.15Z"/><path class="cls-16" d="M664.73,247.55a35.6,35.6,0,0,1-14.9-3.73c-21.17-9.92-40-37-42-60.28-1-11.43,2.16-20.29,8.87-25s16.08-4.57,26.47.31c21.16,9.92,40,37,42,60.28,1,11.43-2.16,20.29-8.88,25a19.88,19.88,0,0,1-11.56,3.44Zm-36.44-91.23a18.52,18.52,0,0,0-10.9,3.23c-6.34,4.43-9.3,12.91-8.36,23.89,2,23,20.51,49.57,41.32,59.32,10,4.69,18.95,4.83,25.29.4s9.3-12.91,8.35-23.9c-2-22.92-20.5-49.56-41.32-59.31a34.26,34.26,0,0,0-14.38-3.61Z"/></g><path class="cls-14" d="M639.64,125.54c25.47-6.39,52-32,59.19-57.29,3.62-12.66,1.69-22.81-4.31-29l-6.31-6.46.35,2.24c-5.86-2.76-13.63-3.28-22.79-1-25.47,6.39-52,32-59.19,57.29-2.47,8.67-2.36,16.19-.09,22l-2.08.33,6.41,6.55a.43.43,0,0,0,.07.07l.26.26c6,5.94,15.94,8.06,28.46,4.92Z"/><path class="cls-15" d="M669.73,97.51c23.12-22.38,31.39-51.35,18.49-64.71s-42.12-6-65.23,16.33-31.4,51.34-18.49,64.7S646.61,119.88,669.73,97.51Z"/><path class="cls-16" d="M625.06,115.62c-6.71,0-12.29-2.08-16.17-6.11-5.68-5.86-7.07-15.17-3.91-26.2,6.43-22.51,30.11-45.41,52.79-51.09,11.11-2.79,20.36-1.09,26,4.78s7.07,15.18,3.91,26.21c-6.43,22.5-30.11,45.41-52.79,51.09a40.75,40.75,0,0,1-9.84,1.3ZM667.61,32.1a39.46,39.46,0,0,0-9.56,1.27C635.73,39,612.44,61.51,606.11,83.64c-3,10.6-1.74,19.49,3.62,25s14.23,7.14,24.89,4.48c22.32-5.59,45.61-28.14,51.94-50.27,3-10.61,1.74-19.49-3.63-25C679.26,34.05,674,32.1,667.61,32.1Z"/><path class="cls-17" d="M441,352.56l.26,22.15a.91.91,0,0,0,.52.8L683.52,511.94a3.36,3.36,0,0,0,3.06-.16l39.07-23.12a1.36,1.36,0,0,0,.7-.87v-.08l-.26-22.38-19,11L484.05,350.46a3.34,3.34,0,0,0-3.06.17l-13.39,7.94-26.66-6Z"/><path class="cls-18" d="M441,352.56l.26,22.15a.91.91,0,0,0,.52.8L683.52,511.94a3.36,3.36,0,0,0,3.06-.16l39.07-23.12a1.36,1.36,0,0,0,.7-.87v-.08l-.26-22.38-19,11L484.05,350.46a3.34,3.34,0,0,0-3.06.17l-13.39,7.94-26.66-6Z"/><path class="cls-19" d="M483.84,328.19,725.6,464.62c.8.45.7,1.25-.21,1.77l-39.06,23.12a3.38,3.38,0,0,1-3.07.16L441.51,353.24c-.8-.44-.71-1.25.21-1.76l39.06-23.12A3.33,3.33,0,0,1,483.84,328.19Z"/><path class="cls-1" d="M725.6,464.62l-.69-.38-38.58,22.84a3.38,3.38,0,0,1-3.07.16l-241.07-136-.47.29c-.89.54-1,1.32-.21,1.76L683.26,489.67a3.38,3.38,0,0,0,3.07-.16l39.06-23.12C726.28,465.85,726.37,465.07,725.6,464.62Z"/><path class="cls-20" d="M492.81,361.44l190,105.21A128.51,128.51,0,0,1,689.06,444L499.43,337a127.73,127.73,0,0,0-6.62,24.46Z"/><path class="cls-5" d="M475.6,341.06l228,128.65c.54.31.47.85-.14,1.2l-9.82,5.8a2.38,2.38,0,0,1-2.09.12l-228-128.65c-.54-.31-.47-.85.14-1.21l9.82-5.79A2.32,2.32,0,0,1,475.6,341.06Z"/><path class="cls-21" d="M463.57,348.18l4.64,2.61,5.3-3.13a2.32,2.32,0,0,1,2.09-.12l223.32,126,4.52-2.66c.61-.35.69-.89.14-1.2l-228-128.65a2.28,2.28,0,0,0-2.1.12L463.71,347C463.1,347.33,463,347.87,463.57,348.18Z"/><path class="cls-22" d="M1046.09,112.18,856.43,5.16c.36,33.87-23,75.27-52.1,92.52L545.25,251C511,271.21,483.58,319.89,484,359.7l189.65,107c-.4-39.81,27-88.5,61.24-108.74L994,204.7C1023.11,187.47,1046.44,146,1046.09,112.18Z"/><path class="cls-23" d="M1046.09,112.18,856.43,5.16c.36,33.87-23,75.27-52.1,92.52L545.25,251C511,271.21,483.58,319.89,484,359.7l189.65,107c-.4-39.81,27-88.5,61.24-108.74L994,204.7C1023.11,187.47,1046.44,146,1046.09,112.18Z"/><path class="cls-24" d="M484,359.7l189.65,107c0-1.75.05-3.52.12-5.31l-189.63-107q-.15,2.66-.12,5.28Z"/><g class="cls-25"><path class="cls-1" d="M796.4,247.33l37.36,21.07-3.55,2.12-37.37-21.09Z"/><path class="cls-1" d="M777.23,236.52l13.47,7.58-3.58,2.1-13.44-7.59Z"/><path class="cls-1" d="M762.4,228.13l9.13,5.16L768,235.41l-9.16-5.16Z"/><path class="cls-1" d="M821.54,252.12l20.37,11.48-3.56,2.12L818,254.22Z"/><path class="cls-1" d="M790.89,234.8l25,14.09-3.57,2.1-24.94-14.07Z"/><path class="cls-1" d="M776,226.43l9.16,5.16-3.58,2.1-9.14-5.16Z"/><path class="cls-1" d="M761.9,218.44,771,223.6l-3.56,2.12-9.13-5.16Z"/><path class="cls-1" d="M835.32,250.47l14.73,8.32-3.57,2.09-14.72-8.31Z"/><path class="cls-1" d="M824.58,244.41l5,2.83L826,249.36l-5-2.85Z"/><path class="cls-1" d="M809.72,236l9.14,5.16-3.56,2.12-9.13-5.16Z"/><path class="cls-1" d="M803.81,223.27,858.2,254l-3.58,2.12-54.36-30.69Z"/><path class="cls-1" d="M784.65,212.48l13.46,7.59-3.57,2.09-13.45-7.58Z"/><path class="cls-1" d="M851.61,240.83l14.71,8.32-3.55,2.1L848,243Z"/><path class="cls-1" d="M817,221.32l28.87,16.31-3.56,2.09-28.86-16.28Z"/><path class="cls-1" d="M802.16,213l9.16,5.16-3.58,2.1-9.13-5.16Z"/><path class="cls-1" d="M844.33,227.32l30.14,17-3.56,2.1-30.13-17Z"/><path class="cls-1" d="M816.83,211.79l21.78,12.31-3.55,2.12-21.81-12.3Z"/><path class="cls-1" d="M796.37,200.27l14.74,8.32-3.55,2.1-14.74-8.32Z"/><path class="cls-1" d="M872.42,233.78l10.2,5.73L879,241.63l-10.17-5.75Z"/><path class="cls-1" d="M853.28,223l13.44,7.58-3.55,2.1-13.47-7.59Z"/><path class="cls-1" d="M825.87,207.51l21.69,12.23L844,221.83,822.32,209.6Z"/><path class="cls-1" d="M859.57,217.1l31.19,17.6-3.58,2.1L856,219.22Z"/><path class="cls-1" d="M824.65,197.4l29.22,16.49-3.58,2.1-29.22-16.5Z"/><path class="cls-1" d="M809.79,189l9.14,5.16-3.56,2.12-9.13-5.16Z"/><path class="cls-1" d="M795.55,181l9.13,5.16-3.58,2.1L792,183.07Z"/><path class="cls-1" d="M880.22,219.34l18.67,10.55-3.56,2.1-18.69-10.53Z"/><path class="cls-1" d="M720.61,204.56l-25.9-14.63-3.58,2.12,25.92,14.61Z"/><path class="cls-1" d="M723.2,196.62l-20.37-11.5-3.55,2.09,20.36,11.5Z"/><path class="cls-1" d="M725.72,188.6,711,180.31l-3.56,2.1,14.72,8.32Z"/><path class="cls-1" d="M740.55,187.57l-21.43-12.09-3.58,2.12L737,189.69Z"/><path class="cls-1" d="M742,179l-14.71-8.32-3.58,2.1,14.74,8.32Z"/><path class="cls-1" d="M754.09,176.4l-18.7-10.54-3.55,2.1,18.69,10.53Z"/><path class="cls-1" d="M753.71,166.78,743.54,161,740,163.15l10.18,5.73Z"/><path class="cls-1" d="M771.41,167.35l-19.73-11.12-3.57,2.09,19.73,11.15Z"/><path class="cls-1" d="M778.5,162l-18.67-10.56-3.58,2.12L775,164.05Z"/><path class="cls-1" d="M866.56,211.63l7.93,4.48-3.55,2.12L863,213.75Z"/><path class="cls-1" d="M843,198.31l17.87,10.12-3.56,2.09-17.89-10.09Z"/><path class="cls-1" d="M864.93,161.67l30.19,17-3.58,2.09-30.18-17Z"/><path class="cls-1" d="M844.26,150l11.89,6.72-3.58,2.1-11.89-6.7Z"/></g><g class="cls-25"><path class="cls-1" d="M717.88,293.78l37.36,21.1L751.66,317,714.3,295.9Z"/><path class="cls-1" d="M698.71,283l13.44,7.61-3.55,2.1-13.47-7.59Z"/><path class="cls-1" d="M683.85,274.6l9.14,5.16-3.56,2.1-9.13-5.16Z"/><path class="cls-1" d="M743,298.57l20.37,11.5-3.58,2.1-20.37-11.48Z"/><path class="cls-1" d="M712.36,281.27l24.94,14.07-3.56,2.12-25-14.09Z"/><path class="cls-1" d="M697.51,272.88l9.13,5.16-3.55,2.12L693.93,275Z"/><path class="cls-1" d="M683.38,264.91l9.14,5.17-3.58,2.09L679.8,267Z"/><path class="cls-1" d="M756.79,296.94l14.72,8.3L768,307.36,753.22,299Z"/><path class="cls-1" d="M746,290.86l5,2.85-3.55,2.1-5-2.83Z"/><path class="cls-1" d="M731.2,282.49l9.14,5.17-3.58,2.09-9.14-5.16Z"/><path class="cls-1" d="M725.29,269.74l54.37,30.69-3.56,2.1-54.39-30.69Z"/><path class="cls-1" d="M706.13,258.93l13.44,7.59L716,268.64l-13.47-7.59Z"/><path class="cls-1" d="M642.06,251l-25.9-14.61-3.55,2.1,25.9,14.63Z"/><path class="cls-1" d="M644.67,243.07l-20.36-11.48-3.58,2.1,20.37,11.5Z"/><path class="cls-1" d="M647.17,235.08l-14.71-8.32-3.58,2.12,14.73,8.3Z"/><path class="cls-1" d="M662,234,640.58,222l-3.56,2.1,21.43,12.09Z"/></g><path class="cls-26" d="M1121.24,273.59a28.77,28.77,0,1,0-34.58-21.4A28.78,28.78,0,0,0,1121.24,273.59Z"/><path class="cls-4" d="M1110.43,245.54a4.2,4.2,0,1,0,4.2-4.19A4.21,4.21,0,0,0,1110.43,245.54Z"/><path class="cls-26" d="M1152.86,240.15a22.44,22.44,0,1,0-22.41-22.44A22.43,22.43,0,0,0,1152.86,240.15Z"/><path class="cls-4" d="M1149.59,217.71a3.27,3.27,0,1,0,3.27-3.28A3.27,3.27,0,0,0,1149.59,217.71Z"/><path class="cls-26" d="M1085.9,206.66a14.73,14.73,0,1,0-14.71-14.73A14.73,14.73,0,0,0,1085.9,206.66Z"/><path class="cls-4" d="M1085.9,194.07a2.15,2.15,0,1,0-2.14-2.14A2.14,2.14,0,0,0,1085.9,194.07Z"/><path class="cls-26" d="M750.7,557a21.8,21.8,0,1,0-21.78-21.79A21.78,21.78,0,0,0,750.7,557Z"/><path class="cls-4" d="M750.7,538.34a3.19,3.19,0,1,0-3.18-3.18A3.19,3.19,0,0,0,750.7,538.34Z"/><path class="cls-26" d="M665,580.26a30.9,30.9,0,1,0-30.86-30.9A30.88,30.88,0,0,0,665,580.26Z"/><path class="cls-4" d="M665,553.87a4.51,4.51,0,1,0-4.49-4.51A4.5,4.5,0,0,0,665,553.87Z"/><path class="cls-27" d="M454.32,324a21.8,21.8,0,1,0-21.78-21.8A21.79,21.79,0,0,0,454.32,324Z"/><path class="cls-4" d="M454.32,305.33a3.18,3.18,0,1,0-3.18-3.18A3.17,3.17,0,0,0,454.32,305.33Z"/><path class="cls-26" d="M804.05,553.23a12.78,12.78,0,1,0-12.76-12.77A12.76,12.76,0,0,0,804.05,553.23Z"/><path class="cls-4" d="M804.05,542.32a1.87,1.87,0,1,0-1.86-1.86A1.86,1.86,0,0,0,804.05,542.32Z"/><path class="cls-26" d="M919.06,19.14a11,11,0,1,0,11-11A11,11,0,0,0,919.06,19.14Z"/><path class="cls-4" d="M930.08,20.74a1.61,1.61,0,1,0-1.6-1.6A1.6,1.6,0,0,0,930.08,20.74Z"/><path class="cls-26" d="M976.28,47.7a23.85,23.85,0,1,0-23.83-23.85A23.83,23.83,0,0,0,976.28,47.7Z"/><path class="cls-4" d="M976.28,27.31a3.46,3.46,0,1,0-3.46-3.46A3.46,3.46,0,0,0,976.28,27.31Z"/><g class="cls-28"><path class="cls-14" d="M1057,338.37c0-26.28-18.44-58.23-41.18-71.38-11.4-6.58-21.71-7.19-29.15-2.85l-7.79,4.54,2.26.22c-4.1,5-6.5,12.44-6.5,21.89,0,26.28,18.43,58.23,41.18,71.38,7.82,4.53,15.11,6.22,21.33,5.45l-.17,2.09,7.92-4.61a.36.36,0,0,1,.09-.05l.33-.19c7.23-4.41,11.7-13.53,11.7-26.47Z"/><path class="cls-15" d="M1037.09,369.68c16.08-9.29,16.08-39.42,0-67.3S995,259.45,978.86,268.74s-16.08,39.42,0,67.3S1021,379,1037.09,369.68Z"/></g><path class="cls-29" d="M1010.63,381.24c-28.4,0-56.81-6.25-78.43-18.74-21-12.16-32.61-28.32-32.61-45.55s11.59-33.42,32.61-45.56c43.25-25,113.6-25,156.86,0,21,12.16,32.6,28.33,32.6,45.56s-11.58,33.39-32.6,45.55C1067.44,375,1039,381.24,1010.63,381.24Zm0-127.8c-28.25,0-56.51,6.22-78,18.64-20.76,12-32.18,27.93-32.18,44.85s11.44,32.85,32.18,44.84c43,24.87,113,24.87,156,0,20.77-12,32.19-27.92,32.19-44.84s-11.45-32.86-32.21-44.85c-21.52-12.44-49.77-18.64-78-18.64Z"/><path class="cls-30" d="M1010.63,398.49c-36,0-72.1-7.92-99.52-23.78C884.45,359.3,869.76,338.8,869.76,317s14.69-42.35,41.35-57.74c54.88-31.72,144.16-31.72,199,0,26.65,15.42,41.35,35.92,41.35,57.77s-14.7,42.35-41.35,57.73c-27.43,15.87-63.47,23.78-99.52,23.78Zm0-162.26c-35.91,0-71.79,7.9-99.12,23.69-26.4,15.25-41,35.51-41,57s14.53,41.78,41,57c54.64,31.58,143.57,31.58,198.22,0,26.39-15.25,40.94-35.51,40.94-57s-14.53-41.78-40.94-57.06c-27.34-15.79-63.22-23.68-99.12-23.68Z"/><path class="cls-31" d="M1010.63,367.67c-22.39,0-44.76-4.93-61.81-14.78-16.6-9.59-25.71-22.37-25.71-36s9.14-26.38,25.71-36c34.07-19.7,89.52-19.7,123.61,0,16.58,9.59,25.71,22.37,25.71,36s-9.13,26.37-25.71,36C1055.39,362.74,1033,367.67,1010.63,367.67Zm0-100.66c-22.23,0-44.48,4.9-61.41,14.68-16.31,9.43-25.31,21.94-25.31,35.26s9,25.81,25.31,35.25c33.86,19.57,89,19.57,122.79,0,16.32-9.42,25.31-21.93,25.31-35.25s-9-25.81-25.31-35.26c-16.93-9.78-39.16-14.68-61.4-14.68Z"/><g class="cls-32"><path class="cls-14" d="M1057,338.37c0-26.28-18.44-58.23-41.18-71.38-11.4-6.58-21.71-7.19-29.15-2.85l-7.79,4.54,2.26.22c-4.1,5-6.5,12.44-6.5,21.89,0,26.28,18.43,58.23,41.18,71.38,7.82,4.53,15.11,6.22,21.33,5.45l-.17,2.09,7.92-4.61a.36.36,0,0,1,.09-.05l.33-.19c7.23-4.41,11.7-13.53,11.7-26.47Z"/><path class="cls-15" d="M1037.09,369.68c16.08-9.29,16.08-39.42,0-67.3S995,259.45,978.86,268.74s-16.08,39.42,0,67.3S1021,379,1037.09,369.68Z"/><path class="cls-16" d="M1024.52,367.71c-5.18,0-10.92-1.74-16.86-5.16-20.6-11.9-37.36-41-37.36-64.78,0-11.67,4-20.39,11.16-24.54s16.71-3.23,26.79,2.6c20.6,11.9,37.37,41,37.37,64.78,0,11.67-4,20.38-11.16,24.53a19.56,19.56,0,0,1-10,2.57Zm-33.13-95.87a18.45,18.45,0,0,0-9.37,2.41c-6.8,3.93-10.57,12.27-10.57,23.52,0,23.44,16.51,52,36.78,63.77,9.7,5.61,18.81,6.53,25.64,2.59s10.57-12.28,10.57-23.52c0-23.45-16.51-52-36.78-63.77C1001.92,273.52,996.38,271.84,991.39,271.84Z"/></g><path class="cls-14" d="M571.07,384.66c0-26.28-18.43-58.24-41.17-71.39-11.4-6.57-21.71-7.19-29.15-2.85L493,315l2.26.21c-4.09,5-6.5,12.45-6.5,21.9,0,26.27,18.44,58.23,41.19,71.38,7.81,4.52,15.11,6.22,21.33,5.44l-.17,2.1,7.91-4.62a.3.3,0,0,1,.1-.05l.33-.19c7.22-4.4,11.7-13.52,11.7-26.46Z"/><path class="cls-15" d="M551.16,416c16.08-9.3,16.08-39.43,0-67.3S509,305.74,492.93,315s-16.08,39.43,0,67.3S535.08,425.27,551.16,416Z"/><path class="cls-16" d="M538,412.16c-5,0-10.5-1.67-16.22-5-19.83-11.46-35.95-39.43-35.95-62.34,0-11.21,3.81-19.61,10.73-23.61s16.08-3.11,25.81,2.5c19.82,11.45,35.95,39.42,35.95,62.33,0,11.22-3.82,19.61-10.74,23.61A18.84,18.84,0,0,1,538,412.16ZM506.11,320a17.82,17.82,0,0,0-9,2.3c-6.54,3.8-10.15,11.81-10.15,22.61,0,22.53,15.87,50,35.37,61.32,9.32,5.39,18.08,6.29,24.63,2.5s10.14-11.81,10.14-22.61c0-22.53-15.87-50-35.36-61.32C516.22,321.57,510.89,320,506.11,320Z"/><g class="cls-13"><path class="cls-14" d="M571.07,520.71c0-26.28-18.43-58.23-41.17-71.39-11.4-6.57-21.71-7.18-29.15-2.85L493,451l2.26.21c-4.09,5-6.5,12.45-6.5,21.9,0,26.27,18.44,58.23,41.19,71.38,7.81,4.52,15.11,6.22,21.33,5.44l-.17,2.1,7.91-4.62a.34.34,0,0,1,.1,0l.33-.19c7.22-4.41,11.7-13.53,11.7-26.47Z"/><path class="cls-15" d="M551.14,552c16.08-9.3,16.09-39.43,0-67.3S509,441.78,492.92,451.07s-16.09,39.43,0,67.3S535.06,561.31,551.14,552Z"/><path class="cls-16" d="M538,548.23c-5,0-10.5-1.67-16.22-5-19.83-11.45-35.95-39.43-35.95-62.33,0-11.22,3.81-19.61,10.73-23.62s16.08-3.11,25.81,2.5c19.82,11.46,35.95,39.43,35.95,62.34,0,11.21-3.82,19.6-10.74,23.61A18.84,18.84,0,0,1,538,548.23ZM506.11,456a17.83,17.83,0,0,0-9,2.31C490.58,462.14,487,470.16,487,481c0,22.53,15.87,50,35.37,61.32,9.32,5.4,18.08,6.29,24.63,2.5s10.14-11.81,10.14-22.6c0-22.53-15.87-50-35.36-61.32C516.22,457.64,510.89,456,506.11,456Z"/></g></g></g></svg>