<svg xmlns="http://www.w3.org/2000/svg" xmlns:xlink="http://www.w3.org/1999/xlink" viewBox="0 0 863.36 806"><defs><style>.cls-1,.cls-16{fill:#fff;}.cls-2{mask:url(#mask);}.cls-3,.cls-31,.cls-4{fill:none;}.cls-3{stroke:#fff;stroke-miterlimit:10;}.cls-5{fill:#252f64;}.cls-6{clip-path:url(#clip-path);}.cls-7{mask:url(#mask-2);}.cls-8{fill:#7b85af;}.cls-9{opacity:0.15;}.cls-10,.cls-12{fill:#e0ff3d;}.cls-11{fill:#b6cf32;}.cls-12,.cls-33{opacity:0.4;}.cls-12,.cls-16,.cls-27,.cls-29,.cls-31,.cls-33,.cls-34{isolation:isolate;}.cls-13{fill:#42e8e0;}.cls-14{fill:url(#Gradiente_sem_nome_9);}.cls-15{fill:url(#Gradiente_sem_nome_7);}.cls-16,.cls-29,.cls-30{opacity:0.8;}.cls-17{fill:url(#Gradiente_sem_nome_6);}.cls-18{fill:url(#Gradiente_sem_nome_5);}.cls-19,.cls-34{opacity:0.2;}.cls-20{fill:#0e173d;}.cls-21{fill:#35468c;}.cls-22{fill:url(#Gradiente_sem_nome_6-2);}.cls-23{fill:url(#Gradiente_sem_nome_7-2);}.cls-24{fill:#d3d3d3;}.cls-25{fill:#626f1b;}.cls-26{fill:#8c9f26;}.cls-27{opacity:0.7;fill:url(#Gradiente_sem_nome_8);}.cls-28{fill:url(#Gradiente_sem_nome_9-2);}.cls-29{fill:#453c9e;}.cls-31{opacity:0.6;}.cls-32{opacity:0.1;}.cls-33,.cls-34,.cls-35{fill:#131a3a;}.cls-36{mask:url(#mask-3);}</style><mask id="mask" x="5.32" y="0.32" width="2332.36" height="821.68" maskUnits="userSpaceOnUse"><g id="mask1_104_545" data-name="mask1 104 545"><path class="cls-1" d="M1863.91,1.16H602.09V822H1863.91Z"/></g></mask><clipPath id="clip-path" transform="translate(-973.78 -1)"><polygon class="cls-4" points="0 0 2333 0 2333 822 161.51 767.19 0 0"/></clipPath><mask id="mask-2" x="-968.46" y="-0.68" width="2332.36" height="807.5" maskUnits="userSpaceOnUse"><g transform="translate(-973.78 -1)"><g id="mask0_104_545" data-name="mask0 104 545"><g class="cls-2"><path class="cls-3" d="M1762.88,58.83H959.72a28.73,28.73,0,1,0,0,57.46h803.16a28.73,28.73,0,1,0,0-57.46Z"/><path class="cls-3" d="M845.52,58.83H42.36a28.73,28.73,0,1,0,0,57.46H845.52a28.73,28.73,0,1,0,0-57.46Z"/><path class="cls-3" d="M931.75,87.56A28.74,28.74,0,1,0,903,116.29,28.73,28.73,0,0,0,931.75,87.56Z"/><path class="cls-3" d="M1873.18,116.29H1070a28.73,28.73,0,1,0,0,57.46h803.16a28.73,28.73,0,1,0,0-57.46Z"/><path class="cls-3" d="M955.82,116.29H152.66a28.73,28.73,0,1,0,0,57.46H955.82a28.73,28.73,0,1,0,0-57.46Z"/><path class="cls-3" d="M1042,145a28.74,28.74,0,1,0-28.73,28.73A28.73,28.73,0,0,0,1042,145Z"/><path class="cls-3" d="M2266.21,173.75H1463.05a28.73,28.73,0,1,0,0,57.46h803.16a28.73,28.73,0,1,0,0-57.46Z"/><path class="cls-3" d="M1348.86,173.75H545.71a28.73,28.73,0,1,0,0,57.46h803.15a28.73,28.73,0,1,0,0-57.46Z"/><path class="cls-3" d="M1435.09,202.48a28.74,28.74,0,1,0-28.74,28.73A28.73,28.73,0,0,0,1435.09,202.48Z"/><path class="cls-3" d="M1901.15,231.21H1098a28.73,28.73,0,1,0,0,57.46h803.16a28.73,28.73,0,1,0,0-57.46Z"/><path class="cls-3" d="M983.78,231.21H180.63a28.73,28.73,0,1,0,0,57.46H983.78a28.73,28.73,0,1,0,0-57.46Z"/><path class="cls-3" d="M1070,259.94a28.74,28.74,0,1,0-28.74,28.73A28.73,28.73,0,0,0,1070,259.94Z"/><path class="cls-3" d="M2059.6,288.68H1256.44a28.73,28.73,0,1,0,0,57.46H2059.6a28.73,28.73,0,1,0,0-57.46Z"/><path class="cls-3" d="M1142.26,288.68H339.1a28.73,28.73,0,1,0,0,57.46h803.16a28.73,28.73,0,1,0,0-57.46Z"/><path class="cls-3" d="M1228.46,317.41a28.74,28.74,0,1,0-28.74,28.73A28.73,28.73,0,0,0,1228.46,317.41Z"/><path class="cls-3" d="M2260,346H1456.85a28.73,28.73,0,1,0,0,57.45H2260a28.73,28.73,0,1,0,0-57.45Z"/><path class="cls-3" d="M1342.65,346H539.49a28.73,28.73,0,1,0,0,57.45h803.16a28.73,28.73,0,1,0,0-57.45Z"/><path class="cls-3" d="M1428.87,374.71a28.74,28.74,0,1,0-28.74,28.72A28.73,28.73,0,0,0,1428.87,374.71Z"/><path class="cls-3" d="M1906.87,403.89H1103.72a28.73,28.73,0,1,0,0,57.46h803.15a28.73,28.73,0,1,0,0-57.46Z"/><path class="cls-3" d="M989.53,403.89H186.37a28.73,28.73,0,1,0,0,57.46H989.53a28.73,28.73,0,1,0,0-57.46Z"/><path class="cls-3" d="M1075.75,432.62A28.74,28.74,0,1,0,1047,461.35,28.73,28.73,0,0,0,1075.75,432.62Z"/><path class="cls-3" d="M2288.85,461H1485.69a28.73,28.73,0,1,0,0,57.46h803.16a28.73,28.73,0,1,0,0-57.46Z"/><path class="cls-3" d="M1371.51,461H568.35a28.73,28.73,0,1,0,0,57.46h803.16a28.73,28.73,0,1,0,0-57.46Z"/><path class="cls-3" d="M1457.73,489.74A28.74,28.74,0,1,0,1429,518.47,28.73,28.73,0,0,0,1457.73,489.74Z"/><path class="cls-3" d="M2024.41,519.76H1221.25a28.73,28.73,0,1,0,0,57.46h803.16a28.73,28.73,0,1,0,0-57.46Z"/><path class="cls-3" d="M1107.06,519.76H303.9a28.73,28.73,0,1,0,0,57.46h803.16a28.73,28.73,0,1,0,0-57.46Z"/><path class="cls-3" d="M1193.28,548.49a28.74,28.74,0,1,0-28.73,28.73A28.73,28.73,0,0,0,1193.28,548.49Z"/><path class="cls-3" d="M1755.06,578.51H951.91a28.73,28.73,0,1,0,0,57.45h803.15a28.73,28.73,0,1,0,0-57.45Z"/><path class="cls-3" d="M837.72,578.51H34.56a28.73,28.73,0,1,0,0,57.45H837.72a28.73,28.73,0,1,0,0-57.45Z"/><path class="cls-3" d="M923.94,607.23A28.74,28.74,0,1,0,895.2,636,28.73,28.73,0,0,0,923.94,607.23Z"/><path class="cls-3" d="M1885.65,635.62H1082.49a28.73,28.73,0,1,0,0,57.46h803.16a28.73,28.73,0,1,0,0-57.46Z"/><path class="cls-3" d="M968.31,635.62H165.15a28.73,28.73,0,1,0,0,57.46H968.31a28.73,28.73,0,1,0,0-57.46Z"/><path class="cls-3" d="M1054.53,664.35a28.74,28.74,0,1,0-28.74,28.73A28.73,28.73,0,0,0,1054.53,664.35Z"/><path class="cls-3" d="M2288.85,692.74H1485.69a28.73,28.73,0,1,0,0,57.46h803.16a28.73,28.73,0,1,0,0-57.46Z"/><path class="cls-3" d="M1371.51,692.74H568.35a28.73,28.73,0,1,0,0,57.46h803.16a28.73,28.73,0,1,0,0-57.46Z"/><path class="cls-3" d="M1457.73,721.47A28.74,28.74,0,1,0,1429,750.2,28.73,28.73,0,0,0,1457.73,721.47Z"/><path class="cls-3" d="M1913.4,749.85H1110.24a28.73,28.73,0,1,0,0,57.46H1913.4a28.73,28.73,0,1,0,0-57.46Z"/><path class="cls-3" d="M996.06,749.85H192.9a28.73,28.73,0,1,0,0,57.46H996.06a28.73,28.73,0,1,0,0-57.46Z"/><path class="cls-3" d="M1082.28,778.58a28.74,28.74,0,1,0-28.74,28.73A28.73,28.73,0,0,0,1082.28,778.58Z"/><path class="cls-3" d="M2308.44.82H1505.28a28.73,28.73,0,1,0,0,57.45h803.16a28.73,28.73,0,1,0,0-57.45Z"/><path class="cls-3" d="M1391.09.82H587.94a28.73,28.73,0,1,0,0,57.45h803.15a28.73,28.73,0,1,0,0-57.45Z"/><path class="cls-3" d="M1477.32,29.54a28.74,28.74,0,1,0-28.74,28.73A28.73,28.73,0,0,0,1477.32,29.54Z"/></g></g></g></mask><radialGradient id="Gradiente_sem_nome_9" cx="156.9" cy="939.89" r="1" gradientTransform="matrix(661.63, 0, 0, -662.25, -102232.79, 622817.22)" gradientUnits="userSpaceOnUse"><stop offset="0" stop-color="#b6cf32"/><stop offset="0.38" stop-color="#b8d132"/><stop offset="0.62" stop-color="#bfda34"/><stop offset="0.81" stop-color="#cce837"/><stop offset="0.99" stop-color="#defc3c"/><stop offset="1" stop-color="#e0ff3d"/></radialGradient><radialGradient id="Gradiente_sem_nome_7" cx="155.85" cy="939.89" r="1" gradientTransform="matrix(120.88, 0, 0, -120.99, -17298.1, 114189.55)" gradientUnits="userSpaceOnUse"><stop offset="0" stop-color="#252f64"/><stop offset="0.03" stop-color="#232c5e"/><stop offset="0.2" stop-color="#1b234a"/><stop offset="0.4" stop-color="#161c3c"/><stop offset="0.63" stop-color="#121833"/><stop offset="1" stop-color="#121731"/></radialGradient><linearGradient id="Gradiente_sem_nome_6" x1="739.21" y1="490.86" x2="477.39" y2="483.86" gradientTransform="matrix(1, 0, 0, -1, 539.06, 1042.14)" gradientUnits="userSpaceOnUse"><stop offset="0" stop-color="#5761d7"/><stop offset="0.04" stop-color="#5b65d8"/><stop offset="0.09" stop-color="#6a72de"/><stop offset="0.14" stop-color="#8188e8"/><stop offset="0.19" stop-color="#a2a6f5"/><stop offset="0.22" stop-color="#bcbeff"/></linearGradient><linearGradient id="Gradiente_sem_nome_5" x1="660.2" y1="626.09" x2="560.66" y2="468.94" gradientTransform="matrix(1, 0, 0, -1, 539.06, 1042.14)" gradientUnits="userSpaceOnUse"><stop offset="0" stop-color="#c0bff6"/><stop offset="0.29" stop-color="#c4c3f6"/><stop offset="0.64" stop-color="#d2d2f9"/><stop offset="1" stop-color="#e9e9fd"/></linearGradient><linearGradient id="Gradiente_sem_nome_6-2" x1="738.92" y1="512.45" x2="477.1" y2="505.44" xlink:href="#Gradiente_sem_nome_6"/><radialGradient id="Gradiente_sem_nome_7-2" cx="157.51" cy="940.52" r="1" gradientTransform="matrix(-107.48, -182.05, -181.97, 107.43, 189352.01, -71741.96)" xlink:href="#Gradiente_sem_nome_7"/><linearGradient id="Gradiente_sem_nome_8" x1="897.39" y1="931.35" x2="627.35" y2="463.71" gradientTransform="matrix(1, 0, 0, -1, 539.06, 1042.14)" gradientUnits="userSpaceOnUse"><stop offset="0" stop-color="#c0bff6"/><stop offset="0.12" stop-color="#cfcff8"/><stop offset="0.26" stop-color="#e9e9fd"/><stop offset="0.51" stop-color="#c0bff6"/><stop offset="0.62" stop-color="#cfcff8"/><stop offset="0.75" stop-color="#e9e9fd"/><stop offset="1" stop-color="#c0bff6"/></linearGradient><radialGradient id="Gradiente_sem_nome_9-2" cx="157.28" cy="940.13" r="1" gradientTransform="matrix(-280.16, -474.56, -474.35, 280.04, 491586.09, -188303.75)" xlink:href="#Gradiente_sem_nome_9"/><mask id="mask-3" x="513.63" y="270.39" width="128.91" height="203.62" maskUnits="userSpaceOnUse"><g transform="translate(-973.78 -1)"><g id="mask0_138_841" data-name="mask0 138 841"><path class="cls-1" d="M1616.31,430.54l-25.88,14.92-103-59.56V271.39l128.91,74.5Z"/></g></g></mask></defs><g id="Camada_2" data-name="Camada 2"><g id="Camada_2-2" data-name="Camada 2"><rect class="cls-5" x="366.22" width="497.14" height="795"/><g class="cls-6"><g class="cls-7"><rect class="cls-8" x="366.22" width="497" height="806"/></g></g></g><g id="Camada_1-2" data-name="Camada 1"><g class="cls-9"><path class="cls-10" d="M1287.7,574.2l3.18-.42a7.16,7.16,0,0,1,1.1-.71l244.77-141.45c6.34-3.65,17.38-3.2,24.68,1l142.8,82.53a15.19,15.19,0,0,1,4.35,3.65l1.67-.49v4.95c0,2.31-1.41,4.5-4.26,6.15L1461.22,670.87c-6.33,3.66-17.37,3.21-24.67-1l-142.8-82.53c-4.07-2.36-6.12-5.4-6-8.25V574.2Z" transform="translate(-973.78 -1)"/><path class="cls-11" d="M1461.2,665.92,1706,524.48c6.33-3.66,5.53-10-1.77-14.26l-142.8-82.53c-7.29-4.22-18.34-4.69-24.67-1L1292,568.12c-6.33,3.66-5.53,10,1.77,14.26l142.79,82.53C1443.82,669.13,1454.87,669.6,1461.2,665.92Z" transform="translate(-973.78 -1)"/><path class="cls-1" d="M1626.06,540l30.23-17.46c2.8-1.63,2.45-4.46-.78-6.34s-8.17-2.08-11-.45l-30.23,17.46c-2.8,1.63-2.45,4.46.78,6.34S1623.26,541.59,1626.06,540Z" transform="translate(-973.78 -1)"/><path class="cls-1" d="M1570.3,572.18l30.24-17.47c2.8-1.62,2.44-4.45-.78-6.34s-8.17-2.07-11-.44l-30.23,17.46c-2.81,1.62-2.45,4.45.77,6.34S1567.5,573.8,1570.3,572.18Z" transform="translate(-973.78 -1)"/><path class="cls-1" d="M1514.53,604.42,1544.76,587c2.8-1.62,2.45-4.45-.78-6.34s-8.17-2.07-11-.45l-30.23,17.47c-2.8,1.62-2.45,4.45.78,6.34S1511.73,606,1514.53,604.42Z" transform="translate(-973.78 -1)"/><path class="cls-1" d="M1458.75,636.63,1489,619.17c2.8-1.63,2.45-4.46-.77-6.34s-8.17-2.08-11-.45L1447,629.84c-2.8,1.63-2.45,4.46.78,6.34S1456,638.26,1458.75,636.63Z" transform="translate(-973.78 -1)"/></g><path class="cls-12" d="M1467,644.06l207.42-119.89c5.37-3.09,4.69-8.51-1.5-12.09l-121-69.92c-6.19-3.58-15.54-4-20.91-.87L1323.53,561.17c-5.36,3.09-4.68,8.51,1.51,12.09l121,69.92C1452.25,646.77,1461.6,647.14,1467,644.06Z" transform="translate(-973.78 -1)"/><path class="cls-10" d="M1287.7,474.16l3.18-.42a7.16,7.16,0,0,1,1.1-.71l244.77-141.45c6.34-3.65,17.38-3.2,24.68,1l142.8,82.53a15,15,0,0,1,4.35,3.65l1.67-.49v4.94c0,2.31-1.41,4.51-4.26,6.16L1461.22,570.83c-6.33,3.66-17.37,3.21-24.67-1l-142.8-82.53c-4.07-2.36-6.12-5.4-6-8.25v-4.88Z" transform="translate(-973.78 -1)"/><path class="cls-13" d="M1461.2,565.88,1706,424.44c6.33-3.66,5.53-10-1.77-14.26l-142.8-82.53c-7.29-4.22-18.34-4.69-24.67-1L1292,468.08c-6.33,3.65-5.53,10,1.77,14.26l142.79,82.53C1443.82,569.09,1454.87,569.56,1461.2,565.88Z" transform="translate(-973.78 -1)"/><path class="cls-14" d="M1461.2,565.88,1706,424.44c6.33-3.66,5.53-10-1.77-14.26l-142.8-82.53c-7.29-4.22-18.34-4.69-24.67-1L1292,468.08c-6.33,3.65-5.53,10,1.77,14.26l142.79,82.53C1443.82,569.09,1454.87,569.56,1461.2,565.88Z" transform="translate(-973.78 -1)"/><path class="cls-15" d="M1421.72,556.29,1689.39,401.6,1661,385.2,1393.3,539.89Z" transform="translate(-973.78 -1)"/><path class="cls-1" d="M1706,421.4,1461.22,562.84c-6.33,3.66-17.37,3.21-24.67-1l-142.8-82.53c-3.25-1.89-5.2-4.2-5.82-6.51-.87,3.21,1.11,6.84,5.82,9.55l142.8,82.53c7.3,4.22,18.34,4.69,24.67,1L1706,424.44c3.51-2,4.8-4.88,4-7.76A8.06,8.06,0,0,1,1706,421.4Z" transform="translate(-973.78 -1)"/><path class="cls-16" d="M1425.93,488.09l80.59-46.57-19.68-11.36-80.59,46.57Z" transform="translate(-973.78 -1)"/><g class="cls-9"><path class="cls-17" d="M982.54,476.73l.26,22.15a.9.9,0,0,0,.52.8l241.75,136.43a3.36,3.36,0,0,0,3.06-.16l39.06-23.12a1.35,1.35,0,0,0,.71-.87v-.07l-.26-22.39-19,11L1025.6,474.63a3.4,3.4,0,0,0-3.06.17l-13.4,7.94-26.65-6Z" transform="translate(-973.78 -1)"/><path class="cls-18" d="M1025.39,452.39l241.76,136.42c.8.45.7,1.25-.22,1.77l-39.06,23.12a3.4,3.4,0,0,1-3.06.17L983.06,477.44c-.8-.45-.71-1.25.21-1.77l39.06-23.12A3.36,3.36,0,0,1,1025.39,452.39Z" transform="translate(-973.78 -1)"/></g><g class="cls-19"><path class="cls-20" d="M1238.23,318.86c-2.23-26.19-23.33-56.45-47.09-67.62-11.91-5.58-22.22-5.32-29.29-.35l-7.37,5.21h2.26c-3.67,5.37-5.41,13-4.61,22.36,2.24,26.19,23.33,56.45,47.09,67.62,8.17,3.84,15.59,4.9,21.73,3.6v2.1l7.49-5.28s.07-.05.09-.07l.31-.21c6.83-5,10.5-14.47,9.42-27.36Z" transform="translate(-973.78 -1)"/><path class="cls-5" d="M1221.05,351.74c15.23-10.64,12.66-40.66-5.73-67.06s-45.65-39.19-60.88-28.55-12.67,40.65,5.72,67.05S1205.81,362.37,1221.05,351.74Z" transform="translate(-973.78 -1)"/><path class="cls-21" d="M1206,350.13a35.74,35.74,0,0,1-14.91-3.72c-21.16-9.93-40-37-42-60.29-1-11.43,2.16-20.29,8.88-24.95s16.08-4.58,26.46.3c21.17,9.92,40,37,42,60.29,1,11.43-2.16,20.29-8.87,24.95a19.85,19.85,0,0,1-11.56,3.44Zm-36.45-91.23a18.52,18.52,0,0,0-10.9,3.23c-6.34,4.43-9.3,12.92-8.36,23.9,2,23,20.51,49.56,41.32,59.32,10,4.69,19,4.83,25.29.4s9.3-12.92,8.36-23.9c-2-22.93-20.51-49.56-41.33-59.32a34.39,34.39,0,0,0-14.38-3.6Z" transform="translate(-973.78 -1)"/></g><path class="cls-20" d="M1180.88,228.12c25.47-6.38,52-32,59.19-57.29,3.62-12.65,1.69-22.81-4.31-29l-6.31-6.45.35,2.23c-5.86-2.75-13.63-3.27-22.79-1-25.47,6.39-52,32-59.19,57.3-2.47,8.67-2.35,16.19-.09,22l-2.07.33,6.4,6.55.07.07.26.26c6,5.94,15.94,8.06,28.46,4.93Z" transform="translate(-973.78 -1)"/><path class="cls-5" d="M1211,200.09c23.12-22.37,31.39-51.34,18.49-64.7s-42.12-6.06-65.23,16.32-31.39,51.35-18.49,64.71S1187.86,222.47,1211,200.09Z" transform="translate(-973.78 -1)"/><path class="cls-21" d="M1166.3,218.2c-6.71,0-12.29-2.07-16.17-6.1-5.68-5.87-7.06-15.18-3.91-26.21,6.43-22.5,30.11-45.41,52.79-51.09,11.11-2.78,20.36-1.08,26,4.78s7.07,15.18,3.91,26.21c-6.43,22.51-30.11,45.41-52.78,51.09a40.4,40.4,0,0,1-9.85,1.3Zm42.55-83.52a40,40,0,0,0-9.56,1.27c-22.32,5.59-45.61,28.14-51.94,50.27-3,10.61-1.74,19.49,3.63,25.05s14.22,7.15,24.88,4.48c22.32-5.58,45.61-28.14,51.94-50.27,3-10.6,1.74-19.49-3.62-25C1220.5,136.64,1215.23,134.68,1208.85,134.68Z" transform="translate(-973.78 -1)"/><path class="cls-22" d="M982.23,455.14l.26,22.16a.91.91,0,0,0,.52.8l241.75,136.43a3.42,3.42,0,0,0,3.07-.17l39.06-23.12a1.31,1.31,0,0,0,.7-.87v-.07l-.26-22.39-18.95,11L1025.3,453.05a3.38,3.38,0,0,0-3.07.16l-13.39,7.94-26.66-6Z" transform="translate(-973.78 -1)"/><path class="cls-23" d="M982.23,455.14l.26,22.16a.91.91,0,0,0,.52.8l241.75,136.43a3.42,3.42,0,0,0,3.07-.17l39.06-23.12a1.31,1.31,0,0,0,.7-.87v-.07l-.26-22.39-18.95,11L1025.3,453.05a3.38,3.38,0,0,0-3.07.16l-13.39,7.94-26.66-6Z" transform="translate(-973.78 -1)"/><path class="cls-24" d="M1025.08,430.78,1266.84,567.2c.8.45.71,1.25-.21,1.77l-39.06,23.12a3.4,3.4,0,0,1-3.06.17L982.75,455.83c-.8-.45-.71-1.25.21-1.77L1022,430.94A3.36,3.36,0,0,1,1025.08,430.78Z" transform="translate(-973.78 -1)"/><path class="cls-1" d="M1266.84,567.2l-.68-.37-38.59,22.83a3.37,3.37,0,0,1-3.06.17L983.43,453.78l-.47.28c-.89.54-1,1.32-.21,1.77l241.76,136.43a3.4,3.4,0,0,0,3.06-.17L1266.63,569C1267.52,568.43,1267.62,567.65,1266.84,567.2Z" transform="translate(-973.78 -1)"/><path class="cls-25" d="M1034.05,464l190,105.2a128.75,128.75,0,0,1,6.29-22.67l-189.63-107a127.93,127.93,0,0,0-6.62,24.46Z" transform="translate(-973.78 -1)"/><path class="cls-11" d="M1016.84,443.64l228,128.65c.54.31.47.85-.14,1.21l-9.82,5.79a2.32,2.32,0,0,1-2.09.12l-228-128.65c-.54-.31-.47-.85.14-1.2l9.82-5.8A2.38,2.38,0,0,1,1016.84,443.64Z" transform="translate(-973.78 -1)"/><path class="cls-26" d="M1004.81,450.76l4.64,2.62,5.3-3.14a2.38,2.38,0,0,1,2.09-.12l223.32,126,4.52-2.66c.62-.36.69-.9.14-1.21L1016.87,443.64a2.31,2.31,0,0,0-2.1.12l-9.82,5.8C1004.34,449.91,1004.27,450.45,1004.81,450.76Z" transform="translate(-973.78 -1)"/><path class="cls-27" d="M1587.33,214.76l-189.65-107c.35,33.86-23,75.27-52.11,92.52L1086.49,353.55c-34.24,20.24-61.67,68.93-61.24,108.73l189.65,107c-.4-39.8,27-88.49,61.24-108.74l259.08-153.27C1564.35,290.06,1587.68,248.63,1587.33,214.76Z" transform="translate(-973.78 -1)"/><path class="cls-28" d="M1587.33,214.76l-189.65-107c.35,33.86-23,75.27-52.11,92.52L1086.49,353.55c-34.24,20.24-61.67,68.93-61.24,108.73l189.65,107c-.4-39.8,27-88.49,61.24-108.74l259.08-153.27C1564.35,290.06,1587.68,248.63,1587.33,214.76Z" transform="translate(-973.78 -1)"/><path class="cls-29" d="M1025.25,462.28l189.65,107c0-1.74,0-3.51.12-5.3L1025.39,457c-.1,1.77-.14,3.54-.12,5.28Z" transform="translate(-973.78 -1)"/><g class="cls-30"><path class="cls-1" d="M1337.64,349.92,1375,371l-3.55,2.12L1334.08,352Z" transform="translate(-973.78 -1)"/><path class="cls-1" d="M1318.47,339.1l13.47,7.59-3.58,2.1-13.44-7.59Z" transform="translate(-973.78 -1)"/><path class="cls-1" d="M1303.64,330.71l9.13,5.16-3.55,2.12-9.16-5.16Z" transform="translate(-973.78 -1)"/><path class="cls-1" d="M1362.78,354.7l20.37,11.48-3.56,2.12-20.36-11.5Z" transform="translate(-973.78 -1)"/><path class="cls-1" d="M1332.13,337.38l25,14.09-3.58,2.1-24.94-14.07Z" transform="translate(-973.78 -1)"/><path class="cls-1" d="M1317.27,329l9.16,5.17-3.58,2.09-9.13-5.16Z" transform="translate(-973.78 -1)"/><path class="cls-1" d="M1303.14,321l9.14,5.17-3.56,2.12-9.13-5.16Z" transform="translate(-973.78 -1)"/><path class="cls-1" d="M1376.56,353.05l14.74,8.32-3.58,2.1L1373,355.15Z" transform="translate(-973.78 -1)"/><path class="cls-1" d="M1365.82,347l5,2.82-3.58,2.12-5-2.85Z" transform="translate(-973.78 -1)"/><path class="cls-1" d="M1351,338.61l9.14,5.16-3.56,2.12-9.13-5.16Z" transform="translate(-973.78 -1)"/><path class="cls-1" d="M1345.05,325.86l54.39,30.68-3.58,2.12L1341.5,328Z" transform="translate(-973.78 -1)"/><path class="cls-1" d="M1325.89,315.06l13.47,7.59-3.58,2.1-13.45-7.59Z" transform="translate(-973.78 -1)"/><path class="cls-1" d="M1392.85,343.41l14.72,8.32-3.56,2.1-14.74-8.3Z" transform="translate(-973.78 -1)"/><path class="cls-1" d="M1358.26,323.9l28.87,16.31-3.56,2.1L1354.71,326Z" transform="translate(-973.78 -1)"/><path class="cls-1" d="M1343.41,315.53l9.16,5.17-3.58,2.09-9.14-5.16Z" transform="translate(-973.78 -1)"/><path class="cls-1" d="M1385.57,329.91l30.14,17-3.55,2.1L1382,332Z" transform="translate(-973.78 -1)"/><path class="cls-1" d="M1358.07,314.38l21.78,12.3-3.55,2.12-21.8-12.3Z" transform="translate(-973.78 -1)"/><path class="cls-1" d="M1337.61,302.86l14.74,8.31-3.55,2.1L1334.06,305Z" transform="translate(-973.78 -1)"/><path class="cls-1" d="M1413.66,336.37l10.2,5.72-3.58,2.13-10.17-5.75Z" transform="translate(-973.78 -1)"/><path class="cls-1" d="M1394.52,325.55l13.45,7.59-3.56,2.1-13.47-7.59Z" transform="translate(-973.78 -1)"/><path class="cls-1" d="M1367.12,310.09l21.68,12.23-3.56,2.1-21.68-12.23Z" transform="translate(-973.78 -1)"/><path class="cls-1" d="M1400.81,319.68,1432,337.29l-3.57,2.09-31.18-17.58Z" transform="translate(-973.78 -1)"/><path class="cls-1" d="M1365.89,300l29.22,16.5-3.58,2.09-29.22-16.49Z" transform="translate(-973.78 -1)"/><path class="cls-1" d="M1351,291.59l9.14,5.16-3.56,2.12-9.13-5.16Z" transform="translate(-973.78 -1)"/><path class="cls-1" d="M1336.79,283.55l9.14,5.17-3.58,2.09-9.14-5.16Z" transform="translate(-973.78 -1)"/><path class="cls-1" d="M1421.46,321.92l18.67,10.56-3.56,2.1L1417.88,324Z" transform="translate(-973.78 -1)"/><path class="cls-1" d="M1261.85,307.14,1236,292.51l-3.58,2.12,25.92,14.61Z" transform="translate(-973.78 -1)"/><path class="cls-1" d="M1264.44,299.2l-20.37-11.5-3.55,2.1,20.36,11.5Z" transform="translate(-973.78 -1)"/><path class="cls-1" d="M1267,291.19l-14.74-8.3-3.56,2.1,14.72,8.32Z" transform="translate(-973.78 -1)"/><path class="cls-1" d="M1281.79,290.15l-21.43-12.09-3.57,2.12,21.44,12.09Z" transform="translate(-973.78 -1)"/><path class="cls-1" d="M1283.23,281.57l-14.72-8.31-3.58,2.09,14.74,8.32Z" transform="translate(-973.78 -1)"/><path class="cls-1" d="M1295.33,279l-18.7-10.53-3.55,2.1,18.69,10.53Z" transform="translate(-973.78 -1)"/><path class="cls-1" d="M1295,269.37l-10.17-5.75-3.56,2.12,10.18,5.72Z" transform="translate(-973.78 -1)"/><path class="cls-1" d="M1312.66,269.93l-19.73-11.12-3.58,2.1,19.73,11.14Z" transform="translate(-973.78 -1)"/><path class="cls-1" d="M1319.74,264.54,1301.07,254l-3.58,2.12,18.7,10.53Z" transform="translate(-973.78 -1)"/><path class="cls-1" d="M1407.8,314.21l7.94,4.48-3.56,2.12-7.93-4.47Z" transform="translate(-973.78 -1)"/><path class="cls-1" d="M1384.21,300.9,1402.08,311l-3.56,2.1L1380.63,303Z" transform="translate(-973.78 -1)"/><path class="cls-1" d="M1406.18,264.25l30.18,17-3.58,2.1-30.18-17Z" transform="translate(-973.78 -1)"/><path class="cls-1" d="M1385.5,252.59l11.89,6.71-3.57,2.1-11.89-6.69Z" transform="translate(-973.78 -1)"/></g><g class="cls-30"><path class="cls-1" d="M1259.12,396.37l37.36,21.09-3.58,2.12-37.36-21.09Z" transform="translate(-973.78 -1)"/><path class="cls-1" d="M1240,385.55l13.45,7.61-3.56,2.1-13.47-7.59Z" transform="translate(-973.78 -1)"/><path class="cls-1" d="M1225.09,377.19l9.14,5.16-3.56,2.09-9.13-5.16Z" transform="translate(-973.78 -1)"/><path class="cls-1" d="M1284.26,401.15l20.37,11.5-3.58,2.1-20.37-11.48Z" transform="translate(-973.78 -1)"/><path class="cls-1" d="M1253.61,383.85l24.93,14.07L1275,400,1250,386Z" transform="translate(-973.78 -1)"/><path class="cls-1" d="M1238.75,375.46l9.14,5.17-3.56,2.12-9.16-5.16Z" transform="translate(-973.78 -1)"/><path class="cls-1" d="M1224.62,367.5l9.14,5.16-3.58,2.1L1221,369.6Z" transform="translate(-973.78 -1)"/><path class="cls-1" d="M1298,399.53l14.71,8.29-3.55,2.12-14.74-8.32Z" transform="translate(-973.78 -1)"/><path class="cls-1" d="M1287.28,393.45l5,2.85-3.55,2.09-5-2.82Z" transform="translate(-973.78 -1)"/><path class="cls-1" d="M1272.44,385.08l9.14,5.16-3.58,2.1-9.14-5.16Z" transform="translate(-973.78 -1)"/><path class="cls-1" d="M1266.53,372.33,1320.9,403l-3.56,2.1L1263,374.43Z" transform="translate(-973.78 -1)"/><path class="cls-1" d="M1247.37,361.51l13.44,7.59-3.55,2.12-13.47-7.59Z" transform="translate(-973.78 -1)"/><path class="cls-1" d="M1183.3,353.59,1157.4,339l-3.55,2.1,25.9,14.64Z" transform="translate(-973.78 -1)"/><path class="cls-1" d="M1185.92,345.65l-20.37-11.47-3.58,2.09,20.37,11.5Z" transform="translate(-973.78 -1)"/><path class="cls-1" d="M1188.41,337.66l-14.71-8.32-3.58,2.13,14.74,8.29Z" transform="translate(-973.78 -1)"/><path class="cls-1" d="M1203.25,336.63l-21.43-12.09-3.56,2.09,21.43,12.09Z" transform="translate(-973.78 -1)"/></g><path class="cls-31" d="M1662.48,376.17a28.77,28.77,0,1,0-34.58-21.39A28.77,28.77,0,0,0,1662.48,376.17Z" transform="translate(-973.78 -1)"/><path class="cls-10" d="M1651.67,348.13a4.2,4.2,0,1,0,4.2-4.2A4.2,4.2,0,0,0,1651.67,348.13Z" transform="translate(-973.78 -1)"/><path class="cls-31" d="M1694.1,342.73a22.44,22.44,0,1,0-22.41-22.44A22.43,22.43,0,0,0,1694.1,342.73Z" transform="translate(-973.78 -1)"/><path class="cls-10" d="M1690.83,320.29a3.27,3.27,0,1,0,3.27-3.27A3.27,3.27,0,0,0,1690.83,320.29Z" transform="translate(-973.78 -1)"/><path class="cls-31" d="M1627.14,309.24a14.73,14.73,0,1,0-14.71-14.73A14.72,14.72,0,0,0,1627.14,309.24Z" transform="translate(-973.78 -1)"/><path class="cls-10" d="M1627.14,296.66a2.15,2.15,0,1,0-2.14-2.15A2.14,2.14,0,0,0,1627.14,296.66Z" transform="translate(-973.78 -1)"/><path class="cls-31" d="M1291.94,659.54a21.8,21.8,0,1,0-21.78-21.8A21.79,21.79,0,0,0,1291.94,659.54Z" transform="translate(-973.78 -1)"/><path class="cls-10" d="M1291.94,640.92a3.18,3.18,0,1,0-3.18-3.18A3.18,3.18,0,0,0,1291.94,640.92Z" transform="translate(-973.78 -1)"/><path class="cls-31" d="M1206.24,682.85a30.9,30.9,0,1,0-30.87-30.9A30.89,30.89,0,0,0,1206.24,682.85Z" transform="translate(-973.78 -1)"/><path class="cls-10" d="M1206.24,656.45a4.5,4.5,0,1,0-4.5-4.5A4.49,4.49,0,0,0,1206.24,656.45Z" transform="translate(-973.78 -1)"/><path class="cls-31" d="M995.56,426.53a21.8,21.8,0,1,0-21.78-21.8A21.79,21.79,0,0,0,995.56,426.53Z" transform="translate(-973.78 -1)"/><path class="cls-10" d="M995.56,407.92a3.19,3.19,0,1,0-3.18-3.19A3.19,3.19,0,0,0,995.56,407.92Z" transform="translate(-973.78 -1)"/><path class="cls-31" d="M1345.29,655.81A12.77,12.77,0,1,0,1332.53,643,12.76,12.76,0,0,0,1345.29,655.81Z" transform="translate(-973.78 -1)"/><path class="cls-10" d="M1345.29,644.9a1.86,1.86,0,1,0-1.86-1.86A1.86,1.86,0,0,0,1345.29,644.9Z" transform="translate(-973.78 -1)"/><path class="cls-31" d="M1460.3,121.72a11,11,0,1,0,11-11A11,11,0,0,0,1460.3,121.72Z" transform="translate(-973.78 -1)"/><path class="cls-10" d="M1471.32,123.32a1.6,1.6,0,1,0-1.6-1.6A1.59,1.59,0,0,0,1471.32,123.32Z" transform="translate(-973.78 -1)"/><path class="cls-31" d="M1517.52,150.28a23.85,23.85,0,1,0-23.83-23.85A23.83,23.83,0,0,0,1517.52,150.28Z" transform="translate(-973.78 -1)"/><path class="cls-10" d="M1517.52,129.9a3.47,3.47,0,1,0-3.46-3.47A3.46,3.46,0,0,0,1517.52,129.9Z" transform="translate(-973.78 -1)"/><g class="cls-32"><path class="cls-20" d="M1598.23,441c0-26.28-18.44-58.24-41.18-71.39-11.4-6.57-21.71-7.19-29.15-2.85l-7.79,4.55,2.26.21c-4.1,5-6.5,12.44-6.5,21.89,0,26.28,18.44,58.24,41.18,71.39,7.82,4.52,15.11,6.22,21.33,5.44l-.17,2.1,7.92-4.62a.36.36,0,0,1,.09-.05l.33-.19c7.23-4.4,11.7-13.52,11.7-26.46Z" transform="translate(-973.78 -1)"/><path class="cls-5" d="M1578.33,472.27c16.08-9.3,16.08-39.43,0-67.3s-42.15-42.94-58.23-33.65-16.09,39.43,0,67.3S1562.25,481.56,1578.33,472.27Z" transform="translate(-973.78 -1)"/></g><path class="cls-33" d="M1551.87,483.82c-28.39,0-56.81-6.24-78.43-18.73-21-12.16-32.61-28.33-32.61-45.56s11.59-33.41,32.61-45.55c43.25-25,113.6-25,156.86,0,21,12.16,32.6,28.33,32.6,45.55s-11.58,33.4-32.6,45.56C1608.68,477.58,1580.26,483.82,1551.87,483.82Zm0-127.8c-28.25,0-56.51,6.22-78,18.64-20.76,12-32.18,27.93-32.18,44.85s11.44,32.85,32.18,44.85c43,24.86,113,24.86,156,0,20.77-12,32.19-27.93,32.19-44.85s-11.45-32.85-32.21-44.85c-21.52-12.44-49.77-18.64-78-18.64Z" transform="translate(-973.78 -1)"/><path class="cls-34" d="M1551.87,501.07c-36,0-72.09-7.91-99.52-23.77-26.66-15.42-41.35-35.92-41.35-57.74s14.69-42.35,41.35-57.74c54.88-31.72,144.16-31.72,199,0,26.65,15.41,41.35,35.91,41.35,57.76s-14.7,42.35-41.35,57.74c-27.43,15.86-63.47,23.78-99.52,23.78Zm0-162.25c-35.91,0-71.79,7.89-99.12,23.68-26.4,15.25-41,35.52-41,57s14.53,41.79,41,57c54.64,31.57,143.57,31.57,198.22,0,26.39-15.25,40.94-35.52,40.94-57s-14.53-41.78-40.94-57c-27.34-15.79-63.22-23.69-99.12-23.69Z" transform="translate(-973.78 -1)"/><path class="cls-35" d="M1551.87,470.25c-22.39,0-44.76-4.93-61.8-14.78-16.6-9.59-25.72-22.36-25.72-36s9.14-26.37,25.72-36c34.06-19.7,89.51-19.7,123.6,0,16.58,9.59,25.71,22.36,25.71,36s-9.13,26.37-25.71,36C1596.63,465.32,1574.26,470.25,1551.87,470.25Zm0-100.65c-22.23,0-44.48,4.9-61.4,14.68-16.32,9.42-25.31,21.94-25.31,35.25s9,25.81,25.31,35.26c33.85,19.56,89,19.56,122.78,0,16.32-9.43,25.31-21.94,25.31-35.26s-9-25.8-25.31-35.25c-16.93-9.78-39.16-14.68-61.4-14.68Z" transform="translate(-973.78 -1)"/><g class="cls-36"><path class="cls-20" d="M1598.23,441c0-26.28-18.44-58.24-41.18-71.39-11.4-6.57-21.71-7.19-29.15-2.85l-7.79,4.55,2.26.21c-4.1,5-6.5,12.44-6.5,21.89,0,26.28,18.44,58.24,41.18,71.39,7.82,4.52,15.11,6.22,21.33,5.44l-.17,2.1,7.92-4.62a.36.36,0,0,1,.09-.05l.33-.19c7.23-4.4,11.7-13.52,11.7-26.46Z" transform="translate(-973.78 -1)"/><path class="cls-5" d="M1578.33,472.27c16.08-9.3,16.08-39.43,0-67.3s-42.15-42.94-58.23-33.65-16.09,39.43,0,67.3S1562.25,481.56,1578.33,472.27Z" transform="translate(-973.78 -1)"/><path class="cls-21" d="M1565.76,470.3c-5.18,0-10.92-1.75-16.86-5.16-20.6-11.91-37.36-41-37.36-64.79,0-11.67,4-20.38,11.16-24.53s16.72-3.23,26.79,2.59c20.6,11.9,37.37,41,37.37,64.78,0,11.67-4,20.39-11.16,24.54a19.56,19.56,0,0,1-10,2.57Zm-33.13-95.87a18.54,18.54,0,0,0-9.37,2.4c-6.8,3.94-10.57,12.28-10.57,23.52,0,23.45,16.51,52,36.78,63.77,9.7,5.61,18.81,6.53,25.64,2.59s10.57-12.27,10.57-23.52c0-23.44-16.51-52-36.78-63.77C1543.16,376.1,1537.63,374.43,1532.63,374.43Z" transform="translate(-973.78 -1)"/></g><path class="cls-20" d="M1112.32,487.24c0-26.28-18.44-58.23-41.18-71.38-11.4-6.58-21.71-7.19-29.15-2.85l-7.8,4.54,2.27.22c-4.1,5-6.5,12.44-6.5,21.89,0,26.28,18.43,58.23,41.18,71.38,7.81,4.53,15.11,6.22,21.33,5.45l-.17,2.09,7.91-4.61a.3.3,0,0,1,.1-.05l.33-.19c7.23-4.41,11.7-13.53,11.7-26.47Z" transform="translate(-973.78 -1)"/><path class="cls-5" d="M1092.4,518.56c16.08-9.29,16.08-39.42,0-67.3s-42.15-42.94-58.23-33.64-16.08,39.42,0,67.3S1076.32,527.85,1092.4,518.56Z" transform="translate(-973.78 -1)"/><path class="cls-21" d="M1079.21,514.74c-5,0-10.5-1.67-16.22-5-19.82-11.45-36-39.43-36-62.33,0-11.22,3.81-19.61,10.73-23.62s16.08-3.11,25.81,2.5c19.82,11.45,36,39.43,36,62.34,0,11.21-3.81,19.6-10.74,23.61A18.81,18.81,0,0,1,1079.21,514.74Zm-31.85-92.19a17.84,17.84,0,0,0-9,2.31c-6.54,3.79-10.15,11.81-10.15,22.6,0,22.53,15.87,50,35.37,61.32,9.32,5.4,18.08,6.29,24.63,2.5s10.14-11.81,10.14-22.6c0-22.53-15.87-50-35.36-61.32C1057.46,424.15,1052.14,422.55,1047.36,422.55Z" transform="translate(-973.78 -1)"/><g class="cls-19"><path class="cls-20" d="M1112.32,623.29c0-26.27-18.44-58.23-41.18-71.38-11.4-6.58-21.71-7.19-29.15-2.85l-7.8,4.55,2.27.21c-4.1,5-6.5,12.44-6.5,21.89,0,26.28,18.43,58.23,41.18,71.39,7.81,4.52,15.11,6.22,21.33,5.44l-.17,2.1,7.91-4.62a.3.3,0,0,1,.1,0l.33-.19c7.23-4.41,11.7-13.53,11.7-26.46Z" transform="translate(-973.78 -1)"/><path class="cls-5" d="M1092.39,654.6c16.08-9.29,16.08-39.42,0-67.3s-42.15-42.94-58.23-33.64-16.08,39.42,0,67.3S1076.3,663.9,1092.39,654.6Z" transform="translate(-973.78 -1)"/><path class="cls-21" d="M1079.21,650.82c-5,0-10.5-1.67-16.22-5-19.82-11.46-36-39.43-36-62.34,0-11.22,3.81-19.61,10.73-23.61s16.08-3.11,25.81,2.5c19.82,11.45,36,39.42,36,62.33,0,11.22-3.81,19.61-10.74,23.61A18.82,18.82,0,0,1,1079.21,650.82Zm-31.85-92.19a17.74,17.74,0,0,0-9,2.31c-6.54,3.79-10.15,11.8-10.15,22.6,0,22.53,15.87,50,35.37,61.32,9.32,5.39,18.08,6.29,24.63,2.49s10.14-11.8,10.14-22.6c0-22.53-15.87-50-35.36-61.32C1057.46,560.23,1052.14,558.63,1047.36,558.63Z" transform="translate(-973.78 -1)"/></g></g></g></svg>