<svg xmlns="http://www.w3.org/2000/svg" xmlns:xlink="http://www.w3.org/1999/xlink" viewBox="0 0 868.3 806"><defs><style>.cls-1,.cls-16{fill:#fff;}.cls-2{mask:url(#mask);}.cls-3,.cls-4{fill:none;}.cls-3{stroke:#fff;stroke-miterlimit:10;}.cls-5{fill:#252f64;}.cls-6{clip-path:url(#clip-path);}.cls-7{mask:url(#mask-2);}.cls-8{fill:#7b85af;}.cls-9{opacity:0.15;}.cls-10{fill:#e0ff3d;}.cls-11{fill:#b6cf32;}.cls-12{fill:#cff01e;}.cls-12,.cls-41{opacity:0.4;}.cls-12,.cls-16,.cls-27,.cls-29,.cls-31,.cls-32,.cls-33,.cls-34,.cls-35,.cls-36,.cls-37,.cls-38,.cls-39,.cls-41,.cls-42{isolation:isolate;}.cls-13{fill:#42e8e0;}.cls-14{fill:url(#Gradiente_sem_nome_2);}.cls-15{fill:url(#Gradiente_sem_nome_6);}.cls-16,.cls-29,.cls-30{opacity:0.8;}.cls-17{fill:url(#Gradiente_sem_nome_5);}.cls-18{fill:url(#Gradiente_sem_nome_4);}.cls-19,.cls-42{opacity:0.2;}.cls-20{fill:#0e173d;}.cls-21{fill:#35468c;}.cls-22{fill:url(#Gradiente_sem_nome_5-2);}.cls-23{fill:url(#Gradiente_sem_nome_6-2);}.cls-24{fill:#d3d3d3;}.cls-25{fill:#626f1b;}.cls-26{fill:#8c9f26;}.cls-27{opacity:0.7;fill:url(#Gradiente_sem_nome_7);}.cls-28{fill:url(#Gradiente_sem_nome_8);}.cls-29{fill:#453c9e;}.cls-31,.cls-32,.cls-33,.cls-34,.cls-35,.cls-36,.cls-37,.cls-38,.cls-39{opacity:0.6;}.cls-31{fill:url(#Gradiente_sem_nome_134);}.cls-32{fill:url(#Gradiente_sem_nome_121);}.cls-33{fill:url(#Gradiente_sem_nome_94);}.cls-34{fill:url(#Gradiente_sem_nome_77);}.cls-35{fill:url(#Gradiente_sem_nome_71);}.cls-36{fill:url(#Gradiente_sem_nome_78);}.cls-37{fill:url(#Gradiente_sem_nome_130);}.cls-38{fill:url(#Gradiente_sem_nome_92);}.cls-39{fill:url(#Gradiente_sem_nome_90);}.cls-40{opacity:0.1;}.cls-41,.cls-42,.cls-43{fill:#131a3a;}.cls-44{mask:url(#mask-3);}</style><mask id="mask" x="5.32" y="0.32" width="2332.36" height="821.68" maskUnits="userSpaceOnUse"><g id="mask1_104_545" data-name="mask1 104 545"><path class="cls-1" d="M1863.91,1.16H602.09V822H1863.91Z"/></g></mask><clipPath id="clip-path" transform="translate(-968.83 -1)"><polygon class="cls-4" points="0 0 2333 0 2333 822 161.51 767.19 0 0"/></clipPath><mask id="mask-2" x="-963.52" y="-0.68" width="2332.36" height="807.5" maskUnits="userSpaceOnUse"><g transform="translate(-968.83 -1)"><g id="mask0_104_545" data-name="mask0 104 545"><g class="cls-2"><path class="cls-3" d="M1762.88,58.83H959.72a28.73,28.73,0,1,0,0,57.46h803.16a28.73,28.73,0,1,0,0-57.46Z"/><path class="cls-3" d="M845.52,58.83H42.36a28.73,28.73,0,1,0,0,57.46H845.52a28.73,28.73,0,1,0,0-57.46Z"/><path class="cls-3" d="M931.75,87.56A28.74,28.74,0,1,0,903,116.29,28.73,28.73,0,0,0,931.75,87.56Z"/><path class="cls-3" d="M1873.18,116.29H1070a28.73,28.73,0,1,0,0,57.46h803.16a28.73,28.73,0,1,0,0-57.46Z"/><path class="cls-3" d="M955.82,116.29H152.66a28.73,28.73,0,1,0,0,57.46H955.82a28.73,28.73,0,1,0,0-57.46Z"/><path class="cls-3" d="M1042,145a28.74,28.74,0,1,0-28.73,28.73A28.73,28.73,0,0,0,1042,145Z"/><path class="cls-3" d="M2266.21,173.75H1463.05a28.73,28.73,0,1,0,0,57.46h803.16a28.73,28.73,0,1,0,0-57.46Z"/><path class="cls-3" d="M1348.86,173.75H545.71a28.73,28.73,0,1,0,0,57.46h803.15a28.73,28.73,0,1,0,0-57.46Z"/><path class="cls-3" d="M1435.09,202.48a28.74,28.74,0,1,0-28.74,28.73A28.73,28.73,0,0,0,1435.09,202.48Z"/><path class="cls-3" d="M1901.15,231.21H1098a28.73,28.73,0,1,0,0,57.46h803.16a28.73,28.73,0,1,0,0-57.46Z"/><path class="cls-3" d="M983.78,231.21H180.63a28.73,28.73,0,1,0,0,57.46H983.78a28.73,28.73,0,1,0,0-57.46Z"/><path class="cls-3" d="M1070,259.94a28.74,28.74,0,1,0-28.74,28.73A28.73,28.73,0,0,0,1070,259.94Z"/><path class="cls-3" d="M2059.6,288.68H1256.44a28.73,28.73,0,1,0,0,57.46H2059.6a28.73,28.73,0,1,0,0-57.46Z"/><path class="cls-3" d="M1142.26,288.68H339.1a28.73,28.73,0,1,0,0,57.46h803.16a28.73,28.73,0,1,0,0-57.46Z"/><path class="cls-3" d="M1228.46,317.41a28.74,28.74,0,1,0-28.74,28.73A28.73,28.73,0,0,0,1228.46,317.41Z"/><path class="cls-3" d="M2260,346H1456.85a28.73,28.73,0,1,0,0,57.45H2260a28.73,28.73,0,1,0,0-57.45Z"/><path class="cls-3" d="M1342.65,346H539.49a28.73,28.73,0,1,0,0,57.45h803.16a28.73,28.73,0,1,0,0-57.45Z"/><path class="cls-3" d="M1428.87,374.71a28.74,28.74,0,1,0-28.74,28.72A28.73,28.73,0,0,0,1428.87,374.71Z"/><path class="cls-3" d="M1906.87,403.89H1103.72a28.73,28.73,0,1,0,0,57.46h803.15a28.73,28.73,0,1,0,0-57.46Z"/><path class="cls-3" d="M989.53,403.89H186.37a28.73,28.73,0,1,0,0,57.46H989.53a28.73,28.73,0,1,0,0-57.46Z"/><path class="cls-3" d="M1075.75,432.62A28.74,28.74,0,1,0,1047,461.35,28.73,28.73,0,0,0,1075.75,432.62Z"/><path class="cls-3" d="M2288.85,461H1485.69a28.73,28.73,0,1,0,0,57.46h803.16a28.73,28.73,0,1,0,0-57.46Z"/><path class="cls-3" d="M1371.51,461H568.35a28.73,28.73,0,1,0,0,57.46h803.16a28.73,28.73,0,1,0,0-57.46Z"/><path class="cls-3" d="M1457.73,489.74A28.74,28.74,0,1,0,1429,518.47,28.73,28.73,0,0,0,1457.73,489.74Z"/><path class="cls-3" d="M2024.41,519.76H1221.25a28.73,28.73,0,1,0,0,57.46h803.16a28.73,28.73,0,1,0,0-57.46Z"/><path class="cls-3" d="M1107.06,519.76H303.9a28.73,28.73,0,1,0,0,57.46h803.16a28.73,28.73,0,1,0,0-57.46Z"/><path class="cls-3" d="M1193.28,548.49a28.74,28.74,0,1,0-28.73,28.73A28.73,28.73,0,0,0,1193.28,548.49Z"/><path class="cls-3" d="M1755.06,578.51H951.91a28.73,28.73,0,1,0,0,57.45h803.15a28.73,28.73,0,1,0,0-57.45Z"/><path class="cls-3" d="M837.72,578.51H34.56a28.73,28.73,0,1,0,0,57.45H837.72a28.73,28.73,0,1,0,0-57.45Z"/><path class="cls-3" d="M923.94,607.23A28.74,28.74,0,1,0,895.2,636,28.73,28.73,0,0,0,923.94,607.23Z"/><path class="cls-3" d="M1885.65,635.62H1082.49a28.73,28.73,0,1,0,0,57.46h803.16a28.73,28.73,0,1,0,0-57.46Z"/><path class="cls-3" d="M968.31,635.62H165.15a28.73,28.73,0,1,0,0,57.46H968.31a28.73,28.73,0,1,0,0-57.46Z"/><path class="cls-3" d="M1054.53,664.35a28.74,28.74,0,1,0-28.74,28.73A28.73,28.73,0,0,0,1054.53,664.35Z"/><path class="cls-3" d="M2288.85,692.74H1485.69a28.73,28.73,0,1,0,0,57.46h803.16a28.73,28.73,0,1,0,0-57.46Z"/><path class="cls-3" d="M1371.51,692.74H568.35a28.73,28.73,0,1,0,0,57.46h803.16a28.73,28.73,0,1,0,0-57.46Z"/><path class="cls-3" d="M1457.73,721.47A28.74,28.74,0,1,0,1429,750.2,28.73,28.73,0,0,0,1457.73,721.47Z"/><path class="cls-3" d="M1913.4,749.85H1110.24a28.73,28.73,0,1,0,0,57.46H1913.4a28.73,28.73,0,1,0,0-57.46Z"/><path class="cls-3" d="M996.06,749.85H192.9a28.73,28.73,0,1,0,0,57.46H996.06a28.73,28.73,0,1,0,0-57.46Z"/><path class="cls-3" d="M1082.28,778.58a28.74,28.74,0,1,0-28.74,28.73A28.73,28.73,0,0,0,1082.28,778.58Z"/><path class="cls-3" d="M2308.44.82H1505.28a28.73,28.73,0,1,0,0,57.45h803.16a28.73,28.73,0,1,0,0-57.45Z"/><path class="cls-3" d="M1391.09.82H587.94a28.73,28.73,0,1,0,0,57.45h803.15a28.73,28.73,0,1,0,0-57.45Z"/><path class="cls-3" d="M1477.32,29.54a28.74,28.74,0,1,0-28.74,28.73A28.73,28.73,0,0,0,1477.32,29.54Z"/></g></g></g></mask><radialGradient id="Gradiente_sem_nome_2" cx="156.9" cy="939.89" r="1" gradientTransform="matrix(661.63, 0, 0, -662.25, -102232.79, 622817.22)" gradientUnits="userSpaceOnUse"><stop offset="0" stop-color="#e0ff3d"/><stop offset="0.13" stop-color="#b8d132"/><stop offset="0.15" stop-color="#bfda34"/><stop offset="0.26" stop-color="#cce837"/><stop offset="0.41" stop-color="#e0ff3d"/><stop offset="0.76" stop-color="#defc3c"/></radialGradient><radialGradient id="Gradiente_sem_nome_6" cx="155.81" cy="939.89" r="1" gradientTransform="matrix(120.88, 0, 0, -120.99, -17298.1, 114189.55)" gradientUnits="userSpaceOnUse"><stop offset="0" stop-color="#252f64"/><stop offset="0.03" stop-color="#232c5e"/><stop offset="0.2" stop-color="#1b234a"/><stop offset="0.4" stop-color="#161c3c"/><stop offset="0.63" stop-color="#121833"/><stop offset="1" stop-color="#121731"/></radialGradient><linearGradient id="Gradiente_sem_nome_5" x1="734.27" y1="491.03" x2="472.45" y2="484.03" gradientTransform="matrix(1, 0, 0, -1, 539.06, 1042.14)" gradientUnits="userSpaceOnUse"><stop offset="0" stop-color="#5761d7"/><stop offset="0.04" stop-color="#5b65d8"/><stop offset="0.09" stop-color="#6a72de"/><stop offset="0.14" stop-color="#8188e8"/><stop offset="0.19" stop-color="#a2a6f5"/><stop offset="0.22" stop-color="#bcbeff"/></linearGradient><linearGradient id="Gradiente_sem_nome_4" x1="655.25" y1="626.26" x2="555.71" y2="469.12" gradientTransform="matrix(1, 0, 0, -1, 539.06, 1042.14)" gradientUnits="userSpaceOnUse"><stop offset="0" stop-color="#c0bff6"/><stop offset="0.29" stop-color="#c4c3f6"/><stop offset="0.64" stop-color="#d2d2f9"/><stop offset="1" stop-color="#e9e9fd"/></linearGradient><linearGradient id="Gradiente_sem_nome_5-2" x1="733.98" y1="512.62" x2="472.16" y2="505.62" xlink:href="#Gradiente_sem_nome_5"/><radialGradient id="Gradiente_sem_nome_6-2" cx="157.52" cy="940.54" r="1" gradientTransform="matrix(-107.48, -182.05, -181.97, 107.43, 189352.01, -71741.96)" xlink:href="#Gradiente_sem_nome_6"/><linearGradient id="Gradiente_sem_nome_7" x1="892.44" y1="931.53" x2="622.41" y2="463.88" gradientTransform="matrix(1, 0, 0, -1, 539.06, 1042.14)" gradientUnits="userSpaceOnUse"><stop offset="0" stop-color="#c0bff6"/><stop offset="0.12" stop-color="#cfcff8"/><stop offset="0.26" stop-color="#e9e9fd"/><stop offset="0.51" stop-color="#c0bff6"/><stop offset="0.62" stop-color="#cfcff8"/><stop offset="0.75" stop-color="#e9e9fd"/><stop offset="1" stop-color="#c0bff6"/></linearGradient><radialGradient id="Gradiente_sem_nome_8" cx="157.28" cy="940.14" r="1" gradientTransform="matrix(-280.16, -474.56, -474.35, 280.04, 491586.09, -188303.75)" gradientUnits="userSpaceOnUse"><stop offset="0.06" stop-color="#b8d132"/><stop offset="0.2" stop-color="#bfda34"/><stop offset="0.41" stop-color="#cce837"/><stop offset="0.56" stop-color="#e0ff3d"/><stop offset="0.78" stop-color="#e0ff3d"/><stop offset="0.92" stop-color="#defc3c"/></radialGradient><radialGradient id="Gradiente_sem_nome_134" cx="162.7" cy="939.9" r="1" gradientTransform="matrix(-28.75, 0, 0, 28.77, 6328.17, -26697.33)" gradientUnits="userSpaceOnUse"><stop offset="0" stop-color="#dffe3d"/><stop offset="0.03" stop-color="#c4df35" stop-opacity="0.7"/><stop offset="0.48" stop-color="#fff" stop-opacity="0"/><stop offset="0.56" stop-color="#f4f8dc" stop-opacity="0"/></radialGradient><radialGradient id="Gradiente_sem_nome_121" cx="164.27" cy="939.9" r="1" gradientTransform="matrix(-22.41, 0, 0, 22.44, 5371.2, -20767.03)" gradientUnits="userSpaceOnUse"><stop offset="0" stop-color="#dffe3d"/><stop offset="0.05" stop-color="#c6e136" stop-opacity="0.7"/><stop offset="0.53" stop-color="#fff" stop-opacity="0"/><stop offset="0.57" stop-color="#fff" stop-opacity="0"/></radialGradient><radialGradient id="Gradiente_sem_nome_94" cx="168" cy="939.9" r="1" gradientTransform="matrix(-14.72, 0, 0, 14.73, 4094.4, -13549.65)" gradientUnits="userSpaceOnUse"><stop offset="0" stop-color="#dffe3d"/><stop offset="0.05" stop-color="#c0db34" stop-opacity="0.7"/><stop offset="0.73" stop-color="#eff5cc" stop-opacity="0"/><stop offset="0.78" stop-color="#fff" stop-opacity="0"/></radialGradient><radialGradient id="Gradiente_sem_nome_77" cx="164.48" cy="939.9" r="1" gradientTransform="matrix(-21.78, 0, 0, 21.8, 4869.14, -19851.53)" gradientUnits="userSpaceOnUse"><stop offset="0" stop-color="#dffe3d"/><stop offset="0.03" stop-color="#c5e135" stop-opacity="0.7"/><stop offset="0.93" stop-color="#e9f3b1" stop-opacity="0"/><stop offset="0.98" stop-color="#fff" stop-opacity="0"/></radialGradient><radialGradient id="Gradiente_sem_nome_71" cx="162.32" cy="939.89" r="1" gradientTransform="matrix(-30.87, 0, 0, 30.9, 6211.53, -28387.22)" gradientUnits="userSpaceOnUse"><stop offset="0" stop-color="#dffd3c"/><stop offset="0.03" stop-color="#c1dc34" stop-opacity="0.7"/><stop offset="0.75" stop-color="#f7fae7" stop-opacity="0"/><stop offset="1" stop-color="#fff" stop-opacity="0"/></radialGradient><radialGradient id="Gradiente_sem_nome_78" cx="164.48" cy="939.9" r="1" gradientTransform="matrix(-21.78, 0, 0, 21.8, 4572.76, -20084.54)" gradientUnits="userSpaceOnUse"><stop offset="0" stop-color="#e0ff3d"/><stop offset="0.03" stop-color="#c1da3f" stop-opacity="0.7"/><stop offset="0.9" stop-color="#fff" stop-opacity="0"/><stop offset="1" stop-color="#fff" stop-opacity="0"/></radialGradient><radialGradient id="Gradiente_sem_nome_130" cx="169.67" cy="939.9" r="1" gradientTransform="matrix(-12.76, 0, 0, 12.77, 3505.49, -11362.69)" gradientUnits="userSpaceOnUse"><stop offset="0" stop-color="#dffe3d"/><stop offset="0.04" stop-color="#c5e135" stop-opacity="0.7"/><stop offset="0.49" stop-color="#ebf3c0" stop-opacity="0"/><stop offset="0.57" stop-color="#fff" stop-opacity="0"/></radialGradient><radialGradient id="Gradiente_sem_nome_92" cx="171.68" cy="939.9" r="1" gradientTransform="matrix(-11, 0, 0, 11.01, 3354.02, -10222.76)" gradientUnits="userSpaceOnUse"><stop offset="0" stop-color="#defd3c"/><stop offset="0.06" stop-color="#dffd3c" stop-opacity="0.7"/><stop offset="0.73" stop-color="#fbffe5" stop-opacity="0"/><stop offset="0.79" stop-color="#fff" stop-opacity="0"/></radialGradient><radialGradient id="Gradiente_sem_nome_90" cx="163.85" cy="939.9" r="1" gradientTransform="matrix(-23.83, 0, 0, 23.85, 5416.58, -22289.89)" gradientUnits="userSpaceOnUse"><stop offset="0" stop-color="#dffd3f"/><stop offset="0.04" stop-color="#dffd3c" stop-opacity="0.7"/><stop offset="0.55" stop-color="#faffe1" stop-opacity="0"/><stop offset="0.63" stop-color="#fff" stop-opacity="0"/></radialGradient><mask id="mask-3" x="513.63" y="270.22" width="128.91" height="203.62" maskUnits="userSpaceOnUse"><g transform="translate(-968.83 -1)"><g id="mask0_3_2" data-name="mask0 3 2"><path class="cls-1" d="M1611.36,430.36l-25.88,14.92-103-59.55V271.22l128.9,74.49Z"/></g></g></mask></defs><g id="Camada_2" data-name="Camada 2"><g id="Camada_2-2" data-name="Camada 2"><rect class="cls-5" x="371.17" width="497.14" height="795"/><g class="cls-6"><g class="cls-7"><rect class="cls-8" x="371.17" width="497" height="806"/></g></g></g><g id="Camada_1-2" data-name="Camada 1"><g class="cls-9"><path class="cls-10" d="M1282.75,574l3.18-.43a7.22,7.22,0,0,1,1.11-.7l244.77-141.45c6.33-3.65,17.37-3.21,24.67,1L1699.28,515a15.05,15.05,0,0,1,4.35,3.66l1.67-.5v5c0,2.31-1.41,4.5-4.26,6.15L1456.28,670.7c-6.34,3.65-17.38,3.2-24.68-1l-142.8-82.54c-4.07-2.35-6.12-5.39-6-8.24V574Z" transform="translate(-968.83 -1)"/><path class="cls-11" d="M1456.25,665.75,1701,524.3c6.33-3.65,5.53-10-1.77-14.26l-142.8-82.53c-7.29-4.22-18.34-4.69-24.67-1L1287,568c-6.33,3.65-5.53,10,1.77,14.26l142.8,82.53C1438.88,669,1449.92,669.43,1456.25,665.75Z" transform="translate(-968.83 -1)"/><path class="cls-1" d="M1621.11,539.78l30.23-17.46c2.8-1.62,2.45-4.45-.78-6.34s-8.17-2.07-11-.45L1609.36,533c-2.8,1.62-2.45,4.45.78,6.34S1618.31,541.41,1621.11,539.78Z" transform="translate(-968.83 -1)"/><path class="cls-1" d="M1565.35,572l30.24-17.46c2.8-1.63,2.44-4.46-.78-6.34s-8.17-2.08-11-.45l-30.23,17.46c-2.81,1.63-2.45,4.46.77,6.34S1562.55,573.63,1565.35,572Z" transform="translate(-968.83 -1)"/><path class="cls-1" d="M1509.58,604.24l30.23-17.46c2.8-1.63,2.45-4.46-.78-6.34s-8.17-2.08-11-.45l-30.23,17.46c-2.8,1.63-2.45,4.46.78,6.34S1506.78,605.87,1509.58,604.24Z" transform="translate(-968.83 -1)"/><path class="cls-1" d="M1453.8,636.46,1484,619c2.8-1.62,2.44-4.45-.78-6.34s-8.17-2.07-11-.44l-30.24,17.46c-2.8,1.62-2.44,4.45.78,6.34S1451,638.08,1453.8,636.46Z" transform="translate(-968.83 -1)"/></g><path class="cls-12" d="M1462,643.88,1669.44,524c5.37-3.09,4.69-8.51-1.5-12.09l-121-69.93c-6.19-3.58-15.54-4-20.91-.87L1318.59,561c-5.37,3.08-4.69,8.5,1.5,12.09l121,69.92C1447.3,646.59,1456.65,647,1462,643.88Z" transform="translate(-968.83 -1)"/><path class="cls-10" d="M1282.75,474l3.18-.43a7.22,7.22,0,0,1,1.11-.7l244.77-141.45c6.33-3.65,17.37-3.21,24.67,1L1699.28,415a15.05,15.05,0,0,1,4.35,3.66l1.67-.5v4.95c0,2.31-1.41,4.5-4.26,6.15L1456.28,570.66c-6.34,3.65-17.38,3.2-24.68-1l-142.8-82.53c-4.07-2.35-6.12-5.39-6-8.24V474Z" transform="translate(-968.83 -1)"/><path class="cls-13" d="M1456.25,565.71,1701,424.26c6.33-3.65,5.53-10-1.77-14.26l-142.8-82.53c-7.29-4.22-18.34-4.69-24.67-1L1287,467.91c-6.33,3.65-5.53,10,1.77,14.25l142.8,82.54C1438.88,568.91,1449.92,569.39,1456.25,565.71Z" transform="translate(-968.83 -1)"/><path class="cls-14" d="M1456.25,565.71,1701,424.26c6.33-3.65,5.53-10-1.77-14.26l-142.8-82.53c-7.29-4.22-18.34-4.69-24.67-1L1287,467.91c-6.33,3.65-5.53,10,1.77,14.25l142.8,82.54C1438.88,568.91,1449.92,569.39,1456.25,565.71Z" transform="translate(-968.83 -1)"/><path class="cls-15" d="M1416.77,556.12l267.67-154.7L1656,385,1388.35,539.71Z" transform="translate(-968.83 -1)"/><path class="cls-1" d="M1701,421.22,1456.28,562.67c-6.34,3.65-17.38,3.2-24.68-1l-142.8-82.53c-3.25-1.88-5.2-4.19-5.81-6.5-.87,3.2,1.1,6.83,5.81,9.54l142.8,82.54c7.3,4.21,18.34,4.68,24.68,1L1701,424.26c3.51-2,4.8-4.88,4-7.75A8.07,8.07,0,0,1,1701,421.22Z" transform="translate(-968.83 -1)"/><path class="cls-16" d="M1421,487.91l80.6-46.56L1481.89,430l-80.59,46.57Z" transform="translate(-968.83 -1)"/><g class="cls-9"><path class="cls-17" d="M977.59,476.56l.26,22.15a.91.91,0,0,0,.52.8l241.75,136.43a3.36,3.36,0,0,0,3.06-.17l39.06-23.12a1.33,1.33,0,0,0,.71-.87v-.07l-.26-22.39-19,11L1020.65,474.46a3.36,3.36,0,0,0-3.06.16l-13.39,7.95-26.66-6Z" transform="translate(-968.83 -1)"/><path class="cls-18" d="M1020.44,452.21,1262.2,588.64c.8.45.7,1.25-.21,1.77l-39.07,23.12a3.36,3.36,0,0,1-3.06.16L978.11,477.26c-.8-.45-.71-1.25.21-1.76l39.06-23.12A3.34,3.34,0,0,1,1020.44,452.21Z" transform="translate(-968.83 -1)"/></g><g class="cls-19"><path class="cls-20" d="M1233.29,318.68c-2.24-26.18-23.34-56.44-47.09-67.61-11.92-5.59-22.23-5.33-29.29-.35l-7.37,5.2h2.26c-3.68,5.38-5.42,13-4.62,22.37,2.24,26.18,23.33,56.44,47.09,67.61,8.17,3.84,15.59,4.9,21.73,3.61v2.09l7.49-5.27s.07-.05.09-.07l.31-.22c6.83-5,10.5-14.47,9.42-27.36Z" transform="translate(-968.83 -1)"/><path class="cls-5" d="M1216.1,351.56c15.23-10.63,12.66-40.65-5.73-67.05s-45.65-39.19-60.88-28.56-12.67,40.65,5.72,67.06S1200.87,362.19,1216.1,351.56Z" transform="translate(-968.83 -1)"/><path class="cls-21" d="M1201,350a35.61,35.61,0,0,1-14.91-3.73c-21.16-9.92-40-37-42-60.28-1-11.43,2.17-20.29,8.88-25s16.08-4.57,26.46.31c21.17,9.92,40,37,42,60.28,1,11.43-2.16,20.29-8.87,25A19.9,19.9,0,0,1,1201,350Zm-36.45-91.23a18.52,18.52,0,0,0-10.9,3.23c-6.33,4.43-9.3,12.91-8.36,23.89,2,23,20.51,49.56,41.32,59.32,10,4.69,19,4.83,25.29.4s9.3-12.91,8.36-23.9c-2-22.93-20.51-49.56-41.32-59.31a34.34,34.34,0,0,0-14.39-3.61Z" transform="translate(-968.83 -1)"/></g><path class="cls-20" d="M1175.93,228c25.48-6.39,52-32,59.19-57.29,3.63-12.66,1.7-22.81-4.31-29l-6.31-6.46.36,2.24c-5.87-2.76-13.64-3.28-22.8-1-25.47,6.39-52,32-59.19,57.29-2.47,8.67-2.35,16.19-.09,22l-2.07.33,6.4,6.55a.43.43,0,0,1,.07.07l.26.26c6,5.94,15.94,8.06,28.47,4.92Z" transform="translate(-968.83 -1)"/><path class="cls-5" d="M1206,199.92c23.12-22.38,31.4-51.35,18.49-64.71s-42.11-6.05-65.23,16.32-31.39,51.35-18.48,64.71S1182.91,222.29,1206,199.92Z" transform="translate(-968.83 -1)"/><path class="cls-21" d="M1161.36,218c-6.71,0-12.29-2.08-16.18-6.11-5.67-5.86-7.06-15.17-3.91-26.2,6.43-22.51,30.12-45.42,52.79-51.09,11.11-2.79,20.37-1.09,26,4.78s7.06,15.18,3.9,26.21c-6.42,22.5-30.11,45.41-52.78,51.09a40.78,40.78,0,0,1-9.84,1.29Zm42.54-83.52a39.46,39.46,0,0,0-9.56,1.27c-22.32,5.59-45.6,28.14-51.94,50.27-3,10.6-1.74,19.49,3.63,25s14.22,7.14,24.88,4.48c22.33-5.59,45.61-28.14,51.94-50.27,3-10.61,1.75-19.49-3.62-25.05C1215.56,136.46,1210.28,134.51,1203.9,134.51Z" transform="translate(-968.83 -1)"/><path class="cls-22" d="M977.28,455l.26,22.15a.91.91,0,0,0,.52.8l241.76,136.43a3.36,3.36,0,0,0,3.06-.16l39.06-23.12a1.33,1.33,0,0,0,.7-.87v-.08l-.25-22.38-19,11-223.08-125.9a3.33,3.33,0,0,0-3.06.17l-13.4,7.94-26.65-6Z" transform="translate(-968.83 -1)"/><path class="cls-23" d="M977.28,455l.26,22.15a.91.91,0,0,0,.52.8l241.76,136.43a3.36,3.36,0,0,0,3.06-.16l39.06-23.12a1.33,1.33,0,0,0,.7-.87v-.08l-.25-22.38-19,11-223.08-125.9a3.33,3.33,0,0,0-3.06.17l-13.4,7.94-26.65-6Z" transform="translate(-968.83 -1)"/><path class="cls-24" d="M1020.13,430.6,1261.89,567c.8.45.71,1.25-.21,1.77l-39.06,23.12a3.36,3.36,0,0,1-3.06.16L977.8,455.65c-.8-.45-.7-1.25.21-1.77l39.06-23.11A3.34,3.34,0,0,1,1020.13,430.6Z" transform="translate(-968.83 -1)"/><path class="cls-1" d="M1261.89,567l-.68-.38-38.59,22.84a3.36,3.36,0,0,1-3.06.16l-241.08-136-.47.28c-.89.55-1,1.32-.21,1.77l241.76,136.43a3.36,3.36,0,0,0,3.06-.16l39.06-23.12C1262.57,568.25,1262.67,567.48,1261.89,567Z" transform="translate(-968.83 -1)"/><path class="cls-25" d="M1029.11,463.85l190,105.21a129.72,129.72,0,0,1,6.29-22.68l-189.63-107a126.77,126.77,0,0,0-6.61,24.46Z" transform="translate(-968.83 -1)"/><path class="cls-11" d="M1011.89,443.47l228,128.65c.54.31.47.85-.14,1.2l-9.82,5.8a2.38,2.38,0,0,1-2.09.12l-228-128.65c-.54-.31-.47-.85.14-1.21l9.82-5.79A2.32,2.32,0,0,1,1011.89,443.47Z" transform="translate(-968.83 -1)"/><path class="cls-26" d="M999.86,450.59l4.64,2.61,5.3-3.13a2.32,2.32,0,0,1,2.09-.12l223.33,126,4.52-2.66c.61-.35.68-.89.14-1.2l-228-128.65a2.28,2.28,0,0,0-2.1.12l-9.82,5.79C999.39,449.74,999.32,450.28,999.86,450.59Z" transform="translate(-968.83 -1)"/><path class="cls-27" d="M1582.38,214.59l-189.65-107c.35,33.87-23,75.27-52.11,92.52L1081.54,353.37c-34.23,20.25-61.66,68.93-61.24,108.74l189.65,107c-.4-39.81,27-88.5,61.24-108.74l259.09-153.28C1559.4,289.88,1582.73,248.45,1582.38,214.59Z" transform="translate(-968.83 -1)"/><path class="cls-28" d="M1582.38,214.59l-189.65-107c.35,33.87-23,75.27-52.11,92.52L1081.54,353.37c-34.23,20.25-61.66,68.93-61.24,108.74l189.65,107c-.4-39.81,27-88.5,61.24-108.74l259.09-153.28C1559.4,289.88,1582.73,248.45,1582.38,214.59Z" transform="translate(-968.83 -1)"/><path class="cls-29" d="M1020.3,462.11l189.65,107c0-1.75,0-3.52.12-5.31l-189.63-107c-.09,1.76-.14,3.53-.12,5.28Z" transform="translate(-968.83 -1)"/><g class="cls-30"><path class="cls-1" d="M1332.69,349.74l37.37,21.07-3.56,2.12-37.37-21.09Z" transform="translate(-968.83 -1)"/><path class="cls-1" d="M1313.52,338.93l13.47,7.58-3.58,2.1L1310,341Z" transform="translate(-968.83 -1)"/><path class="cls-1" d="M1298.69,330.54l9.14,5.16-3.56,2.12-9.16-5.16Z" transform="translate(-968.83 -1)"/><path class="cls-1" d="M1357.84,354.53,1378.2,366l-3.55,2.13-20.37-11.5Z" transform="translate(-968.83 -1)"/><path class="cls-1" d="M1327.18,337.21l25,14.09-3.58,2.1-24.93-14.07Z" transform="translate(-968.83 -1)"/><path class="cls-1" d="M1312.32,328.84l9.16,5.16-3.58,2.1-9.13-5.16Z" transform="translate(-968.83 -1)"/><path class="cls-1" d="M1298.2,320.85l9.13,5.16-3.55,2.12-9.14-5.16Z" transform="translate(-968.83 -1)"/><path class="cls-1" d="M1371.61,352.88l14.74,8.32-3.58,2.09L1368.05,355Z" transform="translate(-968.83 -1)"/><path class="cls-1" d="M1360.87,346.82l5,2.83-3.58,2.12-5-2.85Z" transform="translate(-968.83 -1)"/><path class="cls-1" d="M1346,338.43l9.13,5.16-3.55,2.12-9.14-5.16Z" transform="translate(-968.83 -1)"/><path class="cls-1" d="M1340.11,325.68l54.38,30.69-3.57,2.12-54.37-30.69Z" transform="translate(-968.83 -1)"/><path class="cls-1" d="M1320.94,314.89l13.47,7.59-3.58,2.09L1317.39,317Z" transform="translate(-968.83 -1)"/><path class="cls-1" d="M1387.9,343.24l14.72,8.32-3.56,2.1-14.74-8.3Z" transform="translate(-968.83 -1)"/><path class="cls-1" d="M1353.31,323.73l28.87,16.3-3.55,2.1-28.87-16.28Z" transform="translate(-968.83 -1)"/><path class="cls-1" d="M1338.46,315.36l9.16,5.16-3.58,2.1-9.14-5.16Z" transform="translate(-968.83 -1)"/><path class="cls-1" d="M1380.63,329.73l30.13,17-3.55,2.1-30.14-17Z" transform="translate(-968.83 -1)"/><path class="cls-1" d="M1353.13,314.2l21.78,12.31-3.56,2.12-21.8-12.3Z" transform="translate(-968.83 -1)"/><path class="cls-1" d="M1332.67,302.68l14.74,8.32-3.56,2.1-14.74-8.32Z" transform="translate(-968.83 -1)"/><path class="cls-1" d="M1408.72,336.19l10.19,5.73-3.58,2.12-10.17-5.75Z" transform="translate(-968.83 -1)"/><path class="cls-1" d="M1389.57,325.38,1403,333l-3.56,2.1L1386,327.47Z" transform="translate(-968.83 -1)"/><path class="cls-1" d="M1362.17,309.92l21.68,12.23-3.55,2.09L1358.61,312Z" transform="translate(-968.83 -1)"/><path class="cls-1" d="M1395.86,319.51l31.2,17.6-3.58,2.1-31.18-17.58Z" transform="translate(-968.83 -1)"/><path class="cls-1" d="M1360.94,299.81l29.22,16.49-3.58,2.1-29.22-16.5Z" transform="translate(-968.83 -1)"/><path class="cls-1" d="M1346.09,291.42l9.13,5.16-3.55,2.12-9.14-5.16Z" transform="translate(-968.83 -1)"/><path class="cls-1" d="M1331.84,283.38l9.14,5.16-3.58,2.1-9.14-5.16Z" transform="translate(-968.83 -1)"/><path class="cls-1" d="M1416.51,321.75l18.67,10.55-3.56,2.1-18.69-10.53Z" transform="translate(-968.83 -1)"/><path class="cls-1" d="M1256.9,307,1231,292.33l-3.58,2.13,25.93,14.61Z" transform="translate(-968.83 -1)"/><path class="cls-1" d="M1259.49,299l-20.37-11.5-3.55,2.09,20.36,11.5Z" transform="translate(-968.83 -1)"/><path class="cls-1" d="M1262,291l-14.74-8.29-3.56,2.1,14.72,8.32Z" transform="translate(-968.83 -1)"/><path class="cls-1" d="M1276.84,290l-21.42-12.09-3.58,2.12,21.45,12.09Z" transform="translate(-968.83 -1)"/><path class="cls-1" d="M1278.28,281.4l-14.72-8.32-3.58,2.1,14.74,8.32Z" transform="translate(-968.83 -1)"/><path class="cls-1" d="M1290.38,278.81l-18.69-10.54-3.56,2.1,18.69,10.53Z" transform="translate(-968.83 -1)"/><path class="cls-1" d="M1290,269.19l-10.17-5.75-3.55,2.12,10.17,5.73Z" transform="translate(-968.83 -1)"/><path class="cls-1" d="M1307.71,269.76,1288,258.63l-3.58,2.1,19.73,11.15Z" transform="translate(-968.83 -1)"/><path class="cls-1" d="M1314.8,264.36l-18.68-10.56-3.57,2.12,18.69,10.54Z" transform="translate(-968.83 -1)"/><path class="cls-1" d="M1402.85,314l7.94,4.48-3.56,2.12-7.93-4.48Z" transform="translate(-968.83 -1)"/><path class="cls-1" d="M1379.26,300.72l17.87,10.11-3.55,2.1-17.9-10.09Z" transform="translate(-968.83 -1)"/><path class="cls-1" d="M1401.23,264.08l30.18,17-3.58,2.09-30.18-17Z" transform="translate(-968.83 -1)"/><path class="cls-1" d="M1380.56,252.41l11.89,6.72-3.58,2.1-11.89-6.7Z" transform="translate(-968.83 -1)"/></g><g class="cls-30"><path class="cls-1" d="M1254.17,396.19l37.36,21.09-3.58,2.13-37.36-21.1Z" transform="translate(-968.83 -1)"/><path class="cls-1" d="M1235,385.38l13.45,7.61-3.56,2.1-13.47-7.59Z" transform="translate(-968.83 -1)"/><path class="cls-1" d="M1220.15,377l9.13,5.16-3.55,2.1-9.14-5.16Z" transform="translate(-968.83 -1)"/><path class="cls-1" d="M1279.31,401l20.37,11.5-3.58,2.09-20.36-11.47Z" transform="translate(-968.83 -1)"/><path class="cls-1" d="M1248.66,383.68l24.93,14.07-3.55,2.12-25-14.09Z" transform="translate(-968.83 -1)"/><path class="cls-1" d="M1233.8,375.29l9.14,5.16-3.56,2.12-9.16-5.16Z" transform="translate(-968.83 -1)"/><path class="cls-1" d="M1219.68,367.32l9.13,5.16-3.58,2.1-9.13-5.16Z" transform="translate(-968.83 -1)"/><path class="cls-1" d="M1293.09,399.35l14.71,8.3-3.55,2.12-14.74-8.32Z" transform="translate(-968.83 -1)"/><path class="cls-1" d="M1282.33,393.27l5,2.85-3.56,2.1-5-2.83Z" transform="translate(-968.83 -1)"/><path class="cls-1" d="M1267.49,384.9l9.14,5.17-3.58,2.09-9.13-5.16Z" transform="translate(-968.83 -1)"/><path class="cls-1" d="M1261.58,372.15,1316,402.84l-3.56,2.1L1258,374.25Z" transform="translate(-968.83 -1)"/><path class="cls-1" d="M1242.42,361.34l13.44,7.59-3.55,2.12-13.47-7.59Z" transform="translate(-968.83 -1)"/><path class="cls-1" d="M1178.35,353.42l-25.89-14.61-3.56,2.1,25.9,14.63Z" transform="translate(-968.83 -1)"/><path class="cls-1" d="M1181,345.48,1160.6,334l-3.58,2.1,20.37,11.5Z" transform="translate(-968.83 -1)"/><path class="cls-1" d="M1183.46,337.49l-14.71-8.32-3.58,2.12,14.74,8.3Z" transform="translate(-968.83 -1)"/><path class="cls-1" d="M1198.3,336.45l-21.43-12.09-3.55,2.1,21.42,12.09Z" transform="translate(-968.83 -1)"/></g><path class="cls-31" d="M1657.53,376A28.77,28.77,0,1,0,1623,354.6,28.78,28.78,0,0,0,1657.53,376Z" transform="translate(-968.83 -1)"/><path class="cls-10" d="M1646.72,348a4.2,4.2,0,1,0,4.2-4.19A4.21,4.21,0,0,0,1646.72,348Z" transform="translate(-968.83 -1)"/><path class="cls-32" d="M1689.15,342.56a22.44,22.44,0,1,0-22.41-22.44A22.43,22.43,0,0,0,1689.15,342.56Z" transform="translate(-968.83 -1)"/><path class="cls-10" d="M1685.88,320.12a3.27,3.27,0,1,0,3.27-3.28A3.27,3.27,0,0,0,1685.88,320.12Z" transform="translate(-968.83 -1)"/><path class="cls-33" d="M1622.19,309.07a14.73,14.73,0,1,0-14.71-14.73A14.73,14.73,0,0,0,1622.19,309.07Z" transform="translate(-968.83 -1)"/><path class="cls-10" d="M1622.19,296.48a2.15,2.15,0,1,0-2.14-2.14A2.14,2.14,0,0,0,1622.19,296.48Z" transform="translate(-968.83 -1)"/><path class="cls-34" d="M1287,659.36a21.8,21.8,0,1,0-21.78-21.8A21.79,21.79,0,0,0,1287,659.36Z" transform="translate(-968.83 -1)"/><path class="cls-10" d="M1287,640.75a3.19,3.19,0,1,0-3.18-3.19A3.18,3.18,0,0,0,1287,640.75Z" transform="translate(-968.83 -1)"/><path class="cls-35" d="M1201.29,682.67a30.9,30.9,0,1,0-30.87-30.9A30.88,30.88,0,0,0,1201.29,682.67Z" transform="translate(-968.83 -1)"/><path class="cls-10" d="M1201.29,656.28a4.51,4.51,0,1,0-4.5-4.51A4.51,4.51,0,0,0,1201.29,656.28Z" transform="translate(-968.83 -1)"/><path class="cls-36" d="M990.61,426.36a21.8,21.8,0,1,0-21.78-21.8A21.79,21.79,0,0,0,990.61,426.36Z" transform="translate(-968.83 -1)"/><path class="cls-10" d="M990.61,407.74a3.18,3.18,0,1,0-3.18-3.18A3.18,3.18,0,0,0,990.61,407.74Z" transform="translate(-968.83 -1)"/><path class="cls-37" d="M1340.34,655.64a12.78,12.78,0,1,0-12.76-12.77A12.76,12.76,0,0,0,1340.34,655.64Z" transform="translate(-968.83 -1)"/><path class="cls-10" d="M1340.34,644.73a1.87,1.87,0,1,0-1.86-1.86A1.86,1.86,0,0,0,1340.34,644.73Z" transform="translate(-968.83 -1)"/><path class="cls-38" d="M1455.36,121.55a11,11,0,1,0,11-11A11,11,0,0,0,1455.36,121.55Z" transform="translate(-968.83 -1)"/><path class="cls-10" d="M1466.38,123.15a1.61,1.61,0,1,0-1.61-1.6A1.6,1.6,0,0,0,1466.38,123.15Z" transform="translate(-968.83 -1)"/><path class="cls-39" d="M1512.57,150.11a23.85,23.85,0,1,0-23.83-23.85A23.83,23.83,0,0,0,1512.57,150.11Z" transform="translate(-968.83 -1)"/><path class="cls-10" d="M1512.57,129.72a3.46,3.46,0,1,0-3.46-3.46A3.46,3.46,0,0,0,1512.57,129.72Z" transform="translate(-968.83 -1)"/><g class="cls-40"><path class="cls-20" d="M1593.28,440.78c0-26.28-18.44-58.23-41.18-71.38-11.4-6.58-21.71-7.19-29.15-2.85l-7.79,4.54,2.26.22c-4.1,5-6.5,12.44-6.5,21.89,0,26.28,18.44,58.23,41.18,71.38,7.82,4.53,15.11,6.22,21.33,5.45l-.17,2.09,7.92-4.61a.36.36,0,0,1,.09-.05l.33-.19c7.23-4.41,11.7-13.53,11.7-26.47Z" transform="translate(-968.83 -1)"/><path class="cls-5" d="M1573.38,472.09c16.08-9.29,16.08-39.42,0-67.3s-42.15-42.94-58.23-33.64-16.08,39.42,0,67.3S1557.3,481.39,1573.38,472.09Z" transform="translate(-968.83 -1)"/></g><path class="cls-41" d="M1546.92,483.65c-28.39,0-56.81-6.25-78.42-18.74-21-12.16-32.61-28.32-32.61-45.55s11.58-33.42,32.61-45.56c43.25-25,113.59-25,156.85,0,21,12.16,32.6,28.33,32.6,45.56s-11.58,33.39-32.6,45.55C1603.73,477.4,1575.31,483.65,1546.92,483.65Zm0-127.8c-28.25,0-56.5,6.22-78,18.64-20.77,12-32.19,27.92-32.19,44.85s11.44,32.85,32.19,44.84c43,24.87,113,24.87,156,0,20.77-12,32.19-27.92,32.19-44.84s-11.45-32.86-32.21-44.85c-21.52-12.45-49.77-18.64-78-18.64Z" transform="translate(-968.83 -1)"/><path class="cls-42" d="M1546.92,500.9c-36,0-72.09-7.92-99.52-23.78-26.65-15.41-41.35-35.92-41.35-57.74s14.7-42.35,41.35-57.74c54.88-31.72,144.16-31.72,199,0,26.65,15.42,41.35,35.92,41.35,57.77s-14.7,42.35-41.35,57.73C1619,493,1583,500.92,1546.92,500.92Zm0-162.26c-35.9,0-71.79,7.9-99.12,23.69-26.39,15.24-40.94,35.51-40.94,57s14.52,41.78,40.94,57c54.65,31.58,143.57,31.58,198.22,0,26.39-15.25,40.94-35.51,40.94-57s-14.53-41.79-40.94-57.06c-27.34-15.79-63.22-23.68-99.12-23.68Z" transform="translate(-968.83 -1)"/><path class="cls-43" d="M1546.92,470.07c-22.39,0-44.76-4.92-61.8-14.77-16.6-9.59-25.71-22.37-25.71-36s9.13-26.38,25.71-36c34.07-19.7,89.51-19.7,123.6,0,16.58,9.59,25.71,22.37,25.71,36s-9.13,26.37-25.71,36C1591.68,465.15,1569.31,470.07,1546.92,470.07Zm0-100.65c-22.22,0-44.47,4.9-61.4,14.68-16.32,9.43-25.31,21.94-25.31,35.26s9,25.8,25.31,35.25c33.85,19.57,89,19.57,122.78,0,16.32-9.42,25.31-21.94,25.31-35.25s-9-25.81-25.31-35.26c-16.93-9.78-39.16-14.68-61.4-14.68Z" transform="translate(-968.83 -1)"/><g class="cls-44"><path class="cls-20" d="M1593.28,440.78c0-26.28-18.44-58.23-41.18-71.38-11.4-6.58-21.71-7.19-29.15-2.85l-7.79,4.54,2.26.22c-4.1,5-6.5,12.44-6.5,21.89,0,26.28,18.44,58.23,41.18,71.38,7.82,4.53,15.11,6.22,21.33,5.45l-.17,2.09,7.92-4.61a.36.36,0,0,1,.09-.05l.33-.19c7.23-4.41,11.7-13.53,11.7-26.47Z" transform="translate(-968.83 -1)"/><path class="cls-5" d="M1573.38,472.09c16.08-9.29,16.08-39.42,0-67.3s-42.15-42.94-58.23-33.64-16.08,39.42,0,67.3S1557.3,481.39,1573.38,472.09Z" transform="translate(-968.83 -1)"/><path class="cls-21" d="M1560.81,470.12c-5.18,0-10.92-1.74-16.86-5.16-20.6-11.9-37.36-41-37.36-64.78,0-11.67,4-20.39,11.16-24.54s16.72-3.23,26.79,2.59c20.6,11.91,37.37,41,37.37,64.79,0,11.67-4,20.38-11.16,24.53a19.56,19.56,0,0,1-10,2.57Zm-33.12-95.87a18.39,18.39,0,0,0-9.37,2.41c-6.81,3.93-10.58,12.27-10.58,23.52,0,23.44,16.51,52,36.78,63.77,9.7,5.61,18.81,6.52,25.64,2.59s10.57-12.28,10.57-23.52c0-23.45-16.51-52-36.78-63.77C1538.21,375.93,1532.68,374.25,1527.69,374.25Z" transform="translate(-968.83 -1)"/></g><path class="cls-20" d="M1107.37,487.07c0-26.28-18.44-58.24-41.18-71.39-11.4-6.57-21.71-7.19-29.15-2.85l-7.79,4.55,2.26.21c-4.1,5-6.5,12.44-6.5,21.89,0,26.28,18.43,58.24,41.18,71.39,7.82,4.52,15.11,6.22,21.33,5.44l-.17,2.1,7.92-4.62a.36.36,0,0,1,.09,0l.33-.19c7.23-4.4,11.7-13.52,11.7-26.46Z" transform="translate(-968.83 -1)"/><path class="cls-5" d="M1087.45,518.39c16.08-9.3,16.08-39.43,0-67.3s-42.15-42.94-58.23-33.65-16.08,39.43,0,67.3S1071.37,527.68,1087.45,518.39Z" transform="translate(-968.83 -1)"/><path class="cls-21" d="M1074.26,514.57c-5,0-10.5-1.67-16.22-5-19.82-11.46-35.95-39.43-35.95-62.34,0-11.22,3.81-19.61,10.74-23.61s16.08-3.11,25.8,2.5c19.83,11.45,35.95,39.42,35.95,62.33,0,11.22-3.81,19.61-10.73,23.61A18.88,18.88,0,0,1,1074.26,514.57Zm-31.85-92.19a17.83,17.83,0,0,0-9,2.3c-6.54,3.8-10.14,11.81-10.14,22.61,0,22.53,15.87,50,35.36,61.32,9.32,5.39,18.08,6.29,24.63,2.49s10.15-11.8,10.15-22.6c0-22.53-15.87-50-35.37-61.32C1052.51,424,1047.19,422.38,1042.41,422.38Z" transform="translate(-968.83 -1)"/><g class="cls-19"><path class="cls-20" d="M1107.37,623.12c0-26.28-18.44-58.24-41.18-71.39-11.4-6.57-21.71-7.18-29.15-2.85l-7.79,4.55,2.26.21c-4.1,5-6.5,12.45-6.5,21.9,0,26.27,18.43,58.23,41.18,71.38,7.82,4.52,15.11,6.22,21.33,5.44l-.17,2.1,7.92-4.62.09,0,.33-.19c7.23-4.41,11.7-13.53,11.7-26.47Z" transform="translate(-968.83 -1)"/><path class="cls-5" d="M1087.44,654.43c16.08-9.3,16.08-39.43,0-67.3s-42.15-42.94-58.23-33.65-16.08,39.43,0,67.3S1071.36,663.72,1087.44,654.43Z" transform="translate(-968.83 -1)"/><path class="cls-21" d="M1074.26,650.64c-5,0-10.5-1.67-16.22-5-19.82-11.45-35.95-39.43-35.95-62.33,0-11.22,3.81-19.61,10.74-23.62s16.08-3.11,25.8,2.5c19.82,11.45,35.95,39.43,35.95,62.34,0,11.21-3.81,19.6-10.73,23.61A18.87,18.87,0,0,1,1074.26,650.64Zm-31.85-92.19a17.84,17.84,0,0,0-9,2.31c-6.54,3.79-10.14,11.81-10.14,22.6,0,22.53,15.87,50,35.36,61.32,9.32,5.4,18.08,6.29,24.63,2.5s10.15-11.81,10.15-22.6c0-22.53-15.87-50-35.37-61.32C1052.51,560.05,1047.19,558.45,1042.41,558.45Z" transform="translate(-968.83 -1)"/></g></g></g></svg>