<svg xmlns="http://www.w3.org/2000/svg" xmlns:xlink="http://www.w3.org/1999/xlink" viewBox="0 0 497.14 806"><defs><style>.cls-1{fill:#fff;}.cls-2{mask:url(#mask);}.cls-3,.cls-4{fill:none;}.cls-3{stroke:#fff;stroke-miterlimit:10;}.cls-5{fill:#252f64;}.cls-6{clip-path:url(#clip-path);}.cls-7{mask:url(#mask-2);}.cls-8{fill:#d9d9d9;}</style><mask id="mask" x="0.32" y="0.32" width="2332.36" height="821.68" maskUnits="userSpaceOnUse"><g id="mask1_104_545" data-name="mask1 104 545"><path class="cls-1" d="M1858.91,1.16H597.09V822H1858.91Z"/></g></mask><clipPath id="clip-path" transform="translate(-1335 -1)"><polygon class="cls-4" points="0 0 2333 0 2333 822 161.51 767.19 0 0"/></clipPath><mask id="mask-2" x="-1334.68" y="-0.68" width="2332.36" height="807.5" maskUnits="userSpaceOnUse"><g transform="translate(-1335 -1)"><g id="mask0_104_545" data-name="mask0 104 545"><g class="cls-2"><path class="cls-3" d="M1757.88,58.83H954.72a28.73,28.73,0,1,0,0,57.46h803.16a28.73,28.73,0,1,0,0-57.46Z"/><path class="cls-3" d="M840.52,58.83H37.36a28.73,28.73,0,1,0,0,57.46H840.52a28.73,28.73,0,1,0,0-57.46Z"/><path class="cls-3" d="M926.75,87.56A28.74,28.74,0,1,0,898,116.29,28.73,28.73,0,0,0,926.75,87.56Z"/><path class="cls-3" d="M1868.18,116.29H1065a28.73,28.73,0,1,0,0,57.46h803.16a28.73,28.73,0,1,0,0-57.46Z"/><path class="cls-3" d="M950.82,116.29H147.66a28.73,28.73,0,1,0,0,57.46H950.82a28.73,28.73,0,1,0,0-57.46Z"/><path class="cls-3" d="M1037,145a28.74,28.74,0,1,0-28.73,28.73A28.73,28.73,0,0,0,1037,145Z"/><path class="cls-3" d="M2261.21,173.75H1458.05a28.73,28.73,0,1,0,0,57.46h803.16a28.73,28.73,0,1,0,0-57.46Z"/><path class="cls-3" d="M1343.86,173.75H540.71a28.73,28.73,0,1,0,0,57.46h803.15a28.73,28.73,0,1,0,0-57.46Z"/><path class="cls-3" d="M1430.09,202.48a28.74,28.74,0,1,0-28.74,28.73A28.73,28.73,0,0,0,1430.09,202.48Z"/><path class="cls-3" d="M1896.15,231.21H1093a28.73,28.73,0,1,0,0,57.46h803.16a28.73,28.73,0,1,0,0-57.46Z"/><path class="cls-3" d="M978.78,231.21H175.63a28.73,28.73,0,1,0,0,57.46H978.78a28.73,28.73,0,1,0,0-57.46Z"/><path class="cls-3" d="M1065,259.94a28.74,28.74,0,1,0-28.74,28.73A28.73,28.73,0,0,0,1065,259.94Z"/><path class="cls-3" d="M2054.6,288.68H1251.44a28.73,28.73,0,1,0,0,57.46H2054.6a28.73,28.73,0,1,0,0-57.46Z"/><path class="cls-3" d="M1137.26,288.68H334.1a28.73,28.73,0,1,0,0,57.46h803.16a28.73,28.73,0,1,0,0-57.46Z"/><path class="cls-3" d="M1223.46,317.41a28.74,28.74,0,1,0-28.74,28.73A28.73,28.73,0,0,0,1223.46,317.41Z"/><path class="cls-3" d="M2255,346H1451.85a28.73,28.73,0,1,0,0,57.45H2255a28.73,28.73,0,1,0,0-57.45Z"/><path class="cls-3" d="M1337.65,346H534.49a28.73,28.73,0,1,0,0,57.45h803.16a28.73,28.73,0,1,0,0-57.45Z"/><path class="cls-3" d="M1423.87,374.71a28.74,28.74,0,1,0-28.74,28.72A28.73,28.73,0,0,0,1423.87,374.71Z"/><path class="cls-3" d="M1901.87,403.89H1098.72a28.73,28.73,0,1,0,0,57.46h803.15a28.73,28.73,0,1,0,0-57.46Z"/><path class="cls-3" d="M984.53,403.89H181.37a28.73,28.73,0,1,0,0,57.46H984.53a28.73,28.73,0,1,0,0-57.46Z"/><path class="cls-3" d="M1070.75,432.62A28.74,28.74,0,1,0,1042,461.35,28.73,28.73,0,0,0,1070.75,432.62Z"/><path class="cls-3" d="M2283.85,461H1480.69a28.73,28.73,0,1,0,0,57.46h803.16a28.73,28.73,0,1,0,0-57.46Z"/><path class="cls-3" d="M1366.51,461H563.35a28.73,28.73,0,1,0,0,57.46h803.16a28.73,28.73,0,1,0,0-57.46Z"/><path class="cls-3" d="M1452.73,489.74A28.74,28.74,0,1,0,1424,518.47,28.73,28.73,0,0,0,1452.73,489.74Z"/><path class="cls-3" d="M2019.41,519.76H1216.25a28.73,28.73,0,1,0,0,57.46h803.16a28.73,28.73,0,1,0,0-57.46Z"/><path class="cls-3" d="M1102.06,519.76H298.9a28.73,28.73,0,1,0,0,57.46h803.16a28.73,28.73,0,1,0,0-57.46Z"/><path class="cls-3" d="M1188.28,548.49a28.74,28.74,0,1,0-28.73,28.73A28.73,28.73,0,0,0,1188.28,548.49Z"/><path class="cls-3" d="M1750.06,578.51H946.91a28.73,28.73,0,1,0,0,57.45h803.15a28.73,28.73,0,1,0,0-57.45Z"/><path class="cls-3" d="M832.72,578.51H29.56a28.73,28.73,0,1,0,0,57.45H832.72a28.73,28.73,0,1,0,0-57.45Z"/><path class="cls-3" d="M918.94,607.23A28.74,28.74,0,1,0,890.2,636,28.73,28.73,0,0,0,918.94,607.23Z"/><path class="cls-3" d="M1880.65,635.62H1077.49a28.73,28.73,0,1,0,0,57.46h803.16a28.73,28.73,0,1,0,0-57.46Z"/><path class="cls-3" d="M963.31,635.62H160.15a28.73,28.73,0,1,0,0,57.46H963.31a28.73,28.73,0,1,0,0-57.46Z"/><path class="cls-3" d="M1049.53,664.35a28.74,28.74,0,1,0-28.74,28.73A28.73,28.73,0,0,0,1049.53,664.35Z"/><path class="cls-3" d="M2283.85,692.74H1480.69a28.73,28.73,0,1,0,0,57.46h803.16a28.73,28.73,0,1,0,0-57.46Z"/><path class="cls-3" d="M1366.51,692.74H563.35a28.73,28.73,0,1,0,0,57.46h803.16a28.73,28.73,0,1,0,0-57.46Z"/><path class="cls-3" d="M1452.73,721.47A28.74,28.74,0,1,0,1424,750.2,28.73,28.73,0,0,0,1452.73,721.47Z"/><path class="cls-3" d="M1908.4,749.85H1105.24a28.73,28.73,0,1,0,0,57.46H1908.4a28.73,28.73,0,1,0,0-57.46Z"/><path class="cls-3" d="M991.06,749.85H187.9a28.73,28.73,0,1,0,0,57.46H991.06a28.73,28.73,0,1,0,0-57.46Z"/><path class="cls-3" d="M1077.28,778.58a28.74,28.74,0,1,0-28.74,28.73A28.73,28.73,0,0,0,1077.28,778.58Z"/><path class="cls-3" d="M2303.44.82H1500.28a28.73,28.73,0,1,0,0,57.45h803.16a28.73,28.73,0,1,0,0-57.45Z"/><path class="cls-3" d="M1386.09.82H582.94a28.73,28.73,0,1,0,0,57.45h803.15a28.73,28.73,0,1,0,0-57.45Z"/><path class="cls-3" d="M1472.32,29.54a28.74,28.74,0,1,0-28.74,28.73A28.73,28.73,0,0,0,1472.32,29.54Z"/></g></g></g></mask></defs><g id="Camada_2" data-name="Camada 2"><g id="Camada_2-2" data-name="Camada 2"><rect class="cls-5" width="497.14" height="795"/></g><g id="Camada_1-2" data-name="Camada 1"><g class="cls-6"><g class="cls-7"><rect class="cls-8" width="497" height="806"/></g></g></g></g></svg>