<svg xmlns="http://www.w3.org/2000/svg" viewBox="0 0 32 32"><defs><style>.cls-1{fill:#252f64;}.cls-2,.cls-3{fill:#fff;}.cls-2{opacity:0.6;isolation:isolate;}.cls-3{fill-rule:evenodd;}</style></defs><g id="Camada_2" data-name="Camada 2"><g id="Camada_1-2" data-name="Camada 1"><rect class="cls-1" width="32" height="32" rx="8"/><path class="cls-2" d="M23,21.87H21.81V9.26H11.73V8H22.41a.61.61,0,0,1,.59.63Z"/><path class="cls-3" d="M10.63,11.47h10a.62.62,0,0,1,.63.6V23a.62.62,0,0,1-.63.61h-10A.62.62,0,0,1,10,23V12.07A.62.62,0,0,1,10.63,11.47Zm1.87,9.1h3.76V19.35H12.5Zm6.26-2.43H12.5V16.93h6.26ZM12.5,15.71h6.26V14.5H12.5Z"/></g></g></svg>