<svg xmlns="http://www.w3.org/2000/svg" viewBox="0 0 32 32"><defs><style>.cls-1{fill:#fff;}.cls-2,.cls-3{fill:#3a416f;}.cls-2{opacity:0.6;isolation:isolate;}</style></defs><g id="Camada_2" data-name="Camada 2"><g id="Camada_2-2" data-name="Camada 2"><rect class="cls-1" width="32" height="32" rx="6"/><path class="cls-1" d="M13,9a1,1,0,0,0,0,2h6a1,1,0,0,0,0-2Z"/><path class="cls-1" d="M10,13a1,1,0,0,1,1-1H21a1,1,0,0,1,0,2H11A1,1,0,0,1,10,13Z"/><path class="cls-1" d="M8,17a2,2,0,0,1,2-2H22a2,2,0,0,1,2,2v4a2,2,0,0,1-2,2H10a2,2,0,0,1-2-2Z"/><path class="cls-2" d="M24.62,7H17.38a.38.38,0,0,0-.38.38v7.24a.38.38,0,0,0,.21.34.33.33,0,0,0,.17,0,.4.4,0,0,0,.23-.08l2.95-2.21h4.06a.38.38,0,0,0,.38-.38V7.38A.38.38,0,0,0,24.62,7Z"/><path class="cls-3" d="M15.8,19.68a11,11,0,0,0-7.6,0A1.79,1.79,0,0,0,7,21.36v1.28a.37.37,0,0,0,.38.36h9.24a.37.37,0,0,0,.38-.36V21.36A1.79,1.79,0,0,0,15.8,19.68Z"/><path class="cls-3" d="M12,18c1.66,0,3-2.13,3-3.89A3.07,3.07,0,0,0,12,11a3.07,3.07,0,0,0-3,3.11C9,15.87,10.34,18,12,18Z"/></g></g></svg>