<svg xmlns="http://www.w3.org/2000/svg" viewBox="0 0 32 32"><defs><style>.cls-1{fill:#252f64;}.cls-2,.cls-3{fill:#fff;}.cls-2{opacity:0.6;isolation:isolate;}.cls-3{fill-rule:evenodd;}</style></defs><g id="Camada_2" data-name="Camada 2"><g id="Camada_1-2" data-name="Camada 1"><rect class="cls-1" width="32" height="32" rx="8"/><path class="cls-2" d="M13,15.6H11.8v-5a.58.58,0,0,1,.6-.56h7.2a.58.58,0,0,1,.6.56v3.36H19v-2.8H13Z"/><path class="cls-3" d="M17.17,14.9h5.25a.57.57,0,0,1,.58.57v8a.57.57,0,0,1-.58.57H9.58A.57.57,0,0,1,9,23.43V17.74a.57.57,0,0,1,.58-.56h5.25a.57.57,0,0,1,.59.56v5.12h1.16V15.47A.57.57,0,0,1,17.17,14.9Zm-5.84,7.39h1.75V21.16H11.33ZM13.08,20H11.33V18.88h1.75Zm5.84,2.27h1.75V21.16H18.92ZM20.67,20H18.92V18.88h1.75Zm-1.75-2.28h1.75V16.61H18.92Z"/></g></g></svg>