<svg width="1402" height="691" viewBox="0 0 1402 691" fill="none" xmlns="http://www.w3.org/2000/svg">
<g opacity="0.2" clip-path="url(#clip0_153_590)">
<path d="M815.79 59.9854H-2.86034C-19.0426 59.9854 -32.1608 73.1006 -32.1608 89.279C-32.1608 105.457 -19.0426 118.573 -2.86034 118.573H815.79C831.972 118.573 845.091 105.457 845.091 89.279C845.091 73.1006 831.972 59.9854 815.79 59.9854Z" stroke="#252F64" stroke-miterlimit="10"/>
<path d="M928.217 118.572H109.566C93.3841 118.572 80.2659 131.687 80.2659 147.866C80.2659 164.044 93.3841 177.16 109.566 177.16H928.217C944.399 177.16 957.517 164.044 957.517 147.866C957.517 131.687 944.399 118.572 928.217 118.572Z" stroke="#252F64" stroke-miterlimit="10"/>
<path d="M-6.83704 118.572H-825.488C-841.67 118.572 -854.788 131.687 -854.788 147.866C-854.788 164.044 -841.67 177.16 -825.488 177.16H-6.83704C9.34515 177.16 22.4636 164.044 22.4636 147.866C22.4636 131.687 9.34515 118.572 -6.83704 118.572Z" stroke="#252F64" stroke-miterlimit="10"/>
<path d="M81.0479 147.866C81.0479 131.687 67.9333 118.572 51.7557 118.572C35.5781 118.572 22.4636 131.687 22.4636 147.866C22.4636 164.044 35.5781 177.16 51.7557 177.16C67.9333 177.16 81.0479 164.044 81.0479 147.866Z" stroke="#252F64" stroke-miterlimit="10"/>
<path d="M1328.82 177.16H510.173C493.991 177.16 480.873 190.275 480.873 206.454C480.873 222.632 493.991 235.747 510.173 235.747H1328.82C1345.01 235.747 1358.12 222.632 1358.12 206.454C1358.12 190.275 1345.01 177.16 1328.82 177.16Z" stroke="#252F64" stroke-miterlimit="10"/>
<path d="M393.786 177.16H-424.864C-441.046 177.16 -454.165 190.275 -454.165 206.454C-454.165 222.632 -441.046 235.747 -424.864 235.747H393.786C409.969 235.747 423.087 222.632 423.087 206.454C423.087 190.275 409.969 177.16 393.786 177.16Z" stroke="#252F64" stroke-miterlimit="10"/>
<path d="M481.671 206.454C481.671 190.275 468.557 177.16 452.379 177.16C436.201 177.16 423.087 190.275 423.087 206.454C423.087 222.632 436.201 235.747 452.379 235.747C468.557 235.747 481.671 222.632 481.671 206.454Z" stroke="#252F64" stroke-miterlimit="10"/>
<path d="M956.719 235.747H138.068C121.886 235.747 108.768 248.862 108.768 265.041C108.768 281.219 121.886 294.334 138.068 294.334H956.719C972.901 294.334 986.019 281.219 986.019 265.041C986.019 248.862 972.901 235.747 956.719 235.747Z" stroke="#252F64" stroke-miterlimit="10"/>
<path d="M21.6649 235.747H-796.986C-813.168 235.747 -826.286 248.862 -826.286 265.041C-826.286 281.219 -813.168 294.334 -796.986 294.334H21.6649C37.847 294.334 50.9654 281.219 50.9654 265.041C50.9654 248.862 37.847 235.747 21.6649 235.747Z" stroke="#252F64" stroke-miterlimit="10"/>
<path d="M109.55 265.041C109.55 248.862 96.4352 235.747 80.2576 235.747C64.08 235.747 50.9653 248.862 50.9653 265.041C50.9653 281.219 64.08 294.334 80.2576 294.334C96.4352 294.334 109.55 281.219 109.55 265.041Z" stroke="#252F64" stroke-miterlimit="10"/>
<path d="M1118.23 294.352H299.579C283.397 294.352 270.278 307.467 270.278 323.645C270.278 339.824 283.397 352.939 299.579 352.939H1118.23C1134.41 352.939 1147.53 339.824 1147.53 323.645C1147.53 307.467 1134.41 294.352 1118.23 294.352Z" stroke="#252F64" stroke-miterlimit="10"/>
<path d="M183.192 294.352H-635.459C-651.641 294.352 -664.759 307.467 -664.759 323.645C-664.759 339.824 -651.641 352.939 -635.459 352.939H183.192C199.374 352.939 212.493 339.824 212.493 323.645C212.493 307.467 199.374 294.352 183.192 294.352Z" stroke="#252F64" stroke-miterlimit="10"/>
<path d="M271.06 323.645C271.06 307.467 257.946 294.352 241.768 294.352C225.591 294.352 212.476 307.467 212.476 323.645C212.476 339.824 225.591 352.939 241.768 352.939C257.946 352.939 271.06 339.824 271.06 323.645Z" stroke="#252F64" stroke-miterlimit="10"/>
<path d="M1322.5 352.772H503.85C487.668 352.772 474.55 365.888 474.55 382.066C474.55 398.245 487.668 411.36 503.85 411.36H1322.5C1338.68 411.36 1351.8 398.245 1351.8 382.066C1351.8 365.888 1338.68 352.772 1322.5 352.772Z" stroke="#252F64" stroke-miterlimit="10"/>
<path d="M387.447 352.772H-431.204C-447.386 352.772 -460.504 365.888 -460.504 382.066C-460.504 398.245 -447.386 411.36 -431.204 411.36H387.447C403.629 411.36 416.748 398.245 416.748 382.066C416.748 365.888 403.629 352.772 387.447 352.772Z" stroke="#252F64" stroke-miterlimit="10"/>
<path d="M475.332 382.066C475.332 365.888 462.217 352.772 446.04 352.772C429.862 352.772 416.748 365.888 416.748 382.066C416.748 398.245 429.862 411.36 446.04 411.36C462.217 411.36 475.332 398.245 475.332 382.066Z" stroke="#252F64" stroke-miterlimit="10"/>
<path d="M962.559 411.825H143.908C127.726 411.825 114.608 424.94 114.608 441.119C114.608 457.297 127.726 470.413 143.908 470.413H962.559C978.741 470.413 991.859 457.297 991.859 441.119C991.859 424.94 978.741 411.825 962.559 411.825Z" stroke="#252F64" stroke-miterlimit="10"/>
<path d="M27.5216 411.825H-791.129C-807.311 411.825 -820.429 424.94 -820.429 441.119C-820.429 457.297 -807.311 470.413 -791.129 470.413H27.5216C43.7039 470.413 56.8221 457.297 56.8221 441.119C56.8221 424.94 43.7039 411.825 27.5216 411.825Z" stroke="#252F64" stroke-miterlimit="10"/>
<path d="M115.407 441.119C115.407 424.94 102.292 411.825 86.1143 411.825C69.9367 411.825 56.8221 424.94 56.8221 441.119C56.8221 457.297 69.9367 470.413 86.1143 470.413C102.292 470.413 115.407 457.297 115.407 441.119Z" stroke="#252F64" stroke-miterlimit="10"/>
<path d="M1351.9 470.063H533.251C517.069 470.063 503.95 483.179 503.95 499.357C503.95 515.536 517.069 528.651 533.251 528.651H1351.9C1368.08 528.651 1381.2 515.536 1381.2 499.357C1381.2 483.179 1368.08 470.063 1351.9 470.063Z" stroke="#252F64" stroke-miterlimit="10"/>
<path d="M416.864 470.063H-401.787C-417.969 470.063 -431.087 483.179 -431.087 499.357C-431.087 515.536 -417.969 528.651 -401.787 528.651H416.864C433.046 528.651 446.164 515.536 446.164 499.357C446.164 483.179 433.046 470.063 416.864 470.063Z" stroke="#252F64" stroke-miterlimit="10"/>
<path d="M504.749 499.357C504.749 483.179 491.634 470.063 475.457 470.063C459.279 470.063 446.164 483.179 446.164 499.357C446.164 515.536 459.279 528.651 475.457 528.651C491.634 528.651 504.749 515.536 504.749 499.357Z" stroke="#252F64" stroke-miterlimit="10"/>
<path d="M1082.36 529.965H263.706C247.524 529.965 234.406 543.08 234.406 559.259C234.406 575.437 247.524 588.552 263.706 588.552H1082.36C1098.54 588.552 1111.66 575.437 1111.66 559.259C1111.66 543.08 1098.54 529.965 1082.36 529.965Z" stroke="#252F64" stroke-miterlimit="10"/>
<path d="M147.319 529.965H-671.331C-687.513 529.965 -700.632 543.08 -700.632 559.259C-700.632 575.437 -687.513 588.552 -671.331 588.552H147.319C163.502 588.552 176.62 575.437 176.62 559.259C176.62 543.08 163.502 529.965 147.319 529.965Z" stroke="#252F64" stroke-miterlimit="10"/>
<path d="M235.204 559.259C235.204 543.08 222.09 529.965 205.912 529.965C189.734 529.965 176.62 543.08 176.62 559.259C176.62 575.437 189.734 588.552 205.912 588.552C222.09 588.552 235.204 575.437 235.204 559.259Z" stroke="#252F64" stroke-miterlimit="10"/>
<path d="M807.82 589.867H-10.8302C-27.0124 589.867 -40.1307 602.982 -40.1307 619.161C-40.1307 635.339 -27.0124 648.455 -10.8302 648.455H807.82C824.003 648.455 837.121 635.339 837.121 619.161C837.121 602.982 824.003 589.867 807.82 589.867Z" stroke="#252F64" stroke-miterlimit="10"/>
<path d="M940.929 648.104H122.278C106.096 648.104 92.9778 661.22 92.9778 677.398C92.9778 693.577 106.096 706.692 122.278 706.692H940.929C957.111 706.692 970.229 693.577 970.229 677.398C970.229 661.22 957.111 648.104 940.929 648.104Z" stroke="#252F64" stroke-miterlimit="10"/>
<path d="M5.89148 648.104H-812.759C-828.941 648.104 -842.06 661.22 -842.06 677.398C-842.06 693.577 -828.941 706.692 -812.759 706.692H5.89148C22.0737 706.692 35.192 693.577 35.192 677.398C35.192 661.22 22.0737 648.104 5.89148 648.104Z" stroke="#252F64" stroke-miterlimit="10"/>
<path d="M93.7764 677.398C93.7764 661.22 80.6618 648.104 64.4842 648.104C48.3065 648.104 35.192 661.22 35.192 677.398C35.192 693.577 48.3065 706.692 64.4842 706.692C80.6618 706.692 93.7764 693.577 93.7764 677.398Z" stroke="#252F64" stroke-miterlimit="10"/>
<path d="M1371.87 0.832031H553.217C537.035 0.832031 523.917 13.9473 523.917 30.1257C523.917 46.3042 537.035 59.4194 553.217 59.4194H1371.87C1388.05 59.4194 1401.17 46.3042 1401.17 30.1257C1401.17 13.9473 1388.05 0.832031 1371.87 0.832031Z" stroke="#252F64" stroke-miterlimit="10"/>
<path d="M436.83 0.832031H-381.82C-398.003 0.832031 -411.121 13.9473 -411.121 30.1257C-411.121 46.3042 -398.003 59.4194 -381.82 59.4194H436.83C453.013 59.4194 466.131 46.3042 466.131 30.1257C466.131 13.9473 453.013 0.832031 436.83 0.832031Z" stroke="#252F64" stroke-miterlimit="10"/>
<path d="M524.715 30.1257C524.715 13.9473 511.601 0.832031 495.423 0.832031C479.245 0.832031 466.131 13.9473 466.131 30.1257C466.131 46.3042 479.245 59.4194 495.423 59.4194C511.601 59.4194 524.715 46.3042 524.715 30.1257Z" stroke="#252F64" stroke-miterlimit="10"/>
</g>
<defs>
<clipPath id="clip0_153_590">
<rect width="2378" height="824" fill="white" transform="translate(-976)"/>
</clipPath>
</defs>
</svg>
