<svg xmlns="http://www.w3.org/2000/svg" viewBox="0 0 14 14"><defs><style>.cls-1{fill:#67748e;fill-rule:evenodd;}</style></defs><g id="Camada_2" data-name="Camada 2"><g id="Camada_2-2" data-name="Camada 2"><path class="cls-1" d="M8.3,1A1.34,1.34,0,0,0,5.7,1a1.34,1.34,0,0,1-2,.83A1.35,1.35,0,0,0,1.85,3.7,1.34,1.34,0,0,1,1,5.7,1.34,1.34,0,0,0,1,8.3a1.34,1.34,0,0,1,.83,2A1.35,1.35,0,0,0,3.7,12.15a1.34,1.34,0,0,1,2,.83,1.34,1.34,0,0,0,2.6,0,1.34,1.34,0,0,1,2-.83,1.35,1.35,0,0,0,1.85-1.85,1.34,1.34,0,0,1,.83-2,1.34,1.34,0,0,0,0-2.6,1.34,1.34,0,0,1-.83-2A1.35,1.35,0,0,0,10.3,1.85,1.34,1.34,0,0,1,8.3,1ZM7,9.62A2.63,2.63,0,1,0,4.37,7,2.62,2.62,0,0,0,7,9.62Z"/></g></g></svg>