<svg xmlns="http://www.w3.org/2000/svg" viewBox="0 0 32 32"><defs><style>.cls-1{fill:#252f64;}.cls-2,.cls-3,.cls-4{fill:#fff;}.cls-2{fill-rule:evenodd;}.cls-4{opacity:0.6;isolation:isolate;}</style></defs><g id="Camada_2" data-name="Camada 2"><g id="Camada_1-2" data-name="Camada 1"><rect class="cls-1" width="32" height="32" rx="8"/><path class="cls-2" d="M23.34,8a.63.63,0,0,1,.48.19.63.63,0,0,1,.18.47c-.5,8.78-8.31,12.07-8.39,12.1a.63.63,0,0,1-.68-.13l-3.56-3.56a.63.63,0,0,1-.13-.68C11.27,16.31,14.52,8.46,23.34,8Zm-6,7.36a1.25,1.25,0,0,0,1.37-.27,1.26,1.26,0,1,0-1.37.27Z"/><path class="cls-3" d="M9.7,19.76a1.81,1.81,0,0,1,1.73-.47,1.8,1.8,0,0,1,.8,3C11.53,23,9,23,9,23S9,20.46,9.7,19.76Z"/><path class="cls-4" d="M15.51,9.39A5.62,5.62,0,0,0,10.58,11a5.92,5.92,0,0,0-.86,1.13.63.63,0,0,0,.09.77l1.25,1.25A16.51,16.51,0,0,1,15.51,9.39Z"/><path class="cls-4" d="M22.61,16.49a5.62,5.62,0,0,1-1.56,4.93,6.41,6.41,0,0,1-1.13.87.65.65,0,0,1-.77-.1L17.9,20.94A16.51,16.51,0,0,0,22.61,16.49Z"/></g></g></svg>