<svg xmlns="http://www.w3.org/2000/svg" viewBox="0 0 19 18.71"><defs><style>.cls-1{fill:#67748e;}.cls-2{fill:#f5222d;}.cls-3{fill:#fff;}</style></defs><g id="Camada_2" data-name="Camada 2"><g id="Camada_2-2" data-name="Camada 2"><path class="cls-1" d="M6,5A5.14,5.14,0,0,0,.86,10.14v3.08l-.61.6a.86.86,0,0,0-.18.94.85.85,0,0,0,.79.53H11.14a.85.85,0,0,0,.79-.53.86.86,0,0,0-.18-.94l-.61-.6V10.14A5.14,5.14,0,0,0,6,5Z"/><path class="cls-1" d="M6,18.71a2.57,2.57,0,0,1-2.57-2.57H8.57A2.57,2.57,0,0,1,6,18.71Z"/><circle class="cls-2" cx="13" cy="6" r="6"/><path class="cls-3" d="M10.42,8.72v-1l2.95-4.21h1.46v4.1h.79v1.1h-.79V10H13.57V8.72Zm3.23-3.85L11.81,7.62h1.84Z"/></g></g></svg>