<svg xmlns="http://www.w3.org/2000/svg" viewBox="0 0 32 32"><defs><style>.cls-1{fill:#252f64;}.cls-2,.cls-3{fill:#fff;}.cls-2{opacity:0.6;isolation:isolate;}</style></defs><g id="Camada_2" data-name="Camada 2"><g id="Camada_1-2" data-name="Camada 1"><rect class="cls-1" width="32" height="32" rx="8"/><path class="cls-2" d="M22.92,12.2,21.17,9.28a.61.61,0,0,0-.5-.28H11.33a.61.61,0,0,0-.5.28L9.08,12.2a.61.61,0,0,0-.08.3,2.32,2.32,0,0,0,2.32,2.33h0a2.37,2.37,0,0,0,1.56-.59,2.34,2.34,0,0,0,3.11,0,2.32,2.32,0,0,0,3.11,0A2.33,2.33,0,0,0,23,12.5.61.61,0,0,0,22.92,12.2Z"/><path class="cls-3" d="M20.68,15.7a3.13,3.13,0,0,1-1.57-.42h0a3.07,3.07,0,0,1-2.66.2,2.48,2.48,0,0,1-.44-.2h0a3.08,3.08,0,0,1-2.66.2,2.48,2.48,0,0,1-.44-.2,3.22,3.22,0,0,1-1.56.41,2.78,2.78,0,0,1-.58-.06v6.68a.62.62,0,0,0,.58.66h3.5V19h2.34v4h3.5a.62.62,0,0,0,.58-.66V15.64A2.76,2.76,0,0,1,20.68,15.7Z"/></g></g></svg>