<svg xmlns="http://www.w3.org/2000/svg" xmlns:xlink="http://www.w3.org/1999/xlink" viewBox="0 0 103.46 44.7"><defs><style>.cls-1{fill:none;}.cls-2{clip-path:url(#clip-path);}.cls-3{fill:#252f40;}.cls-4{fill:#e0ff3d;}.cls-5{fill:#252f64;}</style><clipPath id="clip-path" transform="translate(0 0)"><rect id="SVGID" class="cls-1" x="23.27" width="41" height="15"/></clipPath></defs><g id="Camada_2" data-name="Camada 2"><g id="Camada_1-2" data-name="Camada 1"><g class="cls-2"><g id="Camada_1-3" data-name="Camada 1"><path id="Vector" class="cls-3" d="M62.84,8.64a1.4,1.4,0,0,1,1.43,1.41,1.42,1.42,0,0,1-1.38,1.41,1.41,1.41,0,1,1,0-2.82Z" transform="translate(0 0)"/><g id="Group"><path id="Vector_2" data-name="Vector 2" class="cls-3" d="M62.84,8.64a1.41,1.41,0,1,0,0,2.82,1.42,1.42,0,0,0,1.38-1.41,1.4,1.4,0,0,0-1.43-1.41Z" transform="translate(0 0)"/><path id="Vector_3" data-name="Vector 3" class="cls-3" d="M61.54,3.84a1.29,1.29,0,0,0-1.3-.51,1.5,1.5,0,0,0-1.12,1Q58.05,6.44,57,8.58c-.18-.09-.2-.24-.27-.37-.64-1.35-1.28-2.72-1.94-4.07a1.35,1.35,0,1,0-2.43,1.18l2.19,4.6c.15.32.22.76.52.91.74.37.39.79.17,1.24-.15.3-.31.6-.47.9a1.38,1.38,0,0,0-.1,1.17,1.22,1.22,0,0,0,1.13.86,1.34,1.34,0,0,0,1.37-.81l3.19-6.33c.43-.86.87-1.71,1.3-2.56A1.36,1.36,0,0,0,61.54,3.84Z" transform="translate(0 0)"/><path id="Vector_4" data-name="Vector 4" class="cls-3" d="M44.63,7.11a4,4,0,0,0-.82-2.44A3.41,3.41,0,0,0,39,3.89c-.2.17-.25,0-.37-.09A1.36,1.36,0,0,0,37,3.43a1.25,1.25,0,0,0-.74,1.32c0,1,0,2,0,3.06s0,2.14,0,3.21c0,.3.08.38.38.37.62,0,1.24,0,1.85,0,.33,0,.44-.06.44-.41,0-1.2,0-2.4,0-3.6a1.61,1.61,0,0,1,.41-1.15,1.63,1.63,0,0,1,1.79-.4,1.6,1.6,0,0,1,1,1.56c0,1.22,0,2.43,0,3.65,0,.26.06.36.35.35.57,0,1.14,0,1.7,0,.36,0,.47-.06.47-.44,0-1.28,0-2.56,0-3.84Z" transform="translate(0 0)"/><path id="Vector_5" data-name="Vector 5" class="cls-3" d="M51.17,8.7c-.52,0-1,0-1.56,0-.29,0-.43-.06-.39-.38a2.57,2.57,0,0,0,0-.48c0-2.17,0-4.34,0-6.51A1.31,1.31,0,0,0,47.77,0a1.33,1.33,0,0,0-1.31,1.44V6.16c0,1.61,0,3.23,0,4.85,0,.13-.11.37.16.37.56,0,1.17.18,1.64-.09a1.22,1.22,0,0,1,1.31,0,3.66,3.66,0,0,0,1.59.08,1.34,1.34,0,1,0,0-2.68Z" transform="translate(0 0)"/><path id="Vector_6" data-name="Vector 6" class="cls-3" d="M33.07,3.32a1.29,1.29,0,0,0-1.33,1.46v3c0,1,0,2.1,0,3.15,0,.33.06.46.42.45a16.31,16.31,0,0,1,1.85,0c.33,0,.41-.09.41-.41,0-2.07,0-4.14,0-6.21a1.32,1.32,0,0,0-1.35-1.45Z" transform="translate(0 0)"/><path id="Vector_7" data-name="Vector 7" class="cls-3" d="M25.94,4.75a1.32,1.32,0,0,0-1.36-1.43,1.28,1.28,0,0,0-1.3,1.43V7.81c0,1.07,0,2.14,0,3.21,0,.3.09.38.39.37.61,0,1.23,0,1.85,0,.33,0,.44-.07.44-.42,0-2.07,0-4.15,0-6.22Z" transform="translate(0 0)"/><path id="Vector_8" data-name="Vector 8" class="cls-3" d="M30.32.42c0-.31-.07-.42-.39-.41H24.57a1.22,1.22,0,0,0-.65.17,1.35,1.35,0,0,0-.6,1.51,1.27,1.27,0,0,0,1.16,1c.94,0,1.88,0,2.82,0v0c.86,0,1.72,0,2.58,0,.32,0,.46-.06.44-.42,0-.61,0-1.23,0-1.84Z" transform="translate(0 0)"/><path id="Vector_9" data-name="Vector 9" class="cls-3" d="M33.06,2.66a1.34,1.34,0,0,0,1.36-1.35,1.35,1.35,0,0,0-2.7,0A1.36,1.36,0,0,0,33.06,2.66Z" transform="translate(0 0)"/><path id="Vector_10" data-name="Vector 10" class="cls-3" d="M28,4.85a1.25,1.25,0,0,0-1.31,1.26A1.24,1.24,0,0,0,28,7.4a1.28,1.28,0,0,0,0-2.55Z" transform="translate(0 0)"/></g></g></g><path class="cls-4" d="M13.86,8.31,5.28,44.7H0L8.58,8.31ZM100.22,39a3.4,3.4,0,0,1-2.36-.83A2.82,2.82,0,0,1,97,36a2.86,2.86,0,0,1,.9-2.15,3.33,3.33,0,0,1,2.36-.86,3.22,3.22,0,0,1,2.31.86,2.82,2.82,0,0,1,.93,2.15,2.78,2.78,0,0,1-.93,2.11A3.29,3.29,0,0,1,100.22,39Z" transform="translate(0 0)"/><path class="cls-5" d="M15.24,27.45a12,12,0,0,1,1.44-5.92,10.15,10.15,0,0,1,4-4.06A11.64,11.64,0,0,1,26.53,16a11.17,11.17,0,0,1,6.85,2.12,10.09,10.09,0,0,1,3.81,5.76h-6a4.86,4.86,0,0,0-1.92-2.15A5.27,5.27,0,0,0,26.47,21a5.21,5.21,0,0,0-4.1,1.76,6.83,6.83,0,0,0-1.57,4.7,6.83,6.83,0,0,0,1.57,4.7,5.21,5.21,0,0,0,4.1,1.76,5.27,5.27,0,0,0,2.78-.73A4.86,4.86,0,0,0,31.17,31h6a10.09,10.09,0,0,1-3.81,5.76,11.27,11.27,0,0,1-6.85,2.08,11.82,11.82,0,0,1-5.85-1.44,10.41,10.41,0,0,1-4-4.06A12,12,0,0,1,15.24,27.45Zm24.21,2.3a10.86,10.86,0,0,1,1-4.83,8,8,0,0,1,2.85-3.2,7.47,7.47,0,0,1,4-1.12,6.82,6.82,0,0,1,3.3.77,5.63,5.63,0,0,1,2.21,2V20.86H58.3V38.71H52.83V36.19a5.91,5.91,0,0,1-2.24,2,6.82,6.82,0,0,1-3.3.77,7.33,7.33,0,0,1-4-1.12,8.17,8.17,0,0,1-2.85-3.23A11.07,11.07,0,0,1,39.45,29.75Zm13.38,0a4.45,4.45,0,0,0-1.16-3.24,3.65,3.65,0,0,0-2.75-1.18,3.76,3.76,0,0,0-2.78,1.18A4.39,4.39,0,0,0,45,29.75,4.62,4.62,0,0,0,46.14,33a3.73,3.73,0,0,0,2.78,1.18A3.62,3.62,0,0,0,51.67,33,4.44,4.44,0,0,0,52.83,29.79Zm14.9-6a7.12,7.12,0,0,1,2.4-2.3,6.07,6.07,0,0,1,3.2-.86v5.79h-1.5a4.62,4.62,0,0,0-3.08.89,3.88,3.88,0,0,0-1,3.08v8.28H62.26V20.86h5.47Zm7.13,5.92a10.86,10.86,0,0,1,1-4.83,7.94,7.94,0,0,1,2.85-3.2,7.44,7.44,0,0,1,4-1.12,7,7,0,0,1,3.2.74,5.8,5.8,0,0,1,2.3,2V15h5.48V38.71H88.23V36.15A5.46,5.46,0,0,1,86,38.2a6.82,6.82,0,0,1-3.3.77,7.36,7.36,0,0,1-4-1.12,8.1,8.1,0,0,1-2.85-3.23A11.07,11.07,0,0,1,74.86,29.75Zm13.37,0a4.44,4.44,0,0,0-1.15-3.24,3.67,3.67,0,0,0-2.75-1.18,3.75,3.75,0,0,0-2.78,1.18,4.39,4.39,0,0,0-1.12,3.2A4.62,4.62,0,0,0,81.55,33a3.71,3.71,0,0,0,2.78,1.18A3.63,3.63,0,0,0,87.08,33,4.43,4.43,0,0,0,88.23,29.79Z" transform="translate(0 0)"/></g></g></svg>