<?xml version="1.0" encoding="utf-8"?>
<!-- Generator: Adobe Illustrator 27.9.0, SVG Export Plug-In . SVG Version: 6.00 Build 0)  -->
<svg version="1.1" id="Camada_1" xmlns="http://www.w3.org/2000/svg" xmlns:xlink="http://www.w3.org/1999/xlink" x="0px" y="0px"
	 viewBox="0 0 862.1 795" style="enable-background:new 0 0 862.1 795;" xml:space="preserve">
<style type="text/css">
	.st0{fill:#252F64;}
	.st1{fill:#FFFFFF;filter:url(#Adobe_OpacityMaskFilter);}
	.st2{mask:url(#mask1_939_744_00000118356114918036053090000000729813853240094594_);}
	.st3{fill:none;stroke:#FFFFFF;stroke-miterlimit:10;}
	.st4{clip-path:url(#SVGID_00000099654052399226152730000002680822295959097483_);}
	.st5{fill:#C9E437;}
	.st6{fill:url(#SVGID_00000155121025603161192590000010786849274731483049_);}
	.st7{fill:#24126A;}
	.st8{fill:#FFFFFF;}
	.st9{fill:url(#SVGID_00000031906941185560049050000004319390731920001201_);}
	.st10{opacity:0.8;fill:url(#SVGID_00000124857802420119624540000008444068715558731138_);enable-background:new    ;}
	.st11{opacity:0.3;}
	.st12{opacity:0.5;fill:url(#SVGID_00000114075699114612711330000013197596044957579166_);enable-background:new    ;}
	.st13{fill:#FFFFFF;filter:url(#Adobe_OpacityMaskFilter_00000089572154051589537500000001832205520354288813_);}
	.st14{mask:url(#mask2_939_744_00000018934219431187150210000012000765690810430371_);}
	.st15{fill:#9FFFF8;}
	.st16{opacity:0.3;fill:#97AF17;enable-background:new    ;}
	.st17{fill:#97AF17;}
	.st18{opacity:0.4;fill:#24126A;enable-background:new    ;}
	.st19{opacity:0.4;fill:#C9E437;enable-background:new    ;}
	.st20{fill:url(#SVGID_00000124855633093955381250000014696690471868475548_);}
	.st21{opacity:0.3;fill:#0F054C;enable-background:new    ;}
	.st22{fill:url(#SVGID_00000097483716389331524660000013124239376080298649_);}
	.st23{fill:#0F054C;}
	.st24{fill:url(#SVGID_00000157279748197667506440000002826787003165780385_);}
	.st25{fill:#5351AF;}
	.st26{fill:url(#SVGID_00000104690104386026687750000001683794704166057648_);}
	.st27{fill:url(#SVGID_00000013889461236810038340000005473415843275066302_);}
	.st28{fill:url(#SVGID_00000025426999079864016020000003353228795146272138_);}
	.st29{fill:url(#SVGID_00000028314322585807581780000011211802662251045772_);}
	.st30{fill:url(#SVGID_00000006683612294291377290000013568029308676033464_);}
	.st31{fill:url(#SVGID_00000065763634075919887410000008090505963612708489_);}
</style>
<rect x="371.1" class="st0" width="491" height="795"/>
<g>
	<defs>
		<rect id="SVGID_1_" x="371.1" width="491" height="795"/>
	</defs>
	<clipPath id="SVGID_00000014615203813527191900000008648967195783121075_">
		<use xlink:href="#SVGID_1_"  style="overflow:visible;"/>
	</clipPath>
	<defs>
		<filter id="Adobe_OpacityMaskFilter" filterUnits="userSpaceOnUse" x="-964.6" y="-0.7" width="2332.4" height="807.5">
			<feColorMatrix  type="matrix" values="1 0 0 0 0  0 1 0 0 0  0 0 1 0 0  0 0 0 1 0"/>
		</filter>
	</defs>
	
		<mask maskUnits="userSpaceOnUse" x="-964.6" y="-0.7" width="2332.4" height="807.5" id="mask1_939_744_00000118356114918036053090000000729813853240094594_" style="clip-path:url(#SVGID_00000014615203813527191900000008648967195783121075_);">
		<path class="st1" d="M894,0.2H-367.8V821H894V0.2z"/>
	</mask>
	<g class="st2">
		<path class="st3" d="M793,57.8H-10.2c-15.9,0-28.7,12.9-28.7,28.7c0,15.9,12.9,28.7,28.7,28.7H793c15.9,0,28.8-12.9,28.8-28.7
			C821.7,70.7,808.8,57.8,793,57.8z"/>
		<path class="st3" d="M-124.4,57.8h-803.2c-15.9,0-28.7,12.9-28.7,28.7c0,15.9,12.9,28.7,28.7,28.7h803.2
			c15.9,0,28.7-12.9,28.7-28.7C-95.7,70.7-108.5,57.8-124.4,57.8z"/>
		<path class="st3" d="M-38.2,86.6c0-15.9-12.9-28.7-28.7-28.7c-15.9,0-28.7,12.9-28.7,28.7c0,15.9,12.9,28.7,28.7,28.7
			C-51,115.3-38.2,102.4-38.2,86.6z"/>
		<path class="st3" d="M903.3,115.3H100.1c-15.9,0-28.7,12.9-28.7,28.7c0,15.9,12.9,28.7,28.7,28.7h803.2
			c15.9,0,28.8-12.9,28.8-28.7C932,128.2,919.1,115.3,903.3,115.3z"/>
		<path class="st3" d="M-14.1,115.3h-803.2c-15.9,0-28.7,12.9-28.7,28.7c0,15.9,12.9,28.7,28.7,28.7h803.2
			c15.9,0,28.7-12.9,28.7-28.7C14.6,128.2,1.8,115.3-14.1,115.3z"/>
		<path class="st3" d="M72.1,144c0-15.9-12.9-28.7-28.7-28.7c-15.9,0-28.7,12.9-28.7,28.7c0,15.9,12.9,28.7,28.7,28.7
			C59.3,172.7,72.1,159.9,72.1,144z"/>
		<path class="st3" d="M1296.3,172.7H493.1c-15.9,0-28.8,12.9-28.8,28.7c0,15.9,12.9,28.7,28.8,28.7h803.2
			c15.9,0,28.7-12.9,28.7-28.7C1325,185.6,1312.2,172.7,1296.3,172.7z"/>
		<path class="st3" d="M378.9,172.7h-803.2c-15.9,0-28.7,12.9-28.7,28.7c0,15.9,12.9,28.7,28.7,28.7h803.2
			c15.9,0,28.7-12.9,28.7-28.7C407.7,185.6,394.8,172.7,378.9,172.7z"/>
		<path class="st3" d="M465.2,201.5c0-15.9-12.9-28.7-28.7-28.7c-15.9,0-28.7,12.9-28.7,28.7c0,15.9,12.9,28.7,28.7,28.7
			C452.3,230.2,465.2,217.3,465.2,201.5z"/>
		<path class="st3" d="M931.2,230.2H128.1c-15.9,0-28.7,12.9-28.7,28.7c0,15.9,12.9,28.7,28.7,28.7h803.2
			c15.9,0,28.7-12.9,28.7-28.7C960,243.1,947.1,230.2,931.2,230.2z"/>
		<path class="st3" d="M13.9,230.2h-803.2c-15.9,0-28.7,12.9-28.7,28.7c0,15.9,12.9,28.7,28.7,28.7H13.9c15.9,0,28.7-12.9,28.7-28.7
			C42.6,243.1,29.7,230.2,13.9,230.2z"/>
		<path class="st3" d="M100.1,258.9c0-15.9-12.9-28.7-28.7-28.7c-15.9,0-28.7,12.9-28.7,28.7c0,15.9,12.9,28.7,28.7,28.7
			C87.2,287.7,100.1,274.8,100.1,258.9z"/>
		<path class="st3" d="M1089.7,287.7H286.5c-15.9,0-28.7,12.9-28.7,28.7s12.9,28.7,28.7,28.7h803.2c15.9,0,28.8-12.9,28.8-28.7
			S1105.6,287.7,1089.7,287.7z"/>
		<path class="st3" d="M172.3,287.7h-803.2c-15.9,0-28.7,12.9-28.7,28.7s12.9,28.7,28.7,28.7h803.2c15.9,0,28.7-12.9,28.7-28.7
			S188.2,287.7,172.3,287.7z"/>
		<path class="st3" d="M258.5,316.4c0-15.9-12.9-28.7-28.7-28.7c-15.9,0-28.7,12.9-28.7,28.7s12.9,28.7,28.7,28.7
			C245.7,345.1,258.5,332.3,258.5,316.4z"/>
		<path class="st3" d="M1290.1,345H486.9c-15.9,0-28.8,12.9-28.8,28.7s12.9,28.7,28.8,28.7h803.2c15.9,0,28.7-12.9,28.7-28.7
			S1306,345,1290.1,345z"/>
		<path class="st3" d="M372.7,345h-803.2c-15.9,0-28.7,12.9-28.7,28.7s12.9,28.7,28.7,28.7h803.2c15.9,0,28.7-12.9,28.7-28.7
			S388.6,345,372.7,345z"/>
		<path class="st3" d="M458.9,373.7c0-15.9-12.9-28.7-28.7-28.7c-15.9,0-28.7,12.9-28.7,28.7s12.9,28.7,28.7,28.7
			C446.1,402.4,458.9,389.6,458.9,373.7z"/>
		<path class="st3" d="M936.9,402.9H133.8c-15.9,0-28.7,12.9-28.7,28.7c0,15.9,12.9,28.7,28.7,28.7h803.2
			c15.9,0,28.8-12.9,28.8-28.7C965.7,415.8,952.8,402.9,936.9,402.9z"/>
		<path class="st3" d="M19.6,402.9h-803.2c-15.9,0-28.7,12.9-28.7,28.7c0,15.9,12.9,28.7,28.7,28.7H19.6c15.9,0,28.7-12.9,28.7-28.7
			C48.4,415.8,35.5,402.9,19.6,402.9z"/>
		<path class="st3" d="M105.8,431.6c0-15.9-12.9-28.7-28.7-28.7c-15.9,0-28.7,12.9-28.7,28.7c0,15.9,12.9,28.7,28.7,28.7
			C93,460.4,105.8,447.5,105.8,431.6z"/>
		<path class="st3" d="M1318.9,460H515.8c-15.9,0-28.8,12.9-28.8,28.7c0,15.9,12.9,28.7,28.8,28.7h803.2c15.9,0,28.8-12.9,28.8-28.7
			C1347.7,472.9,1334.8,460,1318.9,460z"/>
		<path class="st3" d="M401.6,460h-803.2c-15.9,0-28.7,12.9-28.7,28.7c0,15.9,12.9,28.7,28.7,28.7h803.2c15.9,0,28.7-12.9,28.7-28.7
			C430.3,472.9,417.5,460,401.6,460z"/>
		<path class="st3" d="M487.8,488.7c0-15.9-12.9-28.7-28.7-28.7s-28.7,12.9-28.7,28.7c0,15.9,12.9,28.7,28.7,28.7
			S487.8,504.6,487.8,488.7z"/>
		<path class="st3" d="M1054.5,518.8H251.3c-15.9,0-28.7,12.9-28.7,28.7s12.9,28.7,28.7,28.7h803.2c15.9,0,28.7-12.9,28.7-28.7
			S1070.4,518.8,1054.5,518.8z"/>
		<path class="st3" d="M137.1,518.8H-666c-15.9,0-28.7,12.9-28.7,28.7s12.9,28.7,28.7,28.7h803.2c15.9,0,28.7-12.9,28.7-28.7
			S153,518.8,137.1,518.8z"/>
		<path class="st3" d="M223.4,547.5c0-15.9-12.9-28.7-28.7-28.7c-15.9,0-28.7,12.9-28.7,28.7s12.9,28.7,28.7,28.7
			C210.5,576.2,223.4,563.4,223.4,547.5z"/>
		<path class="st3" d="M785.1,577.5H-18c-15.9,0-28.7,12.9-28.7,28.7S-33.9,635-18,635h803.2c15.9,0,28.8-12.9,28.8-28.7
			S801,577.5,785.1,577.5z"/>
		<path class="st3" d="M-132.2,577.5h-803.2c-15.9,0-28.7,12.9-28.7,28.7s12.9,28.7,28.7,28.7h803.2c15.9,0,28.7-12.9,28.7-28.7
			S-116.3,577.5-132.2,577.5z"/>
		<path class="st3" d="M-46,606.2c0-15.9-12.9-28.7-28.7-28.7c-15.9,0-28.7,12.9-28.7,28.7S-90.6,635-74.7,635
			C-58.8,635-46,622.1-46,606.2z"/>
		<path class="st3" d="M915.7,634.6H112.6c-15.9,0-28.7,12.9-28.7,28.7c0,15.9,12.9,28.7,28.7,28.7h803.2
			c15.9,0,28.8-12.9,28.8-28.7C944.5,647.5,931.6,634.6,915.7,634.6z"/>
		<path class="st3" d="M-1.6,634.6h-803.2c-15.9,0-28.7,12.9-28.7,28.7c0,15.9,12.9,28.7,28.7,28.7H-1.6c15.9,0,28.7-12.9,28.7-28.7
			C27.1,647.5,14.3,634.6-1.6,634.6z"/>
		<path class="st3" d="M84.6,663.4c0-15.9-12.9-28.7-28.7-28.7c-15.9,0-28.7,12.9-28.7,28.7c0,15.9,12.9,28.7,28.7,28.7
			C71.7,692.1,84.6,679.2,84.6,663.4z"/>
		<path class="st3" d="M1318.9,691.7H515.8c-15.9,0-28.8,12.9-28.8,28.7s12.9,28.7,28.8,28.7h803.2c15.9,0,28.8-12.9,28.8-28.7
			S1334.8,691.7,1318.9,691.7z"/>
		<path class="st3" d="M401.6,691.7h-803.2c-15.9,0-28.7,12.9-28.7,28.7s12.9,28.7,28.7,28.7h803.2c15.9,0,28.7-12.9,28.7-28.7
			S417.5,691.7,401.6,691.7z"/>
		<path class="st3" d="M487.8,720.5c0-15.9-12.9-28.7-28.7-28.7s-28.7,12.9-28.7,28.7s12.9,28.7,28.7,28.7S487.8,736.3,487.8,720.5z
			"/>
		<path class="st3" d="M943.5,748.9H140.3c-15.9,0-28.7,12.9-28.7,28.7s12.9,28.7,28.7,28.7h803.2c15.9,0,28.8-12.9,28.8-28.7
			S959.4,748.9,943.5,748.9z"/>
		<path class="st3" d="M26.1,748.9H-777c-15.9,0-28.7,12.9-28.7,28.7s12.9,28.7,28.7,28.7H26.1c15.9,0,28.7-12.9,28.7-28.7
			S42,748.9,26.1,748.9z"/>
		<path class="st3" d="M112.4,777.6c0-15.9-12.9-28.7-28.7-28.7c-15.9,0-28.7,12.9-28.7,28.7s12.9,28.7,28.7,28.7
			C99.5,806.3,112.4,793.5,112.4,777.6z"/>
		<path class="st3" d="M1338.5-0.2H535.4c-15.9,0-28.8,12.9-28.8,28.7c0,15.9,12.9,28.7,28.8,28.7h803.2c15.9,0,28.7-12.9,28.7-28.7
			C1367.3,12.7,1354.4-0.2,1338.5-0.2z"/>
		<path class="st3" d="M421.2-0.2H-382c-15.9,0-28.7,12.9-28.7,28.7c0,15.9,12.9,28.7,28.7,28.7h803.2c15.9,0,28.7-12.9,28.7-28.7
			C449.9,12.7,437-0.2,421.2-0.2z"/>
		<path class="st3" d="M507.4,28.5c0-15.9-12.9-28.7-28.7-28.7s-28.7,12.9-28.7,28.7c0,15.9,12.9,28.7,28.7,28.7
			S507.4,44.4,507.4,28.5z"/>
	</g>
</g>
<g>
	<defs>
		<rect id="SVGID_00000059997783374640891890000000851923637795203000_" x="15.1" y="151" width="727" height="531"/>
	</defs>
	<clipPath id="SVGID_00000106104887125912161260000018170787191660823726_">
		<use xlink:href="#SVGID_00000059997783374640891890000000851923637795203000_"  style="overflow:visible;"/>
	</clipPath>
	<g style="clip-path:url(#SVGID_00000106104887125912161260000018170787191660823726_);">
		<path class="st5" d="M274.2,626.5c-5.7,0-11.1-1.1-15.2-3.5L60.6,508.4c-4-2.3-6.2-5.5-6.2-9c0-4.2,3.1-8.4,8.7-11.6l378.5-218.6
			c10.3-5.9,25.9-6.6,34.8-1.4l198.5,114.6c4,2.3,6.2,5.5,6.2,9c0,4.2-3.1,8.4-8.7,11.6L294,621.6
			C288.3,624.8,281.1,626.5,274.2,626.5L274.2,626.5z M259.5,622.3c8.7,5,23.9,4.4,34-1.4L672,402.2c5.2-3,8.2-7,8.2-10.9
			c0-3.2-2.1-6.1-5.8-8.3L476,268.5c-8.7-5-23.9-4.4-34,1.4L63.5,488.5c-5.2,3-8.2,7-8.2,10.9c0,3.2,2,6.1,5.8,8.3L259.5,622.3
			L259.5,622.3z"/>
		
			<linearGradient id="SVGID_00000107548534151537782030000009765301581150702258_" gradientUnits="userSpaceOnUse" x1="54.9025" y1="381.4755" x2="680.6545" y2="381.4755" gradientTransform="matrix(1 0 0 -1 0 796)">
			<stop  offset="0" style="stop-color:#22326E"/>
			<stop  offset="0.18" style="stop-color:#1D2A5C"/>
			<stop  offset="0.48" style="stop-color:#171F45"/>
			<stop  offset="0.76" style="stop-color:#131936"/>
			<stop  offset="1" style="stop-color:#121732"/>
		</linearGradient>
		<path style="fill:url(#SVGID_00000107548534151537782030000009765301581150702258_);" d="M680.7,338.4l-28.5,4.9L476.2,241.7
			c-8.8-5.1-24.2-4.5-34.4,1.4L105.3,437.5l-50.4,8.7v17.9c0,3.3,1.9,6.4,5.9,8.7l198.5,114.6c8.8,5.1,24.2,4.5,34.4-1.4
			l378.5-218.6c5.5-3.2,8.3-7.2,8.4-11.1V338.4z"/>
		<path class="st7" d="M259.3,569.4L60.8,454.7c-8.8-5.1-7.7-14,2.5-19.9l378.5-218.6c10.2-5.9,25.6-6.5,34.4-1.4l198.5,114.6
			c8.8,5.1,7.7,14-2.5,19.9L293.7,568C283.6,573.8,268.2,574.5,259.3,569.4z"/>
		<path class="st8" d="M672.2,349.3L293.7,568c-10.2,5.9-25.6,6.5-34.4,1.4L60.8,454.7c-3.5-2.1-5.5-4.7-5.8-7.5
			c-0.5,3.7,1.4,7.3,5.8,9.9l198.5,114.6c8.8,5.1,24.2,4.5,34.4-1.4l378.5-218.6c6.1-3.5,8.9-8.1,8.3-12.4
			C680.1,342.8,677.3,346.4,672.2,349.3z"/>
		
			<linearGradient id="SVGID_00000145028838441609544680000017127696609013356680_" gradientUnits="userSpaceOnUse" x1="62.5527" y1="403.9327" x2="672.6464" y2="403.9327" gradientTransform="matrix(1 0 0 -1 0 796)">
			<stop  offset="0" style="stop-color:#121732"/>
			<stop  offset="0.24" style="stop-color:#131936"/>
			<stop  offset="0.52" style="stop-color:#171F45"/>
			<stop  offset="0.82" style="stop-color:#1D2A5C"/>
			<stop  offset="1" style="stop-color:#22326E"/>
		</linearGradient>
		<path style="fill:url(#SVGID_00000145028838441609544680000017127696609013356680_);" d="M259.7,564.9L68.3,454.4
			c-8.5-4.9-7.5-13.5,2.4-19.2l371.5-214.5c9.9-5.7,24.8-6.3,33.3-1.4l191.4,110.6c8.5,4.9,7.5,13.5-2.4,19.2L293,563.5
			C283.2,569.2,268.2,569.9,259.7,564.9z"/>
		
			<linearGradient id="SVGID_00000057121062566881084600000004276212812950814643_" gradientUnits="userSpaceOnUse" x1="454.9776" y1="292.9406" x2="280.1942" y2="524.7872" gradientTransform="matrix(1 0 0 -1 0 796)">
			<stop  offset="0" style="stop-color:#ECE81A"/>
			<stop  offset="0.11" style="stop-color:#BBB525"/>
			<stop  offset="0.22" style="stop-color:#8D872F"/>
			<stop  offset="0.34" style="stop-color:#665F38"/>
			<stop  offset="0.46" style="stop-color:#473E3F"/>
			<stop  offset="0.58" style="stop-color:#2E2544"/>
			<stop  offset="0.71" style="stop-color:#1C1348"/>
			<stop  offset="0.85" style="stop-color:#12084B"/>
			<stop  offset="1" style="stop-color:#0F054C"/>
		</linearGradient>
		<path style="opacity:0.8;fill:url(#SVGID_00000057121062566881084600000004276212812950814643_);enable-background:new    ;" d="
			M274.2,563.9c-5.5,0-10.8-1.1-14.8-3.4L68,450c-3.9-2.3-6.1-5.4-6.1-8.9c0-4.2,3.1-8.3,8.5-11.4l371.5-214.5
			c10-5.8,25.2-6.4,33.9-1.4l191.4,110.6c3.9,2.3,6.1,5.4,6.1,8.9c0,4.2-3.1,8.3-8.5,11.4L293.3,559.2
			C287.8,562.3,280.8,563.9,274.2,563.9z M260,559.5c8.4,4.8,23,4.2,32.7-1.4l371.5-214.5c5-2.9,7.8-6.7,7.8-10.3
			c0-3-1.9-5.8-5.5-7.8L475.2,214.8c-8.3-4.8-23-4.2-32.7,1.4L71,430.7c-5,2.9-7.8,6.7-7.8,10.3c0,3,1.9,5.8,5.5,7.8L260,559.5
			L260,559.5z"/>
		<g class="st11">
			
				<radialGradient id="SVGID_00000036930115684976380370000008384307111276011431_" cx="-816.4376" cy="937.7102" r="1" gradientTransform="matrix(489.812 0 0 -490.038 400177 459936.9062)" gradientUnits="userSpaceOnUse">
				<stop  offset="0" style="stop-color:#ECE81A"/>
				<stop  offset="0.11" style="stop-color:#BBB525"/>
				<stop  offset="0.22" style="stop-color:#8D872F"/>
				<stop  offset="0.34" style="stop-color:#665F38"/>
				<stop  offset="0.46" style="stop-color:#473E3F"/>
				<stop  offset="0.58" style="stop-color:#2E2544"/>
				<stop  offset="0.71" style="stop-color:#1C1348"/>
				<stop  offset="0.85" style="stop-color:#12084B"/>
				<stop  offset="1" style="stop-color:#0F054C"/>
			</radialGradient>
			<path style="opacity:0.5;fill:url(#SVGID_00000036930115684976380370000008384307111276011431_);enable-background:new    ;" d="
				M259.7,560L68.3,449.4c-8.5-4.9-7.5-13.5,2.4-19.2l371.5-214.5c9.9-5.7,24.8-6.3,33.3-1.4l191.4,110.6c8.5,4.9,7.5,13.5-2.4,19.2
				L293,558.6C283.2,564.3,268.2,564.9,259.7,560z"/>
			<defs>
				
					<filter id="Adobe_OpacityMaskFilter_00000072969701575245765230000010872640190807814570_" filterUnits="userSpaceOnUse" x="142.6" y="425.3" width="162.6" height="233.8">
					<feColorMatrix  type="matrix" values="1 0 0 0 0  0 1 0 0 0  0 0 1 0 0  0 0 0 1 0"/>
				</filter>
			</defs>
			
				<mask maskUnits="userSpaceOnUse" x="142.6" y="425.3" width="162.6" height="233.8" id="mask2_939_744_00000018934219431187150210000012000765690810430371_">
				<path style="fill:#FFFFFF;filter:url(#Adobe_OpacityMaskFilter_00000072969701575245765230000010872640190807814570_);" d="
					M259.7,560L68.3,449.4c-8.5-4.9-7.5-13.5,2.4-19.2l371.5-214.5c9.9-5.7,24.8-6.3,33.3-1.4l191.4,110.6
					c8.5,4.9,7.5,13.5-2.4,19.2L293,558.6C283.2,564.3,268.2,564.9,259.7,560z"/>
			</mask>
			<g class="st14">
				<path class="st5" d="M142.7,440.7v140c0,3,1.9,5.9,5.6,8.1l116.3,67.1c8.4,4.8,23,4.2,32.7-1.4c5.4-3.1,8.1-7.1,8-10.9v-140
					L142.7,440.7L142.7,440.7z"/>
				<path class="st15" d="M264.6,516l-116.3-67.1c-8.4-4.8-7.3-13.3,2.4-18.9c9.6-5.6,24.3-6.2,32.7-1.4l116.3,67.1
					c8.4,4.8,7.3,13.3-2.4,18.9C287.6,520.2,272.9,520.8,264.6,516z"/>
			</g>
		</g>
		<path class="st16" d="M264.6,515.9l-116.3-67.1c-8.4-4.8-7.3-13.3,2.4-18.9c9.6-5.6,24.3-6.2,32.7-1.4l116.3,67.1
			c8.4,4.8,7.3,13.3-2.4,18.9C287.6,520.2,272.9,520.8,264.6,515.9z"/>
		<path class="st5" d="M142.7,275.2v140c0,3,1.9,5.9,5.6,8.1l116.3,67.1c8.4,4.8,23,4.2,32.7-1.4c5.4-3.1,8.1-7.1,8-10.9V338
			L142.7,275.2L142.7,275.2z"/>
		<path class="st17" d="M264.6,350.4l-116.3-67.1c-8.4-4.8-7.3-13.3,2.4-18.9c9.6-5.6,24.3-6.2,32.7-1.4l116.3,67.1
			c8.4,4.8,7.3,13.3-2.4,18.9C287.6,354.6,272.9,355.2,264.6,350.4z"/>
		<path class="st5" d="M276.2,341.4c-5.5,0-10-4.5-10-10v-62.2c0-21.2-15.5-48.1-33.9-58.7L205.6,195c-7.1-4.1-13.4-5.1-17.5-2.7
			c-4,2.4-6.4,8.4-6.4,16.5V271c0,5.6-4.5,10-10,10c-5.5,0-10-4.5-10-10v-62.2c0-15.7,5.8-27.8,16.4-33.9
			c10.6-6.1,23.9-5.2,37.6,2.7l26.7,15.4c24.6,14.2,43.9,47.7,43.9,76.1v62.2C286.2,336.9,281.7,341.4,276.2,341.4L276.2,341.4z"/>
		<path class="st18" d="M452.9,420.7l-132.5-76.6c-9-5.2-7.9-14.3,2.5-20.3c10.4-6,26.2-6.7,35.2-1.4l132.5,76.6
			c9,5.2,7.9,14.3-2.5,20.3C477.7,425.2,462,425.9,452.9,420.7z"/>
		<path class="st19" d="M452.9,411.2l-132.5-76.6c-9-5.2-7.9-14.3,2.5-20.3c10.4-6,26.2-6.7,35.2-1.4l132.5,76.6
			c9,5.2,7.9,14.3-2.5,20.3C477.7,415.8,462,416.4,452.9,411.2z"/>
		<path class="st5" d="M468.2,415.1c-5.8,0-11.4-1.2-15.5-3.6L320.2,335c-4.1-2.4-6.3-5.6-6.3-9.2c0-4.3,3.2-8.6,8.8-11.9
			c10.5-6.1,26.5-6.7,35.6-1.4L490.9,389c4.1,2.4,6.3,5.6,6.3,9.2c0,4.3-3.2,8.6-8.8,11.9C482.6,413.4,475.2,415.1,468.2,415.1
			L468.2,415.1z M453.2,410.8c8.9,5.1,24.5,4.5,34.8-1.4c5.3-3.1,8.4-7.1,8.4-11.1c0-3.3-2.1-6.3-5.9-8.5l-132.5-76.6
			c-8.9-5.1-24.5-4.5-34.8,1.4c-5.3,3.1-8.4,7.1-8.4,11.1c0,3.3,2.1,6.3,5.9,8.5L453.2,410.8z"/>
		<path class="st19" d="M477.1,404c-3.1,1.8-8.1,1.8-11.2,0c-3.1-1.8-3.1-4.7,0-6.5c3.1-1.8,8.1-1.8,11.2,0
			C480.2,399.3,480.2,402.2,477.1,404z"/>
		<path class="st5" d="M471.5,405.6c-2.1,0-4.2-0.5-5.8-1.4s-2.5-2.2-2.5-3.5s0.9-2.6,2.5-3.5c3.2-1.8,8.3-1.8,11.5,0
			c1.6,0.9,2.5,2.2,2.5,3.5s-0.9,2.6-2.5,3.5C475.6,405.2,473.5,405.6,471.5,405.6z M471.5,396.5c-2,0-3.9,0.4-5.5,1.3
			c-1.4,0.8-2.2,1.9-2.2,3s0.8,2.2,2.2,3c3,1.8,7.9,1.8,10.9,0c1.4-0.8,2.2-1.9,2.2-3s-0.8-2.2-2.2-3
			C475.4,396.9,473.4,396.5,471.5,396.5z"/>
		<path class="st19" d="M458.4,393.2c-3.1,1.8-8.1,1.8-11.2,0c-3.1-1.8-3.1-4.7,0-6.5c3.1-1.8,8.1-1.8,11.2,0
			C461.5,388.4,461.5,391.3,458.4,393.2z"/>
		<path class="st5" d="M452.8,391.2c-2.1,0-4.2-0.5-5.8-1.4c-1.6-0.9-2.5-2.2-2.5-3.5s0.9-2.6,2.5-3.5c3.2-1.8,8.3-1.8,11.5,0
			c1.6,0.9,2.5,2.2,2.5,3.5s-0.9,2.6-2.5,3.5C457,390.7,454.9,391.2,452.8,391.2z M452.8,382.1c-2,0-3.9,0.4-5.4,1.3
			c-1.4,0.8-2.2,1.9-2.2,3s0.8,2.2,2.2,3c3,1.8,7.9,1.8,10.9,0c1.4-0.8,2.2-1.9,2.2-3s-0.8-2.2-2.2-3
			C456.8,382.5,454.8,382.1,452.8,382.1z"/>
		<path class="st5" d="M404.4,352c-2.1,0-4.2-0.5-5.8-1.4s-2.5-2.2-2.5-3.5c0-1.3,0.9-2.6,2.5-3.5c3.2-1.8,8.3-1.8,11.5,0
			c1.6,0.9,2.5,2.2,2.5,3.5c0,1.3-0.9,2.6-2.5,3.5C408.5,351.5,406.4,352,404.4,352z M404.4,342.8c-2,0-4,0.4-5.5,1.3
			c-1.4,0.8-2.2,1.9-2.2,3c0,1.1,0.8,2.2,2.2,3c3,1.8,7.9,1.8,10.9,0c1.4-0.8,2.2-1.9,2.2-3c0-1.1-0.8-2.2-2.2-3
			C408.3,343.3,406.4,342.8,404.4,342.8z"/>
		<path class="st19" d="M410,366.1c-3.1,1.8-8.1,1.8-11.2,0c-3.1-1.8-3.1-4.7,0-6.5c3.1-1.8,8.1-1.8,11.2,0
			C413.1,361.4,413.1,364.3,410,366.1z"/>
		<path class="st5" d="M385.8,331.9c-2.1,0-4.2-0.5-5.8-1.4s-2.5-2.2-2.5-3.5s0.9-2.6,2.5-3.5c3.2-1.8,8.3-1.8,11.5,0
			c1.6,0.9,2.5,2.2,2.5,3.5s-0.9,2.6-2.5,3.5C389.9,331.4,387.8,331.9,385.8,331.9z M385.8,322.8c-2,0-3.9,0.4-5.5,1.3
			c-1.4,0.8-2.2,1.9-2.2,3s0.8,2.2,2.2,3c3,1.7,7.9,1.7,10.9,0c1.4-0.8,2.2-1.9,2.2-3s-0.8-2.2-2.2-3
			C389.7,323.2,387.8,322.8,385.8,322.8z"/>
		<path class="st19" d="M391.4,356.1c-3.1,1.8-8.1,1.8-11.2,0c-3.1-1.8-3.1-4.7,0-6.5c3.1-1.8,8.1-1.8,11.2,0
			C394.5,351.4,394.5,354.3,391.4,356.1z"/>
		<path class="st5" d="M367.1,307.5c-2.1,0-4.2-0.5-5.8-1.4c-1.6-0.9-2.5-2.2-2.5-3.5c0-1.3,0.9-2.6,2.5-3.5c3.2-1.8,8.3-1.8,11.5,0
			c1.6,0.9,2.5,2.2,2.5,3.5c0,1.3-0.9,2.6-2.5,3.5C371.3,307.1,369.2,307.5,367.1,307.5z M367.1,298.4c-2,0-4,0.4-5.5,1.3
			c-1.4,0.8-2.2,1.9-2.2,3c0,1.1,0.8,2.2,2.2,3c3,1.7,7.9,1.7,10.9,0c1.4-0.8,2.2-1.9,2.2-3c0-1.1-0.8-2.2-2.2-3
			C371.1,298.8,369.1,298.4,367.1,298.4z"/>
		<path class="st19" d="M372.4,345.8c-3.1,1.8-8.1,1.8-11.2,0c-3.1-1.8-3.1-4.7,0-6.5c3.1-1.8,8.1-1.8,11.2,0
			C375.5,341.1,375.5,344,372.4,345.8z"/>
		<path class="st19" d="M425.8,368.4l16.2,9.4c2.7,1.5,2.3,4.3-0.8,6c-3.1,1.8-7.8,2-10.5,0.4l-16.2-9.4c-2.7-1.5-2.4-4.3,0.8-6
			C418.4,367.1,423.1,366.9,425.8,368.4z"/>
		<path class="st5" d="M435.4,378.1c-1.8,0-3.4-0.4-4.7-1.1l-16.2-9.4c-1.3-0.7-2-1.7-2-2.9c0-1.3,1-2.7,2.7-3.7
			c3.2-1.8,8-2,10.8-0.4l16.2,9.4c1.3,0.7,2,1.8,2,2.9c0,1.3-1,2.7-2.7,3.7C439.7,377.6,437.5,378.1,435.4,378.1L435.4,378.1z
			 M421.3,360.2c-2,0-4.1,0.5-5.8,1.4c-1.5,0.9-2.4,2.1-2.4,3.2c0,0.9,0.6,1.7,1.7,2.4l16.2,9.4c2.6,1.5,7.1,1.3,10.2-0.4
			c1.5-0.9,2.4-2.1,2.4-3.2c0-0.9-0.6-1.8-1.7-2.4l-16.2-9.4C424.5,360.5,422.9,360.2,421.3,360.2L421.3,360.2z"/>
		<path class="st18" d="M626,343.2c-2.9,1.7-7.7,1.7-10.6,0c-2.9-1.7-2.9-4.4,0-6.1c2.9-1.7,7.7-1.7,10.6,0
			C628.9,338.8,628.9,341.5,626,343.2z"/>
		<path class="st18" d="M585.6,313.8l20.7,12c2.5,1.4,2.2,4-0.7,5.7c-2.9,1.7-7.3,1.9-9.9,0.4l-20.7-12c-2.5-1.4-2.2-4,0.7-5.7
			C578.7,312.5,583.1,312.3,585.6,313.8z"/>
		<path class="st18" d="M469.3,245.1l20.7,12c2.5,1.4,2.2,4-0.7,5.7c-2.9,1.7-7.3,1.9-9.8,0.4l-20.7-12c-2.5-1.4-2.2-4,0.7-5.7
			C462.3,243.8,466.7,243.7,469.3,245.1z"/>
		<path class="st5" d="M626,335.8c-2.9,1.7-7.7,1.7-10.6,0c-2.9-1.7-2.9-4.4,0-6.1c2.9-1.7,7.7-1.7,10.6,0
			C628.9,331.3,628.9,334.1,626,335.8z"/>
		<path class="st5" d="M585.6,306.3l20.7,12c2.5,1.4,2.2,4-0.7,5.7c-2.9,1.7-7.3,1.9-9.9,0.4l-20.7-12c-2.5-1.4-2.2-4,0.7-5.7
			C578.7,305.1,583.1,304.9,585.6,306.3z"/>
		<path class="st5" d="M469.3,237.7l20.7,12c2.5,1.4,2.2,4-0.7,5.7c-2.9,1.7-7.3,1.9-9.8,0.4l-20.7-12c-2.5-1.4-2.2-4,0.7-5.7
			C462.3,236.4,466.7,236.2,469.3,237.7z"/>
		<g class="st11">
			
				<linearGradient id="SVGID_00000068636700005567440920000015400689088783658920_" gradientUnits="userSpaceOnUse" x1="26.1242" y1="567.4174" x2="114.0971" y2="516.6412" gradientTransform="matrix(1 0 0 -1 0 796)">
				<stop  offset="0" style="stop-color:#BCBEFF"/>
				<stop  offset="0.23" style="stop-color:#AAADF7"/>
				<stop  offset="0.68" style="stop-color:#7B82E5"/>
				<stop  offset="1" style="stop-color:#5761D7"/>
			</linearGradient>
			<path style="fill:url(#SVGID_00000068636700005567440920000015400689088783658920_);" d="M126,257.4v-9.7l-2.7-1.5
				c-0.8,4.6-6.1,7.6-10.6,8.2l-30.5,17.9l-13.3,4.8l-42.6-22l1-0.6c-3.6-1.7-5.6-5.6-7.6-9.1l-2.9,1.7l-1.7,0.5v9.9
				c0,1.9,1.2,3.8,3.7,5.2l42.6,24.6c5,2.9,13.1,2.9,18.1,0l42.6-24.6c2.4-1.4,3.7-3.3,3.7-5.1C126,257.6,126,257.5,126,257.4
				L126,257.4z"/>
			<path class="st21" d="M112.7,254.4l-30.5,17.9l-11.6,4.2v13.1c3.3,0,6.6-0.7,9-2.2l42.6-24.6c2.4-1.4,3.7-3.3,3.7-5.1
				c0-0.1,0-0.2,0-0.2v-9.7l-2.4-1.4h-0.2C122.4,250.9,117.1,253.8,112.7,254.4z"/>
			
				<linearGradient id="SVGID_00000172398844591237085880000013144598650579580305_" gradientUnits="userSpaceOnUse" x1="15.0598" y1="548.2804" x2="125.9503" y2="548.2804" gradientTransform="matrix(1 0 0 -1 0 796)">
				<stop  offset="0" style="stop-color:#E9E9FD"/>
				<stop  offset="0.36" style="stop-color:#D2D2F9"/>
				<stop  offset="0.71" style="stop-color:#C4C3F6"/>
				<stop  offset="1" style="stop-color:#C0BFF6"/>
			</linearGradient>
			<path style="fill:url(#SVGID_00000172398844591237085880000013144598650579580305_);" d="M61.5,277.6L18.8,253
				c-5-2.9-5-7.6,0-10.5l42.6-24.6c5-2.9,13.1-2.9,18.1,0l42.6,24.6c5,2.9,5,7.6,0,10.5l-42.6,24.6
				C74.6,280.5,66.4,280.5,61.5,277.6L61.5,277.6z"/>
			<g class="st11">
				<path class="st23" d="M61.5,277.6L18.8,253c-5-2.9-5-7.6,0-10.5l42.6-24.6c5-2.9,13.1-2.9,18.1,0l42.6,24.6c5,2.9,5,7.6,0,10.5
					l-42.6,24.6C74.6,280.5,66.4,280.5,61.5,277.6L61.5,277.6z"/>
			</g>
		</g>
		<path class="st5" d="M70.5,246.5c-2.9,0-5.8-0.6-8-1.9L19.8,220c-2.2-1.3-3.4-3-3.4-4.9c0-1.8,1.2-3.6,3.4-4.9l42.6-24.6
			c4.4-2.6,11.6-2.6,16.1,0l42.6,24.6c2.2,1.3,3.4,3,3.4,4.9c0,1.8-1.2,3.6-3.4,4.9l-42.6,24.6C76.3,245.9,73.4,246.6,70.5,246.5
			L70.5,246.5z M70.5,184.5c-2.8,0-5.5,0.6-7.7,1.8l-42.7,24.6c-2,1.1-3,2.6-3,4.2s1.1,3.1,3,4.2L62.8,244c4.2,2.4,11.1,2.4,15.3,0
			l42.6-24.6c2-1.1,3-2.6,3-4.2s-1.1-3.1-3-4.2l-42.6-24.6C76,185.1,73.3,184.4,70.5,184.5L70.5,184.5z"/>
		<path class="st19" d="M126,205.7v-14.6l-2.7-1.5c-0.8,4.6-6.1,7.6-10.6,8.2l-30.5,17.9l-13.3,4.8l-42.6-22l1-0.6
			c-3.6-1.7-5.6-5.6-7.6-9.1l-2.9,1.7l-1.7,0.5v14.9c0,1.9,1.2,3.8,3.7,5.2l42.6,24.6c5,2.9,13.1,2.9,18.1,0l42.6-24.6
			c2.4-1.4,3.7-3.3,3.7-5.1C126,205.8,126,205.7,126,205.7z"/>
		
			<linearGradient id="SVGID_00000031178164514622354690000013008615252874726528_" gradientUnits="userSpaceOnUse" x1="26.1178" y1="632.1378" x2="114.0901" y2="581.3611" gradientTransform="matrix(1 0 0 -1 0 796)">
			<stop  offset="0" style="stop-color:#22326E"/>
			<stop  offset="0.18" style="stop-color:#1D2A5C"/>
			<stop  offset="0.48" style="stop-color:#171F45"/>
			<stop  offset="0.76" style="stop-color:#131936"/>
			<stop  offset="1" style="stop-color:#121732"/>
		</linearGradient>
		<path style="fill:url(#SVGID_00000031178164514622354690000013008615252874726528_);" d="M126,192.7V183l-2.7-1.5
			c-0.8,4.6-6.1,7.6-10.6,8.2l-30.5,17.9l-13.3,4.8l-42.6-22l1-0.6c-3.6-1.7-5.6-5.6-7.6-9.1l-2.9,1.7l-1.7,0.5v9.9
			c0,1.9,1.2,3.8,3.7,5.2l42.6,24.6c5,2.9,13.1,2.9,18.1,0l42.6-24.6c2.4-1.4,3.7-3.3,3.7-5.1C126,192.9,126,192.8,126,192.7
			L126,192.7z"/>
		<path class="st21" d="M112.7,189.7l-30.5,17.9l-11.6,4.2v13.1c3.3,0,6.6-0.7,9-2.2l42.6-24.6c2.4-1.4,3.7-3.3,3.7-5.1
			c0-0.1,0-0.2,0-0.2V183l-2.4-1.4h-0.2C122.4,186.2,117.1,189.1,112.7,189.7z"/>
		<path class="st0" d="M61.5,212.9l-42.7-24.6c-5-2.9-5-7.6,0-10.5l42.7-24.6c5-2.9,13.1-2.9,18.1,0l42.6,24.6c5,2.9,5,7.6,0,10.5
			l-42.6,24.6C74.6,215.8,66.5,215.8,61.5,212.9L61.5,212.9z"/>
		<path class="st25" d="M70.5,208.4c-2.6,0-5.2-0.6-7.3-1.7l-33.3-19.2c-2-1.1-3.1-2.7-3.1-4.4c0-1.7,1.1-3.3,3.1-4.4l33.3-19.3
			c4-2.3,10.5-2.3,14.5,0l33.3,19.2c2,1.1,3.1,2.7,3.1,4.4c0,1.7-1.1,3.3-3.1,4.4l-33.3,19.2C75.8,207.8,73.1,208.4,70.5,208.4
			L70.5,208.4z M70.5,158.4c-2.5,0-5,0.5-6.9,1.7l-33.3,19.2c-1.8,1-2.7,2.4-2.7,3.8c0,1.4,1,2.7,2.7,3.8L63.6,206
			c3.8,2.2,10,2.2,13.8,0l33.3-19.2c1.8-1,2.7-2.4,2.7-3.8c0-1.4-1-2.7-2.7-3.8L77.4,160C75.5,158.9,73,158.4,70.5,158.4L70.5,158.4
			z"/>
		<path class="st8" d="M122.2,188.3l-42.6,24.6c-5,2.9-13.1,2.9-18.1,0l-42.7-24.6c-2.2-1.3-3.5-2.9-3.7-4.6
			c-0.3,2.1,0.9,4.2,3.7,5.8l42.6,24.6c5,2.9,13.1,2.9,18.1,0l42.6-24.6c2.8-1.6,4-3.7,3.7-5.8C125.7,185.3,124.4,187,122.2,188.3
			L122.2,188.3z"/>
		<g class="st11">
			
				<linearGradient id="SVGID_00000128462372408557103480000000369067824175425924_" gradientUnits="userSpaceOnUse" x1="451.9545" y1="174.9902" x2="539.9348" y2="124.2106" gradientTransform="matrix(1 0 0 -1 0 796)">
				<stop  offset="0" style="stop-color:#BCBEFF"/>
				<stop  offset="0.23" style="stop-color:#AAADF7"/>
				<stop  offset="0.68" style="stop-color:#7B82E5"/>
				<stop  offset="1" style="stop-color:#5761D7"/>
			</linearGradient>
			<path style="fill:url(#SVGID_00000128462372408557103480000000369067824175425924_);" d="M551.8,649.8v-9.7l-2.7-1.5
				c-0.8,4.6-6.1,7.6-10.6,8.2L508,664.8l-13.3,4.8l-42.6-22l1-0.6c-3.6-1.7-5.6-5.6-7.6-9.1l-2.9,1.7l-1.7,0.5v9.9
				c0,1.9,1.2,3.8,3.7,5.2l42.6,24.6c5,2.9,13.1,2.9,18.1,0l42.6-24.6c2.4-1.4,3.7-3.3,3.7-5.1C551.8,650,551.8,649.9,551.8,649.8
				L551.8,649.8z"/>
			<path class="st21" d="M538.5,646.9L508,664.7l-11.6,4.2V682c3.3,0,6.6-0.7,9-2.2l42.6-24.6c2.4-1.4,3.7-3.3,3.7-5.1
				c0-0.1,0-0.2,0-0.2v-9.7l-2.4-1.4h-0.2C548.2,643.3,542.9,646.3,538.5,646.9z"/>
			
				<linearGradient id="SVGID_00000064321618836420496860000009194304748570624897_" gradientUnits="userSpaceOnUse" x1="440.8945" y1="155.8515" x2="551.7845" y2="155.8515" gradientTransform="matrix(1 0 0 -1 0 796)">
				<stop  offset="0" style="stop-color:#E9E9FD"/>
				<stop  offset="0.36" style="stop-color:#D2D2F9"/>
				<stop  offset="0.71" style="stop-color:#C4C3F6"/>
				<stop  offset="1" style="stop-color:#C0BFF6"/>
			</linearGradient>
			<path style="fill:url(#SVGID_00000064321618836420496860000009194304748570624897_);" d="M487.3,670l-42.6-24.6
				c-5-2.9-5-7.6,0-10.5l42.6-24.6c5-2.9,13.1-2.9,18.1,0l42.6,24.6c5,2.9,5,7.6,0,10.5L505.4,670
				C500.4,672.9,492.3,672.9,487.3,670z"/>
			<g class="st11">
				<path class="st23" d="M487.3,670l-42.6-24.6c-5-2.9-5-7.6,0-10.5l42.6-24.6c5-2.9,13.1-2.9,18.1,0l42.6,24.6c5,2.9,5,7.6,0,10.5
					L505.4,670C500.4,672.9,492.3,672.9,487.3,670z"/>
			</g>
		</g>
		<path class="st5" d="M496.4,639c-2.9,0-5.8-0.6-8.1-1.9l-42.6-24.6c-2.2-1.3-3.4-3-3.4-4.9c0-1.8,1.2-3.6,3.4-4.9l42.6-24.6
			c4.4-2.6,11.6-2.6,16.1,0l42.6,24.6c2.2,1.3,3.4,3,3.4,4.9c0,1.8-1.2,3.6-3.4,4.9l-42.6,24.6C502.2,638.3,499.2,639,496.4,639
			L496.4,639z M496.4,576.9c-2.8,0-5.6,0.6-7.7,1.8l-42.6,24.6c-2,1.1-3,2.6-3,4.2s1.1,3.1,3,4.2l42.6,24.6c4.2,2.4,11.1,2.4,15.3,0
			l42.6-24.6c2-1.1,3-2.6,3-4.2s-1.1-3.1-3-4.2L504,578.8C501.9,577.5,499.1,576.9,496.4,576.9z"/>
		<path class="st19" d="M551.8,598.1v-14.6l-2.7-1.5c-0.8,4.6-6.1,7.6-10.6,8.2L508,608.1l-13.3,4.8l-42.6-22l1-0.6
			c-3.6-1.7-5.6-5.6-7.6-9.1l-2.9,1.7l-1.7,0.5v14.9c0,1.9,1.2,3.8,3.7,5.2l42.6,24.6c5,2.9,13.1,2.9,18.1,0l42.6-24.6
			c2.4-1.4,3.7-3.3,3.7-5.1C551.8,598.3,551.8,598.2,551.8,598.1L551.8,598.1z"/>
		
			<linearGradient id="SVGID_00000143600594484734034460000015235219650859684269_" gradientUnits="userSpaceOnUse" x1="451.9547" y1="239.6916" x2="539.9347" y2="188.9121" gradientTransform="matrix(1 0 0 -1 0 796)">
			<stop  offset="0" style="stop-color:#22326E"/>
			<stop  offset="0.18" style="stop-color:#1D2A5C"/>
			<stop  offset="0.48" style="stop-color:#171F45"/>
			<stop  offset="0.76" style="stop-color:#131936"/>
			<stop  offset="1" style="stop-color:#121732"/>
		</linearGradient>
		<path style="fill:url(#SVGID_00000143600594484734034460000015235219650859684269_);" d="M551.8,585.1v-9.7l-2.7-1.5
			c-0.8,4.6-6.1,7.6-10.6,8.2L508,600.1l-13.3,4.8l-42.6-22l1-0.6c-3.6-1.7-5.6-5.6-7.6-9.1l-2.9,1.7l-1.7,0.5v9.9
			c0,1.9,1.2,3.8,3.7,5.2l42.6,24.6c5,2.9,13.1,2.9,18.1,0l42.6-24.6c2.4-1.4,3.7-3.3,3.7-5.1C551.8,585.3,551.8,585.2,551.8,585.1
			L551.8,585.1z"/>
		<path class="st21" d="M538.5,582.2L508,600l-11.6,4.2v13.1c3.3,0,6.6-0.7,9-2.2l42.6-24.6c2.4-1.4,3.7-3.3,3.7-5.1
			c0-0.1,0-0.2,0-0.2v-9.7l-2.4-1.4h-0.2C548.2,578.6,542.9,581.6,538.5,582.2z"/>
		<path class="st0" d="M487.3,605.3l-42.6-24.6c-5-2.9-5-7.6,0-10.5l42.6-24.6c5-2.9,13.1-2.9,18.1,0l42.6,24.6c5,2.9,5,7.6,0,10.5
			l-42.6,24.6C500.4,608.2,492.3,608.2,487.3,605.3z"/>
		<path class="st25" d="M496.4,600.9c-2.6,0-5.2-0.6-7.3-1.7l-33.3-19.2c-2-1.1-3.1-2.7-3.1-4.4c0-1.7,1.1-3.3,3.1-4.4l33.3-19.2
			c4-2.3,10.5-2.3,14.5,0l33.3,19.2c2,1.1,3.1,2.7,3.1,4.4c0,1.7-1.1,3.3-3.1,4.4l-33.3,19.2C501.6,600.3,499,600.9,496.4,600.9z
			 M496.4,550.8c-2.5,0-5,0.5-6.9,1.7l-33.3,19.2c-1.8,1-2.7,2.4-2.7,3.8c0,1.4,1,2.7,2.7,3.8l33.3,19.2c3.8,2.2,10,2.2,13.8,0
			l33.3-19.2c1.8-1,2.7-2.4,2.7-3.8c0-1.4-1-2.7-2.7-3.8l-33.3-19.2C501.4,551.4,498.9,550.8,496.4,550.8L496.4,550.8z"/>
		<path class="st8" d="M548,580.7l-42.6,24.6c-5,2.9-13.1,2.9-18.1,0l-42.6-24.6c-2.2-1.3-3.5-2.9-3.7-4.6c-0.3,2.1,0.9,4.2,3.7,5.8
			l42.6,24.6c5,2.9,13.1,2.9,18.1,0l42.6-24.6c2.8-1.6,4-3.7,3.7-5.8C551.5,577.8,550.3,579.4,548,580.7z"/>
		<g class="st11">
			
				<linearGradient id="SVGID_00000014623234252208497650000003962966078898616238_" gradientUnits="userSpaceOnUse" x1="642.2184" y1="227.9408" x2="730.2143" y2="177.1832" gradientTransform="matrix(1 0 0 -1 0 796)">
				<stop  offset="0" style="stop-color:#BCBEFF"/>
				<stop  offset="0.23" style="stop-color:#AAADF7"/>
				<stop  offset="0.68" style="stop-color:#7B82E5"/>
				<stop  offset="1" style="stop-color:#5761D7"/>
			</linearGradient>
			<path style="fill:url(#SVGID_00000014623234252208497650000003962966078898616238_);" d="M742.1,596.8v-9.7l-2.7-1.5
				c-0.8,4.6-6.1,7.6-10.6,8.2l-30.5,17.9l-13.3,4.8l-42.6-22l1-0.6c-3.7-1.7-5.6-5.6-7.6-9.1l-2.9,1.7l-1.7,0.5v9.9
				c0,1.9,1.2,3.8,3.7,5.2l42.6,24.6c5,2.9,13.1,2.9,18.1,0l42.6-24.6c2.4-1.4,3.7-3.3,3.7-5.1C742.1,597.1,742.1,597,742.1,596.8
				L742.1,596.8z"/>
			<path class="st21" d="M728.8,593.9l-30.5,17.9l-11.6,4.2V629c3.3,0,6.6-0.7,9-2.2l42.6-24.6c2.4-1.4,3.7-3.3,3.7-5.1
				c0-0.1,0-0.2,0-0.2v-9.7l-2.4-1.4h-0.2C738.5,590.3,733.2,593.3,728.8,593.9z"/>
			
				<linearGradient id="SVGID_00000153670326410639049340000006630241577867894934_" gradientUnits="userSpaceOnUse" x1="631.197" y1="208.8194" x2="742.092" y2="208.8194" gradientTransform="matrix(1 0 0 -1 0 796)">
				<stop  offset="0" style="stop-color:#E9E9FD"/>
				<stop  offset="0.36" style="stop-color:#D2D2F9"/>
				<stop  offset="0.71" style="stop-color:#C4C3F6"/>
				<stop  offset="1" style="stop-color:#C0BFF6"/>
			</linearGradient>
			<path style="fill:url(#SVGID_00000153670326410639049340000006630241577867894934_);" d="M677.6,617.1L635,592.4
				c-5-2.9-5-7.6,0-10.5l42.6-24.6c5-2.9,13.1-2.9,18.1,0l42.6,24.6c5,2.9,5,7.6,0,10.5l-42.6,24.6C690.7,620,682.6,620,677.6,617.1
				z"/>
			<g class="st11">
				<path class="st23" d="M677.6,617.1L635,592.4c-5-2.9-5-7.6,0-10.5l42.6-24.6c5-2.9,13.1-2.9,18.1,0l42.6,24.6
					c5,2.9,5,7.6,0,10.5l-42.6,24.6C690.7,620,682.6,620,677.6,617.1z"/>
			</g>
		</g>
		<path class="st5" d="M686.6,586c-2.9,0-5.8-0.6-8.1-1.9l-42.6-24.6c-2.2-1.3-3.4-3-3.4-4.9c0-1.8,1.2-3.6,3.4-4.9l42.6-24.6
			c4.4-2.6,11.6-2.6,16.1,0l42.6,24.6c2.2,1.3,3.4,3,3.4,4.9c0,1.8-1.2,3.6-3.4,4.9l-42.6,24.6C692.4,585.3,689.5,586,686.6,586
			L686.6,586z M686.6,523.9c-2.8,0-5.5,0.6-7.7,1.8l-42.6,24.6c-1.9,1.1-3,2.6-3,4.2s1.1,3.1,3,4.2l42.6,24.6
			c4.2,2.4,11.1,2.4,15.3,0l42.6-24.6c2-1.1,3.1-2.6,3.1-4.2s-1.1-3.1-3.1-4.2l-42.6-24.6C692.2,524.5,689.4,523.9,686.6,523.9z"/>
		<path class="st19" d="M742.1,545.1v-14.6l-2.7-1.5c-0.8,4.6-6.1,7.6-10.6,8.2l-30.5,17.9l-13.3,4.8l-42.6-22l1-0.6
			c-3.7-1.7-5.6-5.6-7.6-9.1l-2.9,1.7l-1.7,0.5v14.9c0,1.9,1.2,3.8,3.7,5.2l42.6,24.6c5,2.9,13.1,2.9,18.1,0l42.6-24.6
			c2.4-1.4,3.7-3.3,3.7-5.1C742.1,545.3,742.1,545.2,742.1,545.1L742.1,545.1z"/>
		
			<linearGradient id="SVGID_00000163756832029406634830000008613640125810978988_" gradientUnits="userSpaceOnUse" x1="642.2184" y1="292.6426" x2="730.214" y2="241.8841" gradientTransform="matrix(1 0 0 -1 0 796)">
			<stop  offset="0" style="stop-color:#22326E"/>
			<stop  offset="0.18" style="stop-color:#1D2A5C"/>
			<stop  offset="0.48" style="stop-color:#171F45"/>
			<stop  offset="0.76" style="stop-color:#131936"/>
			<stop  offset="1" style="stop-color:#121732"/>
		</linearGradient>
		<path style="fill:url(#SVGID_00000163756832029406634830000008613640125810978988_);" d="M742.1,532.1v-9.7l-2.7-1.5
			c-0.8,4.6-6.1,7.6-10.6,8.2l-30.5,17.9l-13.3,4.8l-42.6-22l1-0.6c-3.7-1.7-5.6-5.6-7.6-9.1l-2.9,1.7l-1.7,0.5v9.9
			c0,1.9,1.2,3.8,3.7,5.2l42.6,24.6c5,2.9,13.1,2.9,18.1,0l42.6-24.6c2.4-1.4,3.7-3.3,3.7-5.1C742.1,532.4,742.1,532.3,742.1,532.1
			L742.1,532.1z"/>
		<path class="st21" d="M728.8,529.2l-30.5,17.9l-11.6,4.2v13.1c3.3,0,6.6-0.7,9-2.2l42.6-24.6c2.4-1.4,3.7-3.3,3.7-5.1
			c0-0.1,0-0.2,0-0.2v-9.7l-2.4-1.4h-0.2C738.5,525.6,733.2,528.6,728.8,529.2z"/>
		<path class="st0" d="M677.6,552.3L635,527.7c-5-2.9-5-7.6,0-10.5l42.6-24.6c5-2.9,13.1-2.9,18.1,0l42.6,24.6c5,2.9,5,7.6,0,10.5
			l-42.6,24.6C690.7,555.2,682.6,555.2,677.6,552.3z"/>
		<path class="st25" d="M686.6,547.9c-2.6,0-5.2-0.6-7.3-1.7L646,526.9c-2-1.1-3.1-2.7-3.1-4.4c0-1.7,1.1-3.3,3.1-4.4l33.3-19.2
			c4-2.3,10.5-2.3,14.5,0l33.3,19.2c2,1.1,3.1,2.7,3.1,4.4c0,1.7-1.1,3.3-3.1,4.4l-33.3,19.2C691.9,547.3,689.3,547.9,686.6,547.9z
			 M686.6,497.8c-2.5,0-5,0.5-6.9,1.7l-33.3,19.2c-1.8,1-2.8,2.4-2.8,3.8c0,1.4,1,2.7,2.8,3.8l33.3,19.2c3.8,2.2,10,2.2,13.8,0
			l33.3-19.2c1.8-1,2.8-2.4,2.8-3.8c0-1.4-1-2.7-2.8-3.8l-33.3-19.2C691.6,498.4,689.1,497.8,686.6,497.8L686.6,497.8z"/>
		<path class="st8" d="M738.3,527.7l-42.6,24.6c-5,2.9-13.1,2.9-18.1,0L635,527.7c-2.2-1.3-3.5-2.9-3.7-4.6
			c-0.3,2.1,0.9,4.2,3.7,5.8l42.6,24.6c5,2.9,13.1,2.9,18.1,0l42.6-24.6c2.8-1.6,4-3.7,3.7-5.8C741.8,524.8,740.6,526.4,738.3,527.7
			z"/>
	</g>
</g>
</svg>
